G04 #@! TF.FileFunction,Copper,L1,Top,Signal*
%FSLAX46Y46*%
G04 Gerber Fmt 4.6, Leading zero omitted, Abs format (unit mm)*
G04 Created by KiCad (PCBNEW 4.0.7) date 03/03/18 20:10:21*
%MOMM*%
%LPD*%
G01*
G04 APERTURE LIST*
%ADD10C,0.100000*%
%ADD11C,0.300000*%
%ADD12R,1.500000X1.250000*%
%ADD13R,1.250000X1.500000*%
%ADD14R,3.000000X3.000000*%
%ADD15C,3.000000*%
%ADD16R,1.500000X1.300000*%
%ADD17R,0.600000X1.550000*%
%ADD18R,0.600000X1.500000*%
%ADD19R,2.000000X3.800000*%
%ADD20R,2.000000X1.500000*%
%ADD21C,1.524000*%
%ADD22C,1.500000*%
%ADD23C,0.400000*%
%ADD24C,0.254000*%
G04 APERTURE END LIST*
D10*
D11*
X56996000Y1476286D02*
X56996000Y2190572D01*
X57424571Y1333429D02*
X55924571Y1833429D01*
X57424571Y2333429D01*
X57353143Y3476286D02*
X57424571Y3333429D01*
X57424571Y3047715D01*
X57353143Y2904857D01*
X57281714Y2833429D01*
X57138857Y2762000D01*
X56710286Y2762000D01*
X56567429Y2833429D01*
X56496000Y2904857D01*
X56424571Y3047715D01*
X56424571Y3333429D01*
X56496000Y3476286D01*
X56424571Y3904857D02*
X56424571Y4476286D01*
X55924571Y4119143D02*
X57210286Y4119143D01*
X57353143Y4190571D01*
X57424571Y4333429D01*
X57424571Y4476286D01*
X57424571Y4976286D02*
X56424571Y4976286D01*
X55924571Y4976286D02*
X55996000Y4904857D01*
X56067429Y4976286D01*
X55996000Y5047714D01*
X55924571Y4976286D01*
X56067429Y4976286D01*
X56424571Y5547715D02*
X57424571Y5904858D01*
X56424571Y6262000D01*
X57353143Y7404857D02*
X57424571Y7262000D01*
X57424571Y6976286D01*
X57353143Y6833429D01*
X57210286Y6762000D01*
X56638857Y6762000D01*
X56496000Y6833429D01*
X56424571Y6976286D01*
X56424571Y7262000D01*
X56496000Y7404857D01*
X56638857Y7476286D01*
X56781714Y7476286D01*
X56924571Y6762000D01*
X56424571Y9047714D02*
X56424571Y9619143D01*
X57424571Y9262000D02*
X56138857Y9262000D01*
X55996000Y9333428D01*
X55924571Y9476286D01*
X55924571Y9619143D01*
X57424571Y10119143D02*
X56424571Y10119143D01*
X55924571Y10119143D02*
X55996000Y10047714D01*
X56067429Y10119143D01*
X55996000Y10190571D01*
X55924571Y10119143D01*
X56067429Y10119143D01*
X57424571Y11047715D02*
X57353143Y10904857D01*
X57210286Y10833429D01*
X55924571Y10833429D01*
X56424571Y11404857D02*
X56424571Y11976286D01*
X55924571Y11619143D02*
X57210286Y11619143D01*
X57353143Y11690571D01*
X57424571Y11833429D01*
X57424571Y11976286D01*
X57353143Y13047714D02*
X57424571Y12904857D01*
X57424571Y12619143D01*
X57353143Y12476286D01*
X57210286Y12404857D01*
X56638857Y12404857D01*
X56496000Y12476286D01*
X56424571Y12619143D01*
X56424571Y12904857D01*
X56496000Y13047714D01*
X56638857Y13119143D01*
X56781714Y13119143D01*
X56924571Y12404857D01*
X57424571Y13762000D02*
X56424571Y13762000D01*
X56710286Y13762000D02*
X56567429Y13833428D01*
X56496000Y13904857D01*
X56424571Y14047714D01*
X56424571Y14190571D01*
X58617429Y3476286D02*
X58546000Y3547715D01*
X58474571Y3690572D01*
X58474571Y4047715D01*
X58546000Y4190572D01*
X58617429Y4262001D01*
X58760286Y4333429D01*
X58903143Y4333429D01*
X59117429Y4262001D01*
X59974571Y3404858D01*
X59974571Y4333429D01*
X58474571Y5262000D02*
X58474571Y5404857D01*
X58546000Y5547714D01*
X58617429Y5619143D01*
X58760286Y5690572D01*
X59046000Y5762000D01*
X59403143Y5762000D01*
X59688857Y5690572D01*
X59831714Y5619143D01*
X59903143Y5547714D01*
X59974571Y5404857D01*
X59974571Y5262000D01*
X59903143Y5119143D01*
X59831714Y5047714D01*
X59688857Y4976286D01*
X59403143Y4904857D01*
X59046000Y4904857D01*
X58760286Y4976286D01*
X58617429Y5047714D01*
X58546000Y5119143D01*
X58474571Y5262000D01*
X59974571Y7547714D02*
X58474571Y7547714D01*
X59403143Y7690571D02*
X59974571Y8119142D01*
X58974571Y8119142D02*
X59546000Y7547714D01*
X59974571Y8762000D02*
X58474571Y8762000D01*
X59188857Y8762000D02*
X59188857Y9619143D01*
X59974571Y9619143D02*
X58474571Y9619143D01*
X58974571Y10190572D02*
X58974571Y10976286D01*
X59974571Y10190572D01*
X59974571Y10976286D01*
X62524571Y2833429D02*
X61024571Y2833429D01*
X62096000Y3333429D01*
X61024571Y3833429D01*
X62524571Y3833429D01*
X62524571Y5190572D02*
X61738857Y5190572D01*
X61596000Y5119143D01*
X61524571Y4976286D01*
X61524571Y4690572D01*
X61596000Y4547715D01*
X62453143Y5190572D02*
X62524571Y5047715D01*
X62524571Y4690572D01*
X62453143Y4547715D01*
X62310286Y4476286D01*
X62167429Y4476286D01*
X62024571Y4547715D01*
X61953143Y4690572D01*
X61953143Y5047715D01*
X61881714Y5190572D01*
X62524571Y5904858D02*
X61524571Y5904858D01*
X61810286Y5904858D02*
X61667429Y5976286D01*
X61596000Y6047715D01*
X61524571Y6190572D01*
X61524571Y6333429D01*
X62381714Y6833429D02*
X62453143Y6904857D01*
X62524571Y6833429D01*
X62453143Y6762000D01*
X62381714Y6833429D01*
X62524571Y6833429D01*
X61953143Y8690572D02*
X61953143Y9833429D01*
X62524571Y11333429D02*
X62524571Y10476286D01*
X62524571Y10904858D02*
X61024571Y10904858D01*
X61238857Y10762001D01*
X61381714Y10619143D01*
X61453143Y10476286D01*
X61667429Y12190572D02*
X61596000Y12047714D01*
X61524571Y11976286D01*
X61381714Y11904857D01*
X61310286Y11904857D01*
X61167429Y11976286D01*
X61096000Y12047714D01*
X61024571Y12190572D01*
X61024571Y12476286D01*
X61096000Y12619143D01*
X61167429Y12690572D01*
X61310286Y12762000D01*
X61381714Y12762000D01*
X61524571Y12690572D01*
X61596000Y12619143D01*
X61667429Y12476286D01*
X61667429Y12190572D01*
X61738857Y12047714D01*
X61810286Y11976286D01*
X61953143Y11904857D01*
X62238857Y11904857D01*
X62381714Y11976286D01*
X62453143Y12047714D01*
X62524571Y12190572D01*
X62524571Y12476286D01*
X62453143Y12619143D01*
X62381714Y12690572D01*
X62238857Y12762000D01*
X61953143Y12762000D01*
X61810286Y12690572D01*
X61738857Y12619143D01*
X61667429Y12476286D01*
D12*
X10942000Y38862000D03*
X13442000Y38862000D03*
X34016000Y38862000D03*
X31516000Y38862000D03*
X13696000Y44196000D03*
X11196000Y44196000D03*
X34016000Y44196000D03*
X31516000Y44196000D03*
X23114000Y32258000D03*
X20614000Y32258000D03*
X41128000Y32004000D03*
X38628000Y32004000D03*
X11546000Y35762000D03*
X14046000Y35762000D03*
X34016000Y35560000D03*
X31516000Y35560000D03*
X14224000Y31242000D03*
X11724000Y31242000D03*
X34016000Y30988000D03*
X31516000Y30988000D03*
X11704000Y22352000D03*
X14204000Y22352000D03*
D13*
X54102000Y23094000D03*
X54102000Y20594000D03*
D12*
X33000000Y22352000D03*
X30500000Y22352000D03*
X14204000Y27686000D03*
X11704000Y27686000D03*
X33000000Y27178000D03*
X30500000Y27178000D03*
X21824000Y15240000D03*
X19324000Y15240000D03*
X41128000Y15240000D03*
X38628000Y15240000D03*
X12466000Y18034000D03*
X14966000Y18034000D03*
X33000000Y18796000D03*
X30500000Y18796000D03*
D14*
X8382000Y6350000D03*
D15*
X13462000Y6350000D03*
D14*
X19812000Y6350000D03*
D15*
X24892000Y6350000D03*
D16*
X8382000Y41656000D03*
X5682000Y41656000D03*
X13622000Y41656000D03*
X10922000Y41656000D03*
X28528000Y41402000D03*
X25828000Y41402000D03*
X34116000Y41402000D03*
X31416000Y41402000D03*
X8890000Y33362000D03*
X6190000Y33362000D03*
X14146000Y33412000D03*
X11446000Y33412000D03*
X28528000Y35560000D03*
X25828000Y35560000D03*
X34116000Y33274000D03*
X31416000Y33274000D03*
X8970000Y25146000D03*
X6270000Y25146000D03*
X14304000Y25146000D03*
X11604000Y25146000D03*
X27512000Y24638000D03*
X24812000Y24638000D03*
X33100000Y24638000D03*
X30400000Y24638000D03*
X9732000Y15494000D03*
X7032000Y15494000D03*
X15066000Y15494000D03*
X12366000Y15494000D03*
X27766000Y16256000D03*
X25066000Y16256000D03*
X33100000Y16256000D03*
X30400000Y16256000D03*
D17*
X23201000Y40962000D03*
X21931000Y40962000D03*
X20661000Y40962000D03*
X19391000Y40962000D03*
X19391000Y35562000D03*
X20661000Y35562000D03*
X21931000Y35562000D03*
X23201000Y35562000D03*
X41275000Y40292000D03*
X40005000Y40292000D03*
X38735000Y40292000D03*
X37465000Y40292000D03*
X37465000Y34892000D03*
X38735000Y34892000D03*
X40005000Y34892000D03*
X41275000Y34892000D03*
D18*
X54102000Y31402000D03*
X52832000Y31402000D03*
X51562000Y31402000D03*
X50292000Y31402000D03*
X49022000Y31402000D03*
X47752000Y31402000D03*
X46482000Y31402000D03*
X46482000Y26002000D03*
X47752000Y26002000D03*
X49022000Y26002000D03*
X50292000Y26002000D03*
X51562000Y26002000D03*
X52832000Y26002000D03*
X54102000Y26002000D03*
D17*
X22225000Y23274000D03*
X20955000Y23274000D03*
X19685000Y23274000D03*
X18415000Y23274000D03*
X18415000Y17874000D03*
X19685000Y17874000D03*
X20955000Y17874000D03*
X22225000Y17874000D03*
X41275000Y23528000D03*
X40005000Y23528000D03*
X38735000Y23528000D03*
X37465000Y23528000D03*
X37465000Y18128000D03*
X38735000Y18128000D03*
X40005000Y18128000D03*
X41275000Y18128000D03*
D19*
X30124000Y6350000D03*
D20*
X36424000Y6350000D03*
X36424000Y8650000D03*
X36424000Y4050000D03*
D12*
X14966000Y12954000D03*
X12466000Y12954000D03*
X33000000Y13716000D03*
X30500000Y13716000D03*
D13*
X39116000Y9418000D03*
X39116000Y11918000D03*
D12*
X39390000Y3556000D03*
X41890000Y3556000D03*
D21*
X3048000Y40132000D03*
X3048000Y35052000D03*
X59436000Y35052000D03*
X59436000Y29972000D03*
X59436000Y26670000D03*
X59436000Y21590000D03*
X3302000Y22352000D03*
X3302000Y17272000D03*
X20574000Y11684000D03*
X25654000Y11684000D03*
D22*
X41148000Y29718000D03*
X44196000Y17018000D03*
X43942000Y34290000D03*
X27432000Y32512000D03*
D11*
X55626000Y26924000D02*
X55626000Y22243000D01*
X55626000Y22243000D02*
X54102000Y20719000D01*
X54102000Y20719000D02*
X54102000Y20594000D01*
X55347999Y27202001D02*
X55626000Y26924000D01*
X52832000Y26002000D02*
X52832000Y27052000D01*
X52832000Y27052000D02*
X52982001Y27202001D01*
X52982001Y27202001D02*
X55347999Y27202001D01*
D23*
X15240000Y37338000D02*
X9652000Y37338000D01*
X9652000Y37338000D02*
X7112000Y39878000D01*
X7112000Y39878000D02*
X7112000Y43180000D01*
X7112000Y43180000D02*
X8128000Y44196000D01*
X8128000Y44196000D02*
X11196000Y44196000D01*
D11*
X15240000Y37338000D02*
X14986000Y37338000D01*
X18272744Y37338000D02*
X15240000Y37338000D01*
D23*
X49022000Y26002000D02*
X49022000Y24852000D01*
X49022000Y24852000D02*
X44820164Y20650164D01*
X19979810Y20121371D02*
X17065889Y20121371D01*
X44820164Y20650164D02*
X39029663Y20650164D01*
X35849402Y20505476D02*
X35704714Y20650164D01*
X9209998Y27686000D02*
X10554000Y27686000D01*
X39029663Y20650164D02*
X38884975Y20505476D01*
X38884975Y20505476D02*
X35849402Y20505476D01*
X35704714Y20650164D02*
X20508603Y20650164D01*
X16537096Y20650164D02*
X10591836Y20650164D01*
X20508603Y20650164D02*
X19979810Y20121371D01*
X17065889Y20121371D02*
X16537096Y20650164D01*
X7719999Y23522001D02*
X7719999Y26196001D01*
X10591836Y20650164D02*
X7719999Y23522001D01*
X7719999Y26196001D02*
X9209998Y27686000D01*
X10554000Y27686000D02*
X11704000Y27686000D01*
D11*
X50292000Y31402000D02*
X50292000Y32452000D01*
X50292000Y32452000D02*
X45256988Y37487012D01*
X45256988Y37487012D02*
X18421756Y37487012D01*
X18421756Y37487012D02*
X18272744Y37338000D01*
X49022000Y26002000D02*
X49022000Y26452000D01*
D23*
X39154966Y39016999D02*
X39904999Y39016999D01*
X35930033Y38862000D02*
X36475045Y38316988D01*
X38454955Y38316988D02*
X39154966Y39016999D01*
X39904999Y39016999D02*
X40005000Y39117000D01*
X34016000Y38862000D02*
X35930033Y38862000D01*
X40005000Y39117000D02*
X40005000Y40292000D01*
X36475045Y38316988D02*
X38454955Y38316988D01*
X41275000Y40292000D02*
X46068000Y40292000D01*
X46068000Y40292000D02*
X52832000Y33528000D01*
X52832000Y33528000D02*
X52832000Y31402000D01*
X41275000Y40292000D02*
X40005000Y40292000D01*
X20574000Y11684000D02*
X21824000Y12934000D01*
X21824000Y12934000D02*
X21824000Y13970000D01*
X25654000Y11684000D02*
X26415999Y10922001D01*
X26415999Y10922001D02*
X32751999Y10922001D01*
X32751999Y10922001D02*
X35024000Y8650000D01*
X35024000Y8650000D02*
X36424000Y8650000D01*
X21824000Y13970000D02*
X21824000Y15240000D01*
X41148000Y29718000D02*
X41148000Y31984000D01*
X41148000Y31984000D02*
X41128000Y32004000D01*
X41128000Y15240000D02*
X42418000Y15240000D01*
X42418000Y15240000D02*
X44196000Y17018000D01*
X43942000Y34290000D02*
X41877000Y34290000D01*
X41877000Y34290000D02*
X41275000Y34892000D01*
X23114000Y32258000D02*
X27178000Y32258000D01*
X27178000Y32258000D02*
X27432000Y32512000D01*
X41128000Y15240000D02*
X41128000Y11430000D01*
X41128000Y11430000D02*
X41128000Y11011000D01*
X39116000Y9418000D02*
X40141000Y9418000D01*
X40141000Y9418000D02*
X41128000Y10405000D01*
X41128000Y10405000D02*
X41128000Y11430000D01*
X47752000Y19050000D02*
X51796000Y23094000D01*
X51796000Y23094000D02*
X54102000Y23094000D01*
X42897000Y19050000D02*
X47752000Y19050000D01*
X41275000Y18128000D02*
X41975000Y18128000D01*
X41975000Y18128000D02*
X42897000Y19050000D01*
X39007000Y8890000D02*
X38882000Y8890000D01*
X38882000Y8890000D02*
X36664000Y8890000D01*
X36664000Y8890000D02*
X36424000Y8650000D01*
X54102000Y26002000D02*
X54102000Y23094000D01*
X54082000Y25982000D02*
X54102000Y26002000D01*
X41128000Y15240000D02*
X41128000Y17981000D01*
X41128000Y17981000D02*
X41275000Y18128000D01*
X22225000Y17874000D02*
X22225000Y15641000D01*
X22225000Y15641000D02*
X21824000Y15240000D01*
X41275000Y34892000D02*
X41275000Y32151000D01*
X41275000Y32151000D02*
X41128000Y32004000D01*
X23114000Y32258000D02*
X23114000Y35475000D01*
X23114000Y35475000D02*
X23201000Y35562000D01*
X51562000Y31402000D02*
X51562000Y30252000D01*
X51562000Y30252000D02*
X51828575Y29985425D01*
X58286592Y35052000D02*
X59436000Y35052000D01*
X51828575Y29985425D02*
X56295345Y29985425D01*
X56295345Y29985425D02*
X57027565Y30717645D01*
X57027565Y30717645D02*
X57027565Y33792973D01*
X57027565Y33792973D02*
X58286592Y35052000D01*
X59436000Y29972000D02*
X58358370Y29972000D01*
X57657331Y29270961D02*
X48733039Y29270961D01*
X58358370Y29972000D02*
X57657331Y29270961D01*
X48733039Y29270961D02*
X47752000Y30252000D01*
X47752000Y30252000D02*
X47752000Y31402000D01*
X14224000Y31242000D02*
X14224000Y33334000D01*
X14224000Y33334000D02*
X14146000Y33412000D01*
X14146000Y33412000D02*
X17716000Y33412000D01*
X17716000Y33412000D02*
X19391000Y35087000D01*
X19391000Y35087000D02*
X19391000Y35562000D01*
X34016000Y30988000D02*
X34016000Y33174000D01*
X34016000Y33174000D02*
X34116000Y33274000D01*
X34116000Y33274000D02*
X36322000Y33274000D01*
X36322000Y33274000D02*
X37465000Y34417000D01*
X37465000Y34417000D02*
X37465000Y34892000D01*
X11704000Y22352000D02*
X11704000Y25046000D01*
X11704000Y25046000D02*
X11604000Y25146000D01*
X8970000Y25146000D02*
X11604000Y25146000D01*
X20955000Y22099000D02*
X19677382Y20821382D01*
X15825225Y22352000D02*
X15354000Y22352000D01*
X17355843Y20821382D02*
X15825225Y22352000D01*
X19677382Y20821382D02*
X17355843Y20821382D01*
X20955000Y23274000D02*
X20955000Y22099000D01*
X15354000Y22352000D02*
X14204000Y22352000D01*
X22225000Y23274000D02*
X23448000Y23274000D01*
X23448000Y23274000D02*
X24812000Y24638000D01*
X20955000Y23274000D02*
X22225000Y23274000D01*
X36982502Y21905498D02*
X38305067Y21905498D01*
X34250000Y24638000D02*
X36982502Y21905498D01*
X38735000Y22335431D02*
X38735000Y22353000D01*
X38305067Y21905498D02*
X38735000Y22335431D01*
X38735000Y22353000D02*
X38735000Y23528000D01*
X33100000Y24638000D02*
X34250000Y24638000D01*
X33100000Y24638000D02*
X33100000Y27078000D01*
X33100000Y27078000D02*
X33000000Y27178000D01*
X12466000Y18034000D02*
X12466000Y15594000D01*
X12466000Y15594000D02*
X12366000Y15494000D01*
X9732000Y15494000D02*
X12366000Y15494000D01*
X25066000Y16256000D02*
X25066000Y18576000D01*
X25066000Y18576000D02*
X24022011Y19619989D01*
X24022011Y19619989D02*
X21525989Y19619989D01*
X21525989Y19619989D02*
X20955000Y19049000D01*
X20955000Y19049000D02*
X20955000Y17874000D01*
X14966000Y18034000D02*
X16116000Y18034000D01*
X19312640Y19421360D02*
X19685000Y19049000D01*
X19685000Y19049000D02*
X19685000Y17874000D01*
X16116000Y18034000D02*
X17503360Y19421360D01*
X17503360Y19421360D02*
X19312640Y19421360D01*
X20955000Y17874000D02*
X19685000Y17874000D01*
X38735000Y39704024D02*
X38735000Y40292000D01*
X35266000Y40352000D02*
X35429998Y40352000D01*
X34216000Y41402000D02*
X35266000Y40352000D01*
X38047975Y39016999D02*
X38735000Y39704024D01*
X35429998Y40352000D02*
X36764999Y39016999D01*
X34116000Y41402000D02*
X34216000Y41402000D01*
X36764999Y39016999D02*
X38047975Y39016999D01*
X34016000Y44196000D02*
X34016000Y41502000D01*
X34016000Y41502000D02*
X34116000Y41402000D01*
X11546000Y35762000D02*
X11546000Y33512000D01*
X11546000Y33512000D02*
X11446000Y33412000D01*
X8890000Y33362000D02*
X11396000Y33362000D01*
X11396000Y33362000D02*
X11446000Y33412000D01*
X5662000Y24638000D02*
X5588000Y24638000D01*
X5588000Y24638000D02*
X3302000Y22352000D01*
X6270000Y25146000D02*
X6170000Y25146000D01*
X6170000Y25146000D02*
X5662000Y24638000D01*
X6096000Y25146000D02*
X6270000Y25146000D01*
X5842000Y24718000D02*
X6270000Y25146000D01*
X7032000Y15494000D02*
X5080000Y15494000D01*
X5080000Y15494000D02*
X3302000Y17272000D01*
X10942000Y38862000D02*
X10942000Y41636000D01*
X10942000Y41636000D02*
X10922000Y41656000D01*
X8382000Y41656000D02*
X10922000Y41656000D01*
X14092011Y38750011D02*
X20894011Y38750011D01*
X21931000Y39787000D02*
X21931000Y40962000D01*
X20894011Y38750011D02*
X21931000Y39787000D01*
X25828000Y41402000D02*
X23641000Y41402000D01*
X23641000Y41402000D02*
X23201000Y40962000D01*
X25760000Y41470000D02*
X25828000Y41402000D01*
X21931000Y40962000D02*
X23201000Y40962000D01*
X31516000Y38862000D02*
X31516000Y41302000D01*
X31516000Y41302000D02*
X31416000Y41402000D01*
X28528000Y41402000D02*
X31416000Y41402000D01*
X13622000Y41656000D02*
X14772000Y41656000D01*
X14772000Y41656000D02*
X15520263Y40907737D01*
X15520263Y40907737D02*
X15520263Y40894000D01*
X20324022Y39450022D02*
X20661000Y39787000D01*
X15520263Y40894000D02*
X16964241Y39450022D01*
X20661000Y39787000D02*
X20661000Y40962000D01*
X16964241Y39450022D02*
X20324022Y39450022D01*
X13696000Y44196000D02*
X13696000Y41730000D01*
X13696000Y41730000D02*
X13622000Y41656000D01*
X20661000Y36267002D02*
X20661000Y35562000D01*
X18690999Y36837001D02*
X20091001Y36837001D01*
X25728000Y35560000D02*
X25828000Y35560000D01*
X14046000Y35762000D02*
X17615998Y35762000D01*
X24128002Y36610000D02*
X24678000Y36610000D01*
X23901001Y36837001D02*
X24128002Y36610000D01*
X22500999Y36837001D02*
X23901001Y36837001D01*
X24678000Y36610000D02*
X25728000Y35560000D01*
X21931000Y35562000D02*
X21931000Y36267002D01*
X21931000Y36267002D02*
X22500999Y36837001D01*
X17615998Y35762000D02*
X18690999Y36837001D01*
X20091001Y36837001D02*
X20661000Y36267002D01*
X21931000Y35562000D02*
X20661000Y35562000D01*
X45390757Y36433989D02*
X49022000Y32802746D01*
X36039989Y36433989D02*
X35166000Y35560000D01*
X40371989Y36433989D02*
X45390757Y36433989D01*
X38735000Y36067000D02*
X38368011Y36433989D01*
X40005000Y34892000D02*
X40005000Y36067000D01*
X35166000Y35560000D02*
X34016000Y35560000D01*
X38735000Y34892000D02*
X38735000Y36067000D01*
X38368011Y36433989D02*
X36039989Y36433989D01*
X49022000Y32802746D02*
X49022000Y32552000D01*
X40005000Y36067000D02*
X40371989Y36433989D01*
X49022000Y32552000D02*
X49022000Y31402000D01*
X38735000Y34892000D02*
X40005000Y34892000D01*
X33000000Y18796000D02*
X34150000Y18796000D01*
X34150000Y18796000D02*
X35159465Y19805465D01*
X35159465Y19805465D02*
X38232535Y19805465D01*
X38232535Y19805465D02*
X38735000Y19303000D01*
X38735000Y19303000D02*
X38735000Y18128000D01*
X40005000Y18128000D02*
X40005000Y19303000D01*
X40005000Y19303000D02*
X40545852Y19843852D01*
X40545852Y19843852D02*
X46553852Y19843852D01*
X46553852Y19843852D02*
X51562000Y24852000D01*
X51562000Y24852000D02*
X51562000Y26002000D01*
X40005000Y18128000D02*
X38735000Y18128000D01*
X3048000Y40132000D02*
X4158000Y40132000D01*
X4158000Y40132000D02*
X5682000Y41656000D01*
X6290000Y33362000D02*
X6190000Y33362000D01*
X3048000Y35052000D02*
X4125630Y35052000D01*
X4125630Y35052000D02*
X5507833Y33669796D01*
X46482000Y26002000D02*
X46482000Y27152000D01*
X46482000Y27152000D02*
X47900950Y28570950D01*
X47900950Y28570950D02*
X57535050Y28570950D01*
X57535050Y28570950D02*
X59436000Y26670000D01*
X50292000Y26002000D02*
X50292000Y26682002D01*
X58906225Y21590000D02*
X59436000Y21590000D01*
X50292000Y26682002D02*
X51480937Y27870939D01*
X51480937Y27870939D02*
X55734565Y27870939D01*
X55734565Y27870939D02*
X57503509Y26101995D01*
X57503509Y26101995D02*
X57503509Y22992716D01*
X57503509Y22992716D02*
X58906225Y21590000D01*
X31416000Y33274000D02*
X31416000Y35460000D01*
X31416000Y35460000D02*
X31516000Y35560000D01*
X28528000Y35560000D02*
X31516000Y35560000D01*
X38595021Y21205487D02*
X40005000Y22615466D01*
X36139356Y21205487D02*
X38595021Y21205487D01*
X34992843Y22352000D02*
X36139356Y21205487D01*
X33000000Y22352000D02*
X34992843Y22352000D01*
X40005000Y22615466D02*
X40005000Y23528000D01*
X47752000Y24852000D02*
X47752000Y26002000D01*
X41275000Y23528000D02*
X46428000Y23528000D01*
X46428000Y23528000D02*
X47752000Y24852000D01*
X40005000Y23528000D02*
X41275000Y23528000D01*
X30500000Y22352000D02*
X30500000Y24538000D01*
X30500000Y24538000D02*
X30400000Y24638000D01*
X27512000Y24638000D02*
X30400000Y24638000D01*
X19685000Y22099000D02*
X19685000Y23274000D01*
X19107393Y21521393D02*
X19685000Y22099000D01*
X18028607Y21521393D02*
X19107393Y21521393D01*
X14404000Y25146000D02*
X18028607Y21521393D01*
X14304000Y25146000D02*
X14404000Y25146000D01*
X14204000Y27686000D02*
X14204000Y25246000D01*
X14204000Y25246000D02*
X14304000Y25146000D01*
X33100000Y16256000D02*
X36068000Y16256000D01*
X36068000Y16256000D02*
X37465000Y17653000D01*
X37465000Y17653000D02*
X37465000Y18128000D01*
X33000000Y13716000D02*
X33000000Y16156000D01*
X33000000Y16156000D02*
X33100000Y16256000D01*
X30400000Y16256000D02*
X27766000Y16256000D01*
X30400000Y16256000D02*
X30400000Y18696000D01*
X30400000Y18696000D02*
X30500000Y18796000D01*
X14966000Y12954000D02*
X14966000Y15394000D01*
X14966000Y15394000D02*
X15066000Y15494000D01*
X15066000Y15494000D02*
X15166000Y15494000D01*
X15166000Y15494000D02*
X17546000Y17874000D01*
X17546000Y17874000D02*
X17715000Y17874000D01*
X17715000Y17874000D02*
X18415000Y17874000D01*
X39390000Y3556000D02*
X36918000Y3556000D01*
X36918000Y3556000D02*
X36424000Y4050000D01*
X24892000Y6350000D02*
X28342000Y2900000D01*
X28342000Y2900000D02*
X35024000Y2900000D01*
X35024000Y2900000D02*
X36174000Y4050000D01*
X36174000Y4050000D02*
X36424000Y4050000D01*
D24*
G36*
X63806000Y14968428D02*
X54911000Y14968428D01*
X54911000Y710000D01*
X456000Y710000D01*
X456000Y6064250D01*
X6247000Y6064250D01*
X6247000Y4787458D01*
X6271403Y4664777D01*
X6319270Y4549215D01*
X6388763Y4445211D01*
X6477211Y4356763D01*
X6581215Y4287270D01*
X6696777Y4239403D01*
X6819458Y4215000D01*
X8096250Y4215000D01*
X8255000Y4373750D01*
X8255000Y6223000D01*
X8509000Y6223000D01*
X8509000Y4373750D01*
X8667750Y4215000D01*
X9944542Y4215000D01*
X10067223Y4239403D01*
X10182785Y4287270D01*
X10286789Y4356763D01*
X10375237Y4445211D01*
X10444730Y4549215D01*
X10492597Y4664777D01*
X10517000Y4787458D01*
X10517000Y4858347D01*
X12149952Y4858347D01*
X12305962Y4542786D01*
X12680745Y4351980D01*
X13085551Y4237956D01*
X13504824Y4205098D01*
X13922451Y4254666D01*
X14322383Y4384757D01*
X14618038Y4542786D01*
X14774048Y4858347D01*
X13462000Y6170395D01*
X12149952Y4858347D01*
X10517000Y4858347D01*
X10517000Y6064250D01*
X10358250Y6223000D01*
X8509000Y6223000D01*
X8255000Y6223000D01*
X6405750Y6223000D01*
X6247000Y6064250D01*
X456000Y6064250D01*
X456000Y6307176D01*
X11317098Y6307176D01*
X11366666Y5889549D01*
X11496757Y5489617D01*
X11654786Y5193962D01*
X11970347Y5037952D01*
X13282395Y6350000D01*
X13641605Y6350000D01*
X14953653Y5037952D01*
X15269214Y5193962D01*
X15460020Y5568745D01*
X15574044Y5973551D01*
X15581151Y6064250D01*
X17677000Y6064250D01*
X17677000Y4787458D01*
X17701403Y4664777D01*
X17749270Y4549215D01*
X17818763Y4445211D01*
X17907211Y4356763D01*
X18011215Y4287270D01*
X18126777Y4239403D01*
X18249458Y4215000D01*
X19526250Y4215000D01*
X19685000Y4373750D01*
X19685000Y6223000D01*
X19939000Y6223000D01*
X19939000Y4373750D01*
X20097750Y4215000D01*
X21374542Y4215000D01*
X21497223Y4239403D01*
X21612785Y4287270D01*
X21716789Y4356763D01*
X21805237Y4445211D01*
X21874730Y4549215D01*
X21922597Y4664777D01*
X21947000Y4787458D01*
X21947000Y6064250D01*
X21840767Y6170483D01*
X22754194Y6170483D01*
X22829776Y5758667D01*
X22983908Y5369374D01*
X23210719Y5017433D01*
X23501569Y4716249D01*
X23845380Y4477294D01*
X24229057Y4309670D01*
X24637984Y4219761D01*
X25056588Y4210993D01*
X25468922Y4283698D01*
X25691213Y4369919D01*
X27751566Y2309566D01*
X27811182Y2260596D01*
X27870253Y2211030D01*
X27874096Y2208917D01*
X27877493Y2206127D01*
X27945526Y2169648D01*
X28013059Y2132522D01*
X28017242Y2131195D01*
X28021114Y2129119D01*
X28094893Y2106563D01*
X28168394Y2083247D01*
X28172758Y2082758D01*
X28176956Y2081474D01*
X28253716Y2073676D01*
X28330342Y2065081D01*
X28338913Y2065021D01*
X28339085Y2065004D01*
X28339245Y2065019D01*
X28342000Y2065000D01*
X35024000Y2065000D01*
X35100747Y2072525D01*
X35177600Y2079249D01*
X35181814Y2080473D01*
X35186186Y2080902D01*
X35260081Y2103212D01*
X35334092Y2124715D01*
X35337986Y2126734D01*
X35342194Y2128004D01*
X35410311Y2164223D01*
X35478774Y2199710D01*
X35482207Y2202451D01*
X35486082Y2204511D01*
X35545866Y2253269D01*
X35606133Y2301380D01*
X35612238Y2307400D01*
X35612370Y2307508D01*
X35612471Y2307631D01*
X35614434Y2309566D01*
X35966796Y2661928D01*
X37424000Y2661928D01*
X37525121Y2669992D01*
X37689833Y2721000D01*
X38043710Y2721000D01*
X38063106Y2658366D01*
X38161900Y2508441D01*
X38298550Y2391975D01*
X38462237Y2318190D01*
X38640000Y2292928D01*
X40140000Y2292928D01*
X40241121Y2300992D01*
X40412634Y2354106D01*
X40562559Y2452900D01*
X40637217Y2540497D01*
X40646763Y2526211D01*
X40735211Y2437763D01*
X40839215Y2368270D01*
X40954777Y2320403D01*
X41077458Y2296000D01*
X41604250Y2296000D01*
X41763000Y2454750D01*
X41763000Y3429000D01*
X42017000Y3429000D01*
X42017000Y2454750D01*
X42175750Y2296000D01*
X42702542Y2296000D01*
X42825223Y2320403D01*
X42940785Y2368270D01*
X43044789Y2437763D01*
X43133237Y2526211D01*
X43202730Y2630215D01*
X43250597Y2745777D01*
X43275000Y2868458D01*
X43275000Y3270250D01*
X43116250Y3429000D01*
X42017000Y3429000D01*
X41763000Y3429000D01*
X41743000Y3429000D01*
X41743000Y3683000D01*
X41763000Y3683000D01*
X41763000Y4657250D01*
X42017000Y4657250D01*
X42017000Y3683000D01*
X43116250Y3683000D01*
X43275000Y3841750D01*
X43275000Y4243542D01*
X43250597Y4366223D01*
X43202730Y4481785D01*
X43133237Y4585789D01*
X43044789Y4674237D01*
X42940785Y4743730D01*
X42825223Y4791597D01*
X42702542Y4816000D01*
X42175750Y4816000D01*
X42017000Y4657250D01*
X41763000Y4657250D01*
X41604250Y4816000D01*
X41077458Y4816000D01*
X40954777Y4791597D01*
X40839215Y4743730D01*
X40735211Y4674237D01*
X40646763Y4585789D01*
X40638227Y4573015D01*
X40618100Y4603559D01*
X40481450Y4720025D01*
X40317763Y4793810D01*
X40140000Y4819072D01*
X38640000Y4819072D01*
X38538879Y4811008D01*
X38367366Y4757894D01*
X38217441Y4659100D01*
X38100975Y4522450D01*
X38062072Y4436146D01*
X38062072Y4800000D01*
X38054008Y4901121D01*
X38000894Y5072634D01*
X37918689Y5197384D01*
X37986730Y5299215D01*
X38034597Y5414777D01*
X38059000Y5537458D01*
X38059000Y6064250D01*
X37900250Y6223000D01*
X36551000Y6223000D01*
X36551000Y6203000D01*
X36297000Y6203000D01*
X36297000Y6223000D01*
X34947750Y6223000D01*
X34789000Y6064250D01*
X34789000Y5537458D01*
X34813403Y5414777D01*
X34861270Y5299215D01*
X34930763Y5195211D01*
X34930780Y5195194D01*
X34884975Y5141450D01*
X34811190Y4977763D01*
X34785928Y4800000D01*
X34785928Y3842796D01*
X34678132Y3735000D01*
X28687868Y3735000D01*
X26872935Y5549933D01*
X26927652Y5672829D01*
X27016580Y6064250D01*
X28489000Y6064250D01*
X28489000Y4387458D01*
X28513403Y4264777D01*
X28561270Y4149215D01*
X28630763Y4045211D01*
X28719211Y3956763D01*
X28823215Y3887270D01*
X28938777Y3839403D01*
X29061458Y3815000D01*
X29838250Y3815000D01*
X29997000Y3973750D01*
X29997000Y6223000D01*
X30251000Y6223000D01*
X30251000Y3973750D01*
X30409750Y3815000D01*
X31186542Y3815000D01*
X31309223Y3839403D01*
X31424785Y3887270D01*
X31528789Y3956763D01*
X31617237Y4045211D01*
X31686730Y4149215D01*
X31734597Y4264777D01*
X31759000Y4387458D01*
X31759000Y6064250D01*
X31600250Y6223000D01*
X30251000Y6223000D01*
X29997000Y6223000D01*
X28647750Y6223000D01*
X28489000Y6064250D01*
X27016580Y6064250D01*
X27020413Y6081119D01*
X27027091Y6559348D01*
X26945766Y6970069D01*
X26786214Y7357171D01*
X26554512Y7705911D01*
X26259485Y8003005D01*
X25912371Y8237136D01*
X25732988Y8312542D01*
X28489000Y8312542D01*
X28489000Y6635750D01*
X28647750Y6477000D01*
X29997000Y6477000D01*
X29997000Y8726250D01*
X30251000Y8726250D01*
X30251000Y6477000D01*
X31600250Y6477000D01*
X31759000Y6635750D01*
X31759000Y8312542D01*
X31734597Y8435223D01*
X31686730Y8550785D01*
X31617237Y8654789D01*
X31528789Y8743237D01*
X31424785Y8812730D01*
X31309223Y8860597D01*
X31186542Y8885000D01*
X30409750Y8885000D01*
X30251000Y8726250D01*
X29997000Y8726250D01*
X29838250Y8885000D01*
X29061458Y8885000D01*
X28938777Y8860597D01*
X28823215Y8812730D01*
X28719211Y8743237D01*
X28630763Y8654789D01*
X28561270Y8550785D01*
X28513403Y8435223D01*
X28489000Y8312542D01*
X25732988Y8312542D01*
X25526391Y8399387D01*
X25116248Y8483578D01*
X24697563Y8486501D01*
X24286284Y8408045D01*
X23898077Y8251199D01*
X23547728Y8021937D01*
X23248582Y7728992D01*
X23012033Y7383521D01*
X22847091Y6998683D01*
X22760040Y6589138D01*
X22754194Y6170483D01*
X21840767Y6170483D01*
X21788250Y6223000D01*
X19939000Y6223000D01*
X19685000Y6223000D01*
X17835750Y6223000D01*
X17677000Y6064250D01*
X15581151Y6064250D01*
X15606902Y6392824D01*
X15557334Y6810451D01*
X15427243Y7210383D01*
X15269214Y7506038D01*
X14953653Y7662048D01*
X13641605Y6350000D01*
X13282395Y6350000D01*
X11970347Y7662048D01*
X11654786Y7506038D01*
X11463980Y7131255D01*
X11349956Y6726449D01*
X11317098Y6307176D01*
X456000Y6307176D01*
X456000Y7912542D01*
X6247000Y7912542D01*
X6247000Y6635750D01*
X6405750Y6477000D01*
X8255000Y6477000D01*
X8255000Y8326250D01*
X8509000Y8326250D01*
X8509000Y6477000D01*
X10358250Y6477000D01*
X10517000Y6635750D01*
X10517000Y7841653D01*
X12149952Y7841653D01*
X13462000Y6529605D01*
X14774048Y7841653D01*
X14739002Y7912542D01*
X17677000Y7912542D01*
X17677000Y6635750D01*
X17835750Y6477000D01*
X19685000Y6477000D01*
X19685000Y8326250D01*
X19939000Y8326250D01*
X19939000Y6477000D01*
X21788250Y6477000D01*
X21947000Y6635750D01*
X21947000Y7912542D01*
X21922597Y8035223D01*
X21874730Y8150785D01*
X21805237Y8254789D01*
X21716789Y8343237D01*
X21612785Y8412730D01*
X21497223Y8460597D01*
X21374542Y8485000D01*
X20097750Y8485000D01*
X19939000Y8326250D01*
X19685000Y8326250D01*
X19526250Y8485000D01*
X18249458Y8485000D01*
X18126777Y8460597D01*
X18011215Y8412730D01*
X17907211Y8343237D01*
X17818763Y8254789D01*
X17749270Y8150785D01*
X17701403Y8035223D01*
X17677000Y7912542D01*
X14739002Y7912542D01*
X14618038Y8157214D01*
X14243255Y8348020D01*
X13838449Y8462044D01*
X13419176Y8494902D01*
X13001549Y8445334D01*
X12601617Y8315243D01*
X12305962Y8157214D01*
X12149952Y7841653D01*
X10517000Y7841653D01*
X10517000Y7912542D01*
X10492597Y8035223D01*
X10444730Y8150785D01*
X10375237Y8254789D01*
X10286789Y8343237D01*
X10182785Y8412730D01*
X10067223Y8460597D01*
X9944542Y8485000D01*
X8667750Y8485000D01*
X8509000Y8326250D01*
X8255000Y8326250D01*
X8096250Y8485000D01*
X6819458Y8485000D01*
X6696777Y8460597D01*
X6581215Y8412730D01*
X6477211Y8343237D01*
X6388763Y8254789D01*
X6319270Y8150785D01*
X6271403Y8035223D01*
X6247000Y7912542D01*
X456000Y7912542D01*
X456000Y12668250D01*
X11081000Y12668250D01*
X11081000Y12266458D01*
X11105403Y12143777D01*
X11153270Y12028215D01*
X11222763Y11924211D01*
X11311211Y11835763D01*
X11415215Y11766270D01*
X11530777Y11718403D01*
X11653458Y11694000D01*
X12180250Y11694000D01*
X12339000Y11852750D01*
X12339000Y12827000D01*
X11239750Y12827000D01*
X11081000Y12668250D01*
X456000Y12668250D01*
X456000Y28373542D01*
X10319000Y28373542D01*
X10319000Y27971750D01*
X10477750Y27813000D01*
X11577000Y27813000D01*
X11577000Y28787250D01*
X11418250Y28946000D01*
X10891458Y28946000D01*
X10768777Y28921597D01*
X10653215Y28873730D01*
X10549211Y28804237D01*
X10460763Y28715789D01*
X10391270Y28611785D01*
X10343403Y28496223D01*
X10319000Y28373542D01*
X456000Y28373542D01*
X456000Y30956250D01*
X10339000Y30956250D01*
X10339000Y30554458D01*
X10363403Y30431777D01*
X10411270Y30316215D01*
X10480763Y30212211D01*
X10569211Y30123763D01*
X10673215Y30054270D01*
X10788777Y30006403D01*
X10911458Y29982000D01*
X11438250Y29982000D01*
X11597000Y30140750D01*
X11597000Y31115000D01*
X10497750Y31115000D01*
X10339000Y30956250D01*
X456000Y30956250D01*
X456000Y40014536D01*
X1649164Y40014536D01*
X1698620Y39745072D01*
X1799474Y39490345D01*
X1947883Y39260058D01*
X2138196Y39062984D01*
X2363163Y38906628D01*
X2614215Y38796946D01*
X2881789Y38738116D01*
X3155695Y38732378D01*
X3425499Y38779952D01*
X3680923Y38879025D01*
X3912240Y39025823D01*
X4110639Y39214755D01*
X4169448Y39298122D01*
X4234747Y39304525D01*
X4311600Y39311249D01*
X4315814Y39312473D01*
X4320186Y39312902D01*
X4394081Y39335212D01*
X4468092Y39356715D01*
X4471986Y39358734D01*
X4476194Y39360004D01*
X4544311Y39396223D01*
X4612774Y39431710D01*
X4616207Y39434451D01*
X4620082Y39436511D01*
X4679866Y39485269D01*
X4740133Y39533380D01*
X4746238Y39539400D01*
X4746370Y39539508D01*
X4746471Y39539631D01*
X4748434Y39541566D01*
X5574796Y40367928D01*
X6432000Y40367928D01*
X6533121Y40375992D01*
X6704634Y40429106D01*
X6854559Y40527900D01*
X6971025Y40664550D01*
X7033498Y40803142D01*
X7055106Y40733366D01*
X7153900Y40583441D01*
X7290550Y40466975D01*
X7454237Y40393190D01*
X7632000Y40367928D01*
X9132000Y40367928D01*
X9233121Y40375992D01*
X9404634Y40429106D01*
X9554559Y40527900D01*
X9653783Y40644320D01*
X9693900Y40583441D01*
X9830550Y40466975D01*
X9994237Y40393190D01*
X10107000Y40377165D01*
X10107000Y40118294D01*
X10090879Y40117008D01*
X9919366Y40063894D01*
X9769441Y39965100D01*
X9652975Y39828450D01*
X9579190Y39664763D01*
X9553928Y39487000D01*
X9553928Y38237000D01*
X9561992Y38135879D01*
X9615106Y37964366D01*
X9713900Y37814441D01*
X9850550Y37697975D01*
X10014237Y37624190D01*
X10192000Y37598928D01*
X11692000Y37598928D01*
X11793121Y37606992D01*
X11964634Y37660106D01*
X12114559Y37758900D01*
X12191225Y37848852D01*
X12213900Y37814441D01*
X12350550Y37697975D01*
X12514237Y37624190D01*
X12692000Y37598928D01*
X14192000Y37598928D01*
X14293121Y37606992D01*
X14464634Y37660106D01*
X14614559Y37758900D01*
X14731025Y37895550D01*
X14739797Y37915011D01*
X20894011Y37915011D01*
X20970758Y37922536D01*
X21047611Y37929260D01*
X21051825Y37930484D01*
X21056197Y37930913D01*
X21130092Y37953223D01*
X21204103Y37974726D01*
X21207997Y37976745D01*
X21212205Y37978015D01*
X21280322Y38014234D01*
X21348785Y38049721D01*
X21352218Y38052462D01*
X21356093Y38054522D01*
X21415877Y38103280D01*
X21476144Y38151391D01*
X21482249Y38157411D01*
X21482381Y38157519D01*
X21482482Y38157642D01*
X21484445Y38159577D01*
X22521434Y39196566D01*
X22570404Y39256182D01*
X22619970Y39315253D01*
X22622083Y39319096D01*
X22624873Y39322493D01*
X22661352Y39390526D01*
X22698478Y39458059D01*
X22699805Y39462242D01*
X22701881Y39466114D01*
X22724437Y39539893D01*
X22734796Y39572547D01*
X22901000Y39548928D01*
X23501000Y39548928D01*
X23602121Y39556992D01*
X23773634Y39610106D01*
X23923559Y39708900D01*
X24040025Y39845550D01*
X24113810Y40009237D01*
X24139072Y40187000D01*
X24139072Y40567000D01*
X24473968Y40567000D01*
X24501106Y40479366D01*
X24599900Y40329441D01*
X24736550Y40212975D01*
X24900237Y40139190D01*
X25078000Y40113928D01*
X26578000Y40113928D01*
X26679121Y40121992D01*
X26850634Y40175106D01*
X27000559Y40273900D01*
X27117025Y40410550D01*
X27179498Y40549142D01*
X27201106Y40479366D01*
X27299900Y40329441D01*
X27436550Y40212975D01*
X27600237Y40139190D01*
X27778000Y40113928D01*
X29278000Y40113928D01*
X29379121Y40121992D01*
X29550634Y40175106D01*
X29700559Y40273900D01*
X29817025Y40410550D01*
X29887548Y40567000D01*
X30061968Y40567000D01*
X30089106Y40479366D01*
X30187900Y40329441D01*
X30324550Y40212975D01*
X30488237Y40139190D01*
X30658414Y40115006D01*
X30493366Y40063894D01*
X30343441Y39965100D01*
X30226975Y39828450D01*
X30153190Y39664763D01*
X30127928Y39487000D01*
X30127928Y38237000D01*
X30135992Y38135879D01*
X30189106Y37964366D01*
X30287900Y37814441D01*
X30424550Y37697975D01*
X30588237Y37624190D01*
X30766000Y37598928D01*
X32266000Y37598928D01*
X32367121Y37606992D01*
X32538634Y37660106D01*
X32688559Y37758900D01*
X32765225Y37848852D01*
X32787900Y37814441D01*
X32924550Y37697975D01*
X33088237Y37624190D01*
X33266000Y37598928D01*
X34766000Y37598928D01*
X34867121Y37606992D01*
X35038634Y37660106D01*
X35188559Y37758900D01*
X35305025Y37895550D01*
X35364279Y38027000D01*
X35584165Y38027000D01*
X35884611Y37726554D01*
X35944200Y37677606D01*
X36003298Y37628018D01*
X36007145Y37625903D01*
X36010538Y37623116D01*
X36078516Y37586667D01*
X36146104Y37549510D01*
X36150289Y37548182D01*
X36154158Y37546108D01*
X36227906Y37523561D01*
X36301439Y37500235D01*
X36305803Y37499745D01*
X36310001Y37498462D01*
X36386716Y37490669D01*
X36463387Y37482069D01*
X36471969Y37482009D01*
X36472130Y37481993D01*
X36472280Y37482007D01*
X36475045Y37481988D01*
X38454955Y37481988D01*
X38531702Y37489513D01*
X38608555Y37496237D01*
X38612769Y37497461D01*
X38617141Y37497890D01*
X38691036Y37520200D01*
X38765047Y37541703D01*
X38768941Y37543722D01*
X38773149Y37544992D01*
X38841266Y37581211D01*
X38909729Y37616698D01*
X38913162Y37619439D01*
X38917037Y37621499D01*
X38976821Y37670257D01*
X39037088Y37718368D01*
X39043193Y37724388D01*
X39043325Y37724496D01*
X39043426Y37724619D01*
X39045389Y37726554D01*
X39500834Y38181999D01*
X39904999Y38181999D01*
X39981746Y38189524D01*
X40058599Y38196248D01*
X40062813Y38197472D01*
X40067185Y38197901D01*
X40141080Y38220211D01*
X40215091Y38241714D01*
X40218985Y38243733D01*
X40223193Y38245003D01*
X40291310Y38281222D01*
X40359773Y38316709D01*
X40363206Y38319450D01*
X40367081Y38321510D01*
X40426865Y38370268D01*
X40487132Y38418379D01*
X40493237Y38424399D01*
X40493369Y38424507D01*
X40493470Y38424630D01*
X40495433Y38426565D01*
X40595434Y38526566D01*
X40644404Y38586182D01*
X40693970Y38645253D01*
X40696083Y38649096D01*
X40698873Y38652493D01*
X40735352Y38720526D01*
X40772478Y38788059D01*
X40773805Y38792242D01*
X40775881Y38796114D01*
X40798437Y38869893D01*
X40808796Y38902547D01*
X40975000Y38878928D01*
X41575000Y38878928D01*
X41676121Y38886992D01*
X41847634Y38940106D01*
X41997559Y39038900D01*
X42114025Y39175550D01*
X42187810Y39339237D01*
X42204545Y39457000D01*
X45722132Y39457000D01*
X51997000Y33182132D01*
X51997000Y32770887D01*
X51862000Y32790072D01*
X51262000Y32790072D01*
X51160879Y32782008D01*
X50989366Y32728894D01*
X50930067Y32689819D01*
X50892785Y32714730D01*
X50777223Y32762597D01*
X50654542Y32787000D01*
X50577750Y32787000D01*
X50419000Y32628250D01*
X50419000Y31529000D01*
X50439000Y31529000D01*
X50439000Y31275000D01*
X50419000Y31275000D01*
X50419000Y31255000D01*
X50165000Y31255000D01*
X50165000Y31275000D01*
X50145000Y31275000D01*
X50145000Y31529000D01*
X50165000Y31529000D01*
X50165000Y32628250D01*
X50006250Y32787000D01*
X49929458Y32787000D01*
X49857000Y32772587D01*
X49857000Y32802746D01*
X49849471Y32879538D01*
X49842751Y32956346D01*
X49841527Y32960560D01*
X49841098Y32964932D01*
X49818792Y33038813D01*
X49797285Y33112839D01*
X49795266Y33116735D01*
X49793996Y33120940D01*
X49757766Y33189078D01*
X49722289Y33257520D01*
X49719551Y33260950D01*
X49717489Y33264828D01*
X49668728Y33324615D01*
X49620620Y33384880D01*
X49614599Y33390985D01*
X49614492Y33391116D01*
X49614371Y33391216D01*
X49612434Y33393180D01*
X45981191Y37024423D01*
X45921575Y37073393D01*
X45862504Y37122959D01*
X45858661Y37125072D01*
X45855264Y37127862D01*
X45787231Y37164341D01*
X45719698Y37201467D01*
X45715515Y37202794D01*
X45711643Y37204870D01*
X45637864Y37227426D01*
X45564363Y37250742D01*
X45559999Y37251231D01*
X45555801Y37252515D01*
X45479041Y37260313D01*
X45402415Y37268908D01*
X45393844Y37268968D01*
X45393672Y37268985D01*
X45393512Y37268970D01*
X45390757Y37268989D01*
X40371989Y37268989D01*
X40295242Y37261464D01*
X40218389Y37254740D01*
X40214175Y37253516D01*
X40209803Y37253087D01*
X40135908Y37230777D01*
X40061897Y37209274D01*
X40058003Y37207255D01*
X40053795Y37205985D01*
X39985658Y37169756D01*
X39917216Y37134279D01*
X39913785Y37131540D01*
X39909907Y37129478D01*
X39850101Y37080702D01*
X39789856Y37032609D01*
X39783751Y37026589D01*
X39783619Y37026481D01*
X39783518Y37026358D01*
X39781555Y37024423D01*
X39414566Y36657434D01*
X39370154Y36603367D01*
X39333620Y36649133D01*
X39327600Y36655238D01*
X39327492Y36655370D01*
X39327369Y36655471D01*
X39325434Y36657434D01*
X38958445Y37024423D01*
X38898829Y37073393D01*
X38839758Y37122959D01*
X38835915Y37125072D01*
X38832518Y37127862D01*
X38764485Y37164341D01*
X38696952Y37201467D01*
X38692769Y37202794D01*
X38688897Y37204870D01*
X38615118Y37227426D01*
X38541617Y37250742D01*
X38537253Y37251231D01*
X38533055Y37252515D01*
X38456295Y37260313D01*
X38379669Y37268908D01*
X38371098Y37268968D01*
X38370926Y37268985D01*
X38370766Y37268970D01*
X38368011Y37268989D01*
X36039989Y37268989D01*
X35963197Y37261460D01*
X35886389Y37254740D01*
X35882175Y37253516D01*
X35877803Y37253087D01*
X35803922Y37230781D01*
X35729896Y37209274D01*
X35726000Y37207255D01*
X35721795Y37205985D01*
X35653657Y37169755D01*
X35585215Y37134278D01*
X35581785Y37131540D01*
X35577907Y37129478D01*
X35518120Y37080717D01*
X35457855Y37032609D01*
X35451750Y37026588D01*
X35451619Y37026481D01*
X35451519Y37026360D01*
X35449555Y37024423D01*
X35129966Y36704834D01*
X35107450Y36724025D01*
X34943763Y36797810D01*
X34766000Y36823072D01*
X33266000Y36823072D01*
X33164879Y36815008D01*
X32993366Y36761894D01*
X32843441Y36663100D01*
X32766775Y36573148D01*
X32744100Y36607559D01*
X32607450Y36724025D01*
X32443763Y36797810D01*
X32266000Y36823072D01*
X30766000Y36823072D01*
X30664879Y36815008D01*
X30493366Y36761894D01*
X30343441Y36663100D01*
X30226975Y36526450D01*
X30167721Y36395000D01*
X29882032Y36395000D01*
X29854894Y36482634D01*
X29756100Y36632559D01*
X29619450Y36749025D01*
X29455763Y36822810D01*
X29278000Y36848072D01*
X27778000Y36848072D01*
X27676879Y36840008D01*
X27505366Y36786894D01*
X27355441Y36688100D01*
X27238975Y36551450D01*
X27176502Y36412858D01*
X27154894Y36482634D01*
X27056100Y36632559D01*
X26919450Y36749025D01*
X26755763Y36822810D01*
X26578000Y36848072D01*
X25620796Y36848072D01*
X25268434Y37200434D01*
X25208818Y37249404D01*
X25149747Y37298970D01*
X25145904Y37301083D01*
X25142507Y37303873D01*
X25074474Y37340352D01*
X25006941Y37377478D01*
X25002758Y37378805D01*
X24998886Y37380881D01*
X24925107Y37403437D01*
X24851606Y37426753D01*
X24847242Y37427242D01*
X24843044Y37428526D01*
X24766284Y37436324D01*
X24689658Y37444919D01*
X24681087Y37444979D01*
X24680915Y37444996D01*
X24680755Y37444981D01*
X24678000Y37445000D01*
X24470051Y37445000D01*
X24431819Y37476405D01*
X24372748Y37525971D01*
X24368905Y37528084D01*
X24365508Y37530874D01*
X24297475Y37567353D01*
X24229942Y37604479D01*
X24225759Y37605806D01*
X24221887Y37607882D01*
X24148108Y37630438D01*
X24074607Y37653754D01*
X24070243Y37654243D01*
X24066045Y37655527D01*
X23989285Y37663325D01*
X23912659Y37671920D01*
X23904088Y37671980D01*
X23903916Y37671997D01*
X23903756Y37671982D01*
X23901001Y37672001D01*
X22500999Y37672001D01*
X22424207Y37664472D01*
X22347399Y37657752D01*
X22343185Y37656528D01*
X22338813Y37656099D01*
X22264932Y37633793D01*
X22190906Y37612286D01*
X22187010Y37610267D01*
X22182805Y37608997D01*
X22114667Y37572767D01*
X22046225Y37537290D01*
X22042795Y37534552D01*
X22038917Y37532490D01*
X21979130Y37483729D01*
X21918865Y37435621D01*
X21912760Y37429600D01*
X21912629Y37429493D01*
X21912529Y37429372D01*
X21910565Y37427435D01*
X21414366Y36931236D01*
X21358366Y36913894D01*
X21301528Y36876440D01*
X21175718Y36933152D01*
X20681435Y37427435D01*
X20621819Y37476405D01*
X20562748Y37525971D01*
X20558905Y37528084D01*
X20555508Y37530874D01*
X20487475Y37567353D01*
X20419942Y37604479D01*
X20415759Y37605806D01*
X20411887Y37607882D01*
X20338108Y37630438D01*
X20264607Y37653754D01*
X20260243Y37654243D01*
X20256045Y37655527D01*
X20179285Y37663325D01*
X20102659Y37671920D01*
X20094088Y37671980D01*
X20093916Y37671997D01*
X20093756Y37671982D01*
X20091001Y37672001D01*
X18690999Y37672001D01*
X18614252Y37664476D01*
X18537399Y37657752D01*
X18533185Y37656528D01*
X18528813Y37656099D01*
X18454918Y37633789D01*
X18380907Y37612286D01*
X18377013Y37610267D01*
X18372805Y37608997D01*
X18304688Y37572778D01*
X18236225Y37537291D01*
X18232792Y37534550D01*
X18228917Y37532490D01*
X18169133Y37483732D01*
X18108866Y37435621D01*
X18102761Y37429601D01*
X18102629Y37429493D01*
X18102528Y37429370D01*
X18100565Y37427435D01*
X17270130Y36597000D01*
X15392290Y36597000D01*
X15372894Y36659634D01*
X15274100Y36809559D01*
X15137450Y36926025D01*
X14973763Y36999810D01*
X14796000Y37025072D01*
X13296000Y37025072D01*
X13194879Y37017008D01*
X13023366Y36963894D01*
X12873441Y36865100D01*
X12796775Y36775148D01*
X12774100Y36809559D01*
X12637450Y36926025D01*
X12473763Y36999810D01*
X12296000Y37025072D01*
X10796000Y37025072D01*
X10694879Y37017008D01*
X10523366Y36963894D01*
X10373441Y36865100D01*
X10256975Y36728450D01*
X10183190Y36564763D01*
X10157928Y36387000D01*
X10157928Y35137000D01*
X10165992Y35035879D01*
X10219106Y34864366D01*
X10317900Y34714441D01*
X10413876Y34632641D01*
X10273441Y34540100D01*
X10156975Y34403450D01*
X10149511Y34386891D01*
X10118100Y34434559D01*
X9981450Y34551025D01*
X9817763Y34624810D01*
X9640000Y34650072D01*
X8140000Y34650072D01*
X8038879Y34642008D01*
X7867366Y34588894D01*
X7717441Y34490100D01*
X7600975Y34353450D01*
X7538502Y34214858D01*
X7516894Y34284634D01*
X7418100Y34434559D01*
X7281450Y34551025D01*
X7117763Y34624810D01*
X6940000Y34650072D01*
X5708425Y34650072D01*
X4716064Y35642434D01*
X4656475Y35691382D01*
X4597377Y35740970D01*
X4593530Y35743085D01*
X4590137Y35745872D01*
X4522124Y35782341D01*
X4454571Y35819478D01*
X4450390Y35820804D01*
X4446517Y35822881D01*
X4372723Y35845441D01*
X4299236Y35868753D01*
X4294872Y35869242D01*
X4290674Y35870526D01*
X4213914Y35878324D01*
X4173263Y35882884D01*
X4135835Y35939217D01*
X3942790Y36133615D01*
X3715662Y36286815D01*
X3463103Y36392981D01*
X3194733Y36448069D01*
X2920774Y36449982D01*
X2651661Y36398646D01*
X2397644Y36296016D01*
X2168399Y36146003D01*
X1972658Y35954319D01*
X1817877Y35728266D01*
X1709950Y35476454D01*
X1652989Y35208476D01*
X1649164Y34934536D01*
X1698620Y34665072D01*
X1799474Y34410345D01*
X1947883Y34180058D01*
X2138196Y33982984D01*
X2363163Y33826628D01*
X2614215Y33716946D01*
X2881789Y33658116D01*
X3155695Y33652378D01*
X3425499Y33699952D01*
X3680923Y33799025D01*
X3912240Y33945823D01*
X3983284Y34013477D01*
X4801928Y33194833D01*
X4801928Y32712000D01*
X4809992Y32610879D01*
X4863106Y32439366D01*
X4961900Y32289441D01*
X5098550Y32172975D01*
X5262237Y32099190D01*
X5440000Y32073928D01*
X6940000Y32073928D01*
X7041121Y32081992D01*
X7212634Y32135106D01*
X7362559Y32233900D01*
X7479025Y32370550D01*
X7541498Y32509142D01*
X7563106Y32439366D01*
X7661900Y32289441D01*
X7798550Y32172975D01*
X7962237Y32099190D01*
X8140000Y32073928D01*
X9640000Y32073928D01*
X9741121Y32081992D01*
X9912634Y32135106D01*
X10062559Y32233900D01*
X10179025Y32370550D01*
X10186489Y32387109D01*
X10217900Y32339441D01*
X10354550Y32222975D01*
X10426481Y32190551D01*
X10411270Y32167785D01*
X10363403Y32052223D01*
X10339000Y31929542D01*
X10339000Y31527750D01*
X10497750Y31369000D01*
X11597000Y31369000D01*
X11597000Y31389000D01*
X11851000Y31389000D01*
X11851000Y31369000D01*
X11871000Y31369000D01*
X11871000Y31115000D01*
X11851000Y31115000D01*
X11851000Y30140750D01*
X12009750Y29982000D01*
X12536542Y29982000D01*
X12659223Y30006403D01*
X12774785Y30054270D01*
X12878789Y30123763D01*
X12967237Y30212211D01*
X12975773Y30224985D01*
X12995900Y30194441D01*
X13132550Y30077975D01*
X13296237Y30004190D01*
X13474000Y29978928D01*
X14974000Y29978928D01*
X15075121Y29986992D01*
X15246634Y30040106D01*
X15396559Y30138900D01*
X15513025Y30275550D01*
X15586810Y30439237D01*
X15612072Y30617000D01*
X15612072Y30702250D01*
X30131000Y30702250D01*
X30131000Y30300458D01*
X30155403Y30177777D01*
X30203270Y30062215D01*
X30272763Y29958211D01*
X30361211Y29869763D01*
X30465215Y29800270D01*
X30580777Y29752403D01*
X30703458Y29728000D01*
X31230250Y29728000D01*
X31389000Y29886750D01*
X31389000Y30861000D01*
X30289750Y30861000D01*
X30131000Y30702250D01*
X15612072Y30702250D01*
X15612072Y31867000D01*
X15604008Y31968121D01*
X15602730Y31972250D01*
X19229000Y31972250D01*
X19229000Y31570458D01*
X19253403Y31447777D01*
X19301270Y31332215D01*
X19370763Y31228211D01*
X19459211Y31139763D01*
X19563215Y31070270D01*
X19678777Y31022403D01*
X19801458Y30998000D01*
X20328250Y30998000D01*
X20487000Y31156750D01*
X20487000Y32131000D01*
X19387750Y32131000D01*
X19229000Y31972250D01*
X15602730Y31972250D01*
X15550894Y32139634D01*
X15452100Y32289559D01*
X15377542Y32353105D01*
X15435025Y32420550D01*
X15505548Y32577000D01*
X17716000Y32577000D01*
X17792747Y32584525D01*
X17869600Y32591249D01*
X17873814Y32592473D01*
X17878186Y32592902D01*
X17952081Y32615212D01*
X18026092Y32636715D01*
X18029986Y32638734D01*
X18034194Y32640004D01*
X18102311Y32676223D01*
X18170774Y32711710D01*
X18174207Y32714451D01*
X18178082Y32716511D01*
X18237866Y32765269D01*
X18298133Y32813380D01*
X18304238Y32819400D01*
X18304370Y32819508D01*
X18304471Y32819631D01*
X18306434Y32821566D01*
X18430410Y32945542D01*
X19229000Y32945542D01*
X19229000Y32543750D01*
X19387750Y32385000D01*
X20487000Y32385000D01*
X20487000Y33359250D01*
X20328250Y33518000D01*
X19801458Y33518000D01*
X19678777Y33493597D01*
X19563215Y33445730D01*
X19459211Y33376237D01*
X19370763Y33287789D01*
X19301270Y33183785D01*
X19253403Y33068223D01*
X19229000Y32945542D01*
X18430410Y32945542D01*
X19633796Y34148928D01*
X19691000Y34148928D01*
X19792121Y34156992D01*
X19963634Y34210106D01*
X20020472Y34247560D01*
X20183237Y34174190D01*
X20361000Y34148928D01*
X20961000Y34148928D01*
X21062121Y34156992D01*
X21233634Y34210106D01*
X21290472Y34247560D01*
X21453237Y34174190D01*
X21631000Y34148928D01*
X22231000Y34148928D01*
X22279000Y34152756D01*
X22279000Y33514294D01*
X22262879Y33513008D01*
X22091366Y33459894D01*
X21941441Y33361100D01*
X21866783Y33273503D01*
X21857237Y33287789D01*
X21768789Y33376237D01*
X21664785Y33445730D01*
X21549223Y33493597D01*
X21426542Y33518000D01*
X20899750Y33518000D01*
X20741000Y33359250D01*
X20741000Y32385000D01*
X20761000Y32385000D01*
X20761000Y32131000D01*
X20741000Y32131000D01*
X20741000Y31156750D01*
X20899750Y30998000D01*
X21426542Y30998000D01*
X21549223Y31022403D01*
X21664785Y31070270D01*
X21768789Y31139763D01*
X21857237Y31228211D01*
X21865773Y31240985D01*
X21885900Y31210441D01*
X22022550Y31093975D01*
X22186237Y31020190D01*
X22364000Y30994928D01*
X23864000Y30994928D01*
X23965121Y31002992D01*
X24136634Y31056106D01*
X24286559Y31154900D01*
X24403025Y31291550D01*
X24462279Y31423000D01*
X26571975Y31423000D01*
X26753045Y31297153D01*
X27001941Y31188414D01*
X27267217Y31130089D01*
X27538770Y31124401D01*
X27806256Y31171566D01*
X28059487Y31269787D01*
X28288817Y31415325D01*
X28485511Y31602634D01*
X28642077Y31824581D01*
X28752552Y32072711D01*
X28812727Y32337574D01*
X28817059Y32647806D01*
X28764303Y32914246D01*
X28660799Y33165364D01*
X28510491Y33391596D01*
X28319104Y33584324D01*
X28093927Y33736208D01*
X27843537Y33841462D01*
X27577472Y33896077D01*
X27305867Y33897973D01*
X27039065Y33847078D01*
X26787230Y33745330D01*
X26559955Y33596605D01*
X26365895Y33406568D01*
X26212443Y33182457D01*
X26174102Y33093000D01*
X24460290Y33093000D01*
X24440894Y33155634D01*
X24342100Y33305559D01*
X24205450Y33422025D01*
X24041763Y33495810D01*
X23949000Y33508993D01*
X23949000Y34338750D01*
X24040025Y34445550D01*
X24113810Y34609237D01*
X24139072Y34787000D01*
X24139072Y35775000D01*
X24332132Y35775000D01*
X24439928Y35667204D01*
X24439928Y34910000D01*
X24447992Y34808879D01*
X24501106Y34637366D01*
X24599900Y34487441D01*
X24736550Y34370975D01*
X24900237Y34297190D01*
X25078000Y34271928D01*
X26578000Y34271928D01*
X26679121Y34279992D01*
X26850634Y34333106D01*
X27000559Y34431900D01*
X27117025Y34568550D01*
X27179498Y34707142D01*
X27201106Y34637366D01*
X27299900Y34487441D01*
X27436550Y34370975D01*
X27600237Y34297190D01*
X27778000Y34271928D01*
X29278000Y34271928D01*
X29379121Y34279992D01*
X29550634Y34333106D01*
X29700559Y34431900D01*
X29817025Y34568550D01*
X29887548Y34725000D01*
X30169710Y34725000D01*
X30189106Y34662366D01*
X30287900Y34512441D01*
X30341527Y34466735D01*
X30243441Y34402100D01*
X30126975Y34265450D01*
X30053190Y34101763D01*
X30027928Y33924000D01*
X30027928Y32624000D01*
X30035992Y32522879D01*
X30089106Y32351366D01*
X30187900Y32201441D01*
X30324550Y32084975D01*
X30335164Y32080190D01*
X30272763Y32017789D01*
X30203270Y31913785D01*
X30155403Y31798223D01*
X30131000Y31675542D01*
X30131000Y31273750D01*
X30289750Y31115000D01*
X31389000Y31115000D01*
X31389000Y31135000D01*
X31643000Y31135000D01*
X31643000Y31115000D01*
X31663000Y31115000D01*
X31663000Y30861000D01*
X31643000Y30861000D01*
X31643000Y29886750D01*
X31801750Y29728000D01*
X32328542Y29728000D01*
X32451223Y29752403D01*
X32566785Y29800270D01*
X32670789Y29869763D01*
X32759237Y29958211D01*
X32767773Y29970985D01*
X32787900Y29940441D01*
X32924550Y29823975D01*
X33088237Y29750190D01*
X33266000Y29724928D01*
X34766000Y29724928D01*
X34867121Y29732992D01*
X35038634Y29786106D01*
X35188559Y29884900D01*
X35305025Y30021550D01*
X35378810Y30185237D01*
X35404072Y30363000D01*
X35404072Y31613000D01*
X35396008Y31714121D01*
X35394730Y31718250D01*
X37243000Y31718250D01*
X37243000Y31316458D01*
X37267403Y31193777D01*
X37315270Y31078215D01*
X37384763Y30974211D01*
X37473211Y30885763D01*
X37577215Y30816270D01*
X37692777Y30768403D01*
X37815458Y30744000D01*
X38342250Y30744000D01*
X38501000Y30902750D01*
X38501000Y31877000D01*
X37401750Y31877000D01*
X37243000Y31718250D01*
X35394730Y31718250D01*
X35342894Y31885634D01*
X35244100Y32035559D01*
X35190473Y32081265D01*
X35288559Y32145900D01*
X35405025Y32282550D01*
X35475548Y32439000D01*
X36322000Y32439000D01*
X36398747Y32446525D01*
X36475600Y32453249D01*
X36479814Y32454473D01*
X36484186Y32454902D01*
X36558081Y32477212D01*
X36632092Y32498715D01*
X36635986Y32500734D01*
X36640194Y32502004D01*
X36708311Y32538223D01*
X36776774Y32573710D01*
X36780207Y32576451D01*
X36784082Y32578511D01*
X36843866Y32627269D01*
X36904133Y32675380D01*
X36910238Y32681400D01*
X36910370Y32681508D01*
X36910471Y32681631D01*
X36912434Y32683566D01*
X36920410Y32691542D01*
X37243000Y32691542D01*
X37243000Y32289750D01*
X37401750Y32131000D01*
X38501000Y32131000D01*
X38501000Y33105250D01*
X38342250Y33264000D01*
X37815458Y33264000D01*
X37692777Y33239597D01*
X37577215Y33191730D01*
X37473211Y33122237D01*
X37384763Y33033789D01*
X37315270Y32929785D01*
X37267403Y32814223D01*
X37243000Y32691542D01*
X36920410Y32691542D01*
X37707796Y33478928D01*
X37765000Y33478928D01*
X37866121Y33486992D01*
X38037634Y33540106D01*
X38094472Y33577560D01*
X38257237Y33504190D01*
X38435000Y33478928D01*
X39035000Y33478928D01*
X39136121Y33486992D01*
X39307634Y33540106D01*
X39364472Y33577560D01*
X39527237Y33504190D01*
X39705000Y33478928D01*
X40305000Y33478928D01*
X40406121Y33486992D01*
X40440000Y33497484D01*
X40440000Y33267072D01*
X40378000Y33267072D01*
X40276879Y33259008D01*
X40105366Y33205894D01*
X39955441Y33107100D01*
X39880783Y33019503D01*
X39871237Y33033789D01*
X39782789Y33122237D01*
X39678785Y33191730D01*
X39563223Y33239597D01*
X39440542Y33264000D01*
X38913750Y33264000D01*
X38755000Y33105250D01*
X38755000Y32131000D01*
X38775000Y32131000D01*
X38775000Y31877000D01*
X38755000Y31877000D01*
X38755000Y30902750D01*
X38913750Y30744000D01*
X39440542Y30744000D01*
X39563223Y30768403D01*
X39678785Y30816270D01*
X39782789Y30885763D01*
X39871237Y30974211D01*
X39879773Y30986985D01*
X39899900Y30956441D01*
X40036550Y30839975D01*
X40200237Y30766190D01*
X40233886Y30761408D01*
X40081895Y30612568D01*
X39928443Y30388457D01*
X39821444Y30138808D01*
X39764972Y29873131D01*
X39761180Y29601545D01*
X39810211Y29334395D01*
X39910198Y29081856D01*
X40057333Y28853548D01*
X40246011Y28658166D01*
X40469045Y28503153D01*
X40717941Y28394414D01*
X40983217Y28336089D01*
X41254770Y28330401D01*
X41522256Y28377566D01*
X41775487Y28475787D01*
X42004817Y28621325D01*
X42201511Y28808634D01*
X42358077Y29030581D01*
X42468552Y29278711D01*
X42528727Y29543574D01*
X42533059Y29853806D01*
X42480303Y30120246D01*
X42376799Y30371364D01*
X42226491Y30597596D01*
X42053328Y30771972D01*
X42150634Y30802106D01*
X42300559Y30900900D01*
X42417025Y31037550D01*
X42452500Y31116250D01*
X45547000Y31116250D01*
X45547000Y30589458D01*
X45571403Y30466777D01*
X45619270Y30351215D01*
X45688763Y30247211D01*
X45777211Y30158763D01*
X45881215Y30089270D01*
X45996777Y30041403D01*
X46119458Y30017000D01*
X46196250Y30017000D01*
X46355000Y30175750D01*
X46355000Y31275000D01*
X45705750Y31275000D01*
X45547000Y31116250D01*
X42452500Y31116250D01*
X42490810Y31201237D01*
X42516072Y31379000D01*
X42516072Y32214542D01*
X45547000Y32214542D01*
X45547000Y31687750D01*
X45705750Y31529000D01*
X46355000Y31529000D01*
X46355000Y32628250D01*
X46196250Y32787000D01*
X46119458Y32787000D01*
X45996777Y32762597D01*
X45881215Y32714730D01*
X45777211Y32645237D01*
X45688763Y32556789D01*
X45619270Y32452785D01*
X45571403Y32337223D01*
X45547000Y32214542D01*
X42516072Y32214542D01*
X42516072Y32629000D01*
X42508008Y32730121D01*
X42454894Y32901634D01*
X42356100Y33051559D01*
X42219450Y33168025D01*
X42110000Y33217362D01*
X42110000Y33455000D01*
X42832352Y33455000D01*
X42851333Y33425548D01*
X43040011Y33230166D01*
X43263045Y33075153D01*
X43511941Y32966414D01*
X43777217Y32908089D01*
X44048770Y32902401D01*
X44316256Y32949566D01*
X44569487Y33047787D01*
X44798817Y33193325D01*
X44995511Y33380634D01*
X45152077Y33602581D01*
X45262552Y33850711D01*
X45322727Y34115574D01*
X45327059Y34425806D01*
X45274303Y34692246D01*
X45170799Y34943364D01*
X45020491Y35169596D01*
X44829104Y35362324D01*
X44603927Y35514208D01*
X44402240Y35598989D01*
X45044889Y35598989D01*
X47853806Y32790072D01*
X47452000Y32790072D01*
X47350879Y32782008D01*
X47179366Y32728894D01*
X47120067Y32689819D01*
X47082785Y32714730D01*
X46967223Y32762597D01*
X46844542Y32787000D01*
X46767750Y32787000D01*
X46609000Y32628250D01*
X46609000Y31529000D01*
X46629000Y31529000D01*
X46629000Y31275000D01*
X46609000Y31275000D01*
X46609000Y30175750D01*
X46767750Y30017000D01*
X46844542Y30017000D01*
X46948635Y30037706D01*
X46955212Y30015919D01*
X46976715Y29941908D01*
X46978734Y29938014D01*
X46980004Y29933806D01*
X47016223Y29865689D01*
X47051710Y29797226D01*
X47054451Y29793793D01*
X47056511Y29789918D01*
X47105269Y29730134D01*
X47153380Y29669867D01*
X47159400Y29663762D01*
X47159508Y29663630D01*
X47159631Y29663529D01*
X47161566Y29661566D01*
X47515792Y29307340D01*
X47514618Y29306716D01*
X47446176Y29271239D01*
X47442746Y29268501D01*
X47438868Y29266439D01*
X47379081Y29217678D01*
X47318816Y29169570D01*
X47312711Y29163549D01*
X47312580Y29163442D01*
X47312480Y29163321D01*
X47310516Y29161384D01*
X45891566Y27742434D01*
X45842596Y27682818D01*
X45793030Y27623747D01*
X45790917Y27619904D01*
X45788127Y27616507D01*
X45751648Y27548474D01*
X45714522Y27480941D01*
X45713195Y27476758D01*
X45711119Y27472886D01*
X45688563Y27399107D01*
X45665247Y27325606D01*
X45664758Y27321242D01*
X45663474Y27317044D01*
X45655676Y27240284D01*
X45647081Y27163658D01*
X45647021Y27155087D01*
X45647004Y27154915D01*
X45647019Y27154755D01*
X45647000Y27152000D01*
X45647000Y27098173D01*
X45642975Y27093450D01*
X45569190Y26929763D01*
X45543928Y26752000D01*
X45543928Y25252000D01*
X45551992Y25150879D01*
X45605106Y24979366D01*
X45703900Y24829441D01*
X45840550Y24712975D01*
X46004237Y24639190D01*
X46182000Y24613928D01*
X46333060Y24613928D01*
X46082132Y24363000D01*
X42208287Y24363000D01*
X42205008Y24404121D01*
X42151894Y24575634D01*
X42053100Y24725559D01*
X41916450Y24842025D01*
X41752763Y24915810D01*
X41575000Y24941072D01*
X40975000Y24941072D01*
X40873879Y24933008D01*
X40702366Y24879894D01*
X40645528Y24842440D01*
X40482763Y24915810D01*
X40305000Y24941072D01*
X39705000Y24941072D01*
X39603879Y24933008D01*
X39432366Y24879894D01*
X39375528Y24842440D01*
X39212763Y24915810D01*
X39035000Y24941072D01*
X38435000Y24941072D01*
X38333879Y24933008D01*
X38162366Y24879894D01*
X38103067Y24840819D01*
X38065785Y24865730D01*
X37950223Y24913597D01*
X37827542Y24938000D01*
X37750750Y24938000D01*
X37592000Y24779250D01*
X37592000Y23655000D01*
X37612000Y23655000D01*
X37612000Y23401000D01*
X37592000Y23401000D01*
X37592000Y23381000D01*
X37338000Y23381000D01*
X37338000Y23401000D01*
X37318000Y23401000D01*
X37318000Y23655000D01*
X37338000Y23655000D01*
X37338000Y24779250D01*
X37179250Y24938000D01*
X37102458Y24938000D01*
X36979777Y24913597D01*
X36864215Y24865730D01*
X36760211Y24796237D01*
X36671763Y24707789D01*
X36602270Y24603785D01*
X36554403Y24488223D01*
X36530000Y24365542D01*
X36530000Y23813750D01*
X36688748Y23655002D01*
X36530000Y23655002D01*
X36530000Y23538868D01*
X34840434Y25228434D01*
X34780818Y25277404D01*
X34721747Y25326970D01*
X34717904Y25329083D01*
X34714507Y25331873D01*
X34646474Y25368352D01*
X34578941Y25405478D01*
X34574758Y25406805D01*
X34570886Y25408881D01*
X34497107Y25431437D01*
X34463613Y25442062D01*
X34426894Y25560634D01*
X34328100Y25710559D01*
X34191450Y25827025D01*
X34027763Y25900810D01*
X33935000Y25913993D01*
X33935000Y25948968D01*
X34022634Y25976106D01*
X34172559Y26074900D01*
X34289025Y26211550D01*
X34362810Y26375237D01*
X34388072Y26553000D01*
X34388072Y27803000D01*
X34380008Y27904121D01*
X34326894Y28075634D01*
X34228100Y28225559D01*
X34091450Y28342025D01*
X33927763Y28415810D01*
X33750000Y28441072D01*
X32250000Y28441072D01*
X32148879Y28433008D01*
X31977366Y28379894D01*
X31827441Y28281100D01*
X31752783Y28193503D01*
X31743237Y28207789D01*
X31654789Y28296237D01*
X31550785Y28365730D01*
X31435223Y28413597D01*
X31312542Y28438000D01*
X30785750Y28438000D01*
X30627000Y28279250D01*
X30627000Y27305000D01*
X30647000Y27305000D01*
X30647000Y27051000D01*
X30627000Y27051000D01*
X30627000Y27031000D01*
X30373000Y27031000D01*
X30373000Y27051000D01*
X29273750Y27051000D01*
X29115000Y26892250D01*
X29115000Y26490458D01*
X29139403Y26367777D01*
X29187270Y26252215D01*
X29256763Y26148211D01*
X29345211Y26059763D01*
X29449215Y25990270D01*
X29564777Y25942403D01*
X29647771Y25925894D01*
X29548879Y25918008D01*
X29377366Y25864894D01*
X29227441Y25766100D01*
X29110975Y25629450D01*
X29040452Y25473000D01*
X28866032Y25473000D01*
X28838894Y25560634D01*
X28740100Y25710559D01*
X28603450Y25827025D01*
X28439763Y25900810D01*
X28262000Y25926072D01*
X26762000Y25926072D01*
X26660879Y25918008D01*
X26489366Y25864894D01*
X26339441Y25766100D01*
X26222975Y25629450D01*
X26160502Y25490858D01*
X26138894Y25560634D01*
X26040100Y25710559D01*
X25903450Y25827025D01*
X25739763Y25900810D01*
X25562000Y25926072D01*
X24062000Y25926072D01*
X23960879Y25918008D01*
X23789366Y25864894D01*
X23639441Y25766100D01*
X23522975Y25629450D01*
X23449190Y25465763D01*
X23423928Y25288000D01*
X23423928Y24430796D01*
X23152228Y24159096D01*
X23101894Y24321634D01*
X23003100Y24471559D01*
X22866450Y24588025D01*
X22702763Y24661810D01*
X22525000Y24687072D01*
X21925000Y24687072D01*
X21823879Y24679008D01*
X21652366Y24625894D01*
X21595528Y24588440D01*
X21432763Y24661810D01*
X21255000Y24687072D01*
X20655000Y24687072D01*
X20553879Y24679008D01*
X20382366Y24625894D01*
X20325528Y24588440D01*
X20162763Y24661810D01*
X19985000Y24687072D01*
X19385000Y24687072D01*
X19283879Y24679008D01*
X19112366Y24625894D01*
X19053067Y24586819D01*
X19015785Y24611730D01*
X18900223Y24659597D01*
X18777542Y24684000D01*
X18700750Y24684000D01*
X18542000Y24525250D01*
X18542000Y23401000D01*
X18562000Y23401000D01*
X18562000Y23147000D01*
X18542000Y23147000D01*
X18542000Y23127000D01*
X18288000Y23127000D01*
X18288000Y23147000D01*
X17638750Y23147000D01*
X17611309Y23119559D01*
X16619326Y24111542D01*
X17480000Y24111542D01*
X17480000Y23559750D01*
X17638750Y23401000D01*
X18288000Y23401000D01*
X18288000Y24525250D01*
X18129250Y24684000D01*
X18052458Y24684000D01*
X17929777Y24659597D01*
X17814215Y24611730D01*
X17710211Y24542237D01*
X17621763Y24453789D01*
X17552270Y24349785D01*
X17504403Y24234223D01*
X17480000Y24111542D01*
X16619326Y24111542D01*
X15692072Y25038796D01*
X15692072Y25796000D01*
X15684008Y25897121D01*
X15630894Y26068634D01*
X15532100Y26218559D01*
X15395450Y26335025D01*
X15231763Y26408810D01*
X15061586Y26432994D01*
X15226634Y26484106D01*
X15376559Y26582900D01*
X15493025Y26719550D01*
X15566810Y26883237D01*
X15592072Y27061000D01*
X15592072Y27865542D01*
X29115000Y27865542D01*
X29115000Y27463750D01*
X29273750Y27305000D01*
X30373000Y27305000D01*
X30373000Y28279250D01*
X30214250Y28438000D01*
X29687458Y28438000D01*
X29564777Y28413597D01*
X29449215Y28365730D01*
X29345211Y28296237D01*
X29256763Y28207789D01*
X29187270Y28103785D01*
X29139403Y27988223D01*
X29115000Y27865542D01*
X15592072Y27865542D01*
X15592072Y28311000D01*
X15584008Y28412121D01*
X15530894Y28583634D01*
X15432100Y28733559D01*
X15295450Y28850025D01*
X15131763Y28923810D01*
X14954000Y28949072D01*
X13454000Y28949072D01*
X13352879Y28941008D01*
X13181366Y28887894D01*
X13031441Y28789100D01*
X12956783Y28701503D01*
X12947237Y28715789D01*
X12858789Y28804237D01*
X12754785Y28873730D01*
X12639223Y28921597D01*
X12516542Y28946000D01*
X11989750Y28946000D01*
X11831000Y28787250D01*
X11831000Y27813000D01*
X11851000Y27813000D01*
X11851000Y27559000D01*
X11831000Y27559000D01*
X11831000Y27539000D01*
X11577000Y27539000D01*
X11577000Y27559000D01*
X10477750Y27559000D01*
X10319000Y27400250D01*
X10319000Y26998458D01*
X10343403Y26875777D01*
X10391270Y26760215D01*
X10460763Y26656211D01*
X10549211Y26567763D01*
X10653215Y26498270D01*
X10768777Y26450403D01*
X10851771Y26433894D01*
X10752879Y26426008D01*
X10581366Y26372894D01*
X10431441Y26274100D01*
X10314975Y26137450D01*
X10289211Y26080294D01*
X10198100Y26218559D01*
X10061450Y26335025D01*
X9897763Y26408810D01*
X9720000Y26434072D01*
X8220000Y26434072D01*
X8118879Y26426008D01*
X7947366Y26372894D01*
X7797441Y26274100D01*
X7680975Y26137450D01*
X7618502Y25998858D01*
X7596894Y26068634D01*
X7498100Y26218559D01*
X7361450Y26335025D01*
X7197763Y26408810D01*
X7020000Y26434072D01*
X5520000Y26434072D01*
X5418879Y26426008D01*
X5247366Y26372894D01*
X5097441Y26274100D01*
X4980975Y26137450D01*
X4907190Y25973763D01*
X4881928Y25796000D01*
X4881928Y25112796D01*
X3505540Y23736408D01*
X3448733Y23748069D01*
X3174774Y23749982D01*
X2905661Y23698646D01*
X2651644Y23596016D01*
X2422399Y23446003D01*
X2226658Y23254319D01*
X2071877Y23028266D01*
X1963950Y22776454D01*
X1906989Y22508476D01*
X1903164Y22234536D01*
X1952620Y21965072D01*
X2053474Y21710345D01*
X2201883Y21480058D01*
X2392196Y21282984D01*
X2617163Y21126628D01*
X2868215Y21016946D01*
X3135789Y20958116D01*
X3409695Y20952378D01*
X3679499Y20999952D01*
X3934923Y21099025D01*
X4166240Y21245823D01*
X4364639Y21434755D01*
X4522561Y21658625D01*
X4633993Y21908905D01*
X4694690Y22176062D01*
X4699059Y22488983D01*
X4685968Y22555100D01*
X5988796Y23857928D01*
X7020000Y23857928D01*
X7121121Y23865992D01*
X7292634Y23919106D01*
X7442559Y24017900D01*
X7559025Y24154550D01*
X7621498Y24293142D01*
X7643106Y24223366D01*
X7741900Y24073441D01*
X7878550Y23956975D01*
X8042237Y23883190D01*
X8220000Y23857928D01*
X9720000Y23857928D01*
X9821121Y23865992D01*
X9992634Y23919106D01*
X10142559Y24017900D01*
X10259025Y24154550D01*
X10284789Y24211706D01*
X10375900Y24073441D01*
X10512550Y23956975D01*
X10676237Y23883190D01*
X10854000Y23857928D01*
X10869000Y23857928D01*
X10869000Y23608294D01*
X10852879Y23607008D01*
X10681366Y23553894D01*
X10531441Y23455100D01*
X10414975Y23318450D01*
X10341190Y23154763D01*
X10315928Y22977000D01*
X10315928Y21727000D01*
X10323992Y21625879D01*
X10377106Y21454366D01*
X10475900Y21304441D01*
X10612550Y21187975D01*
X10776237Y21114190D01*
X10954000Y21088928D01*
X12454000Y21088928D01*
X12555121Y21096992D01*
X12726634Y21150106D01*
X12876559Y21248900D01*
X12953225Y21338852D01*
X12975900Y21304441D01*
X13112550Y21187975D01*
X13276237Y21114190D01*
X13454000Y21088928D01*
X14954000Y21088928D01*
X15055121Y21096992D01*
X15226634Y21150106D01*
X15376559Y21248900D01*
X15493025Y21385550D01*
X15529621Y21466736D01*
X16765409Y20230948D01*
X16825025Y20181978D01*
X16884096Y20132412D01*
X16887939Y20130299D01*
X16891336Y20127509D01*
X16959369Y20091030D01*
X16989387Y20074528D01*
X16981491Y20068088D01*
X16921226Y20019980D01*
X16915121Y20013959D01*
X16914990Y20013852D01*
X16914890Y20013731D01*
X16912926Y20011794D01*
X16079966Y19178834D01*
X16057450Y19198025D01*
X15893763Y19271810D01*
X15716000Y19297072D01*
X14216000Y19297072D01*
X14114879Y19289008D01*
X13943366Y19235894D01*
X13793441Y19137100D01*
X13716775Y19047148D01*
X13694100Y19081559D01*
X13557450Y19198025D01*
X13393763Y19271810D01*
X13216000Y19297072D01*
X11716000Y19297072D01*
X11614879Y19289008D01*
X11443366Y19235894D01*
X11293441Y19137100D01*
X11176975Y19000450D01*
X11103190Y18836763D01*
X11077928Y18659000D01*
X11077928Y17409000D01*
X11085992Y17307879D01*
X11139106Y17136366D01*
X11237900Y16986441D01*
X11374550Y16869975D01*
X11538237Y16796190D01*
X11631000Y16783007D01*
X11631000Y16782072D01*
X11616000Y16782072D01*
X11514879Y16774008D01*
X11343366Y16720894D01*
X11193441Y16622100D01*
X11076975Y16485450D01*
X11051211Y16428294D01*
X10960100Y16566559D01*
X10823450Y16683025D01*
X10659763Y16756810D01*
X10482000Y16782072D01*
X8982000Y16782072D01*
X8880879Y16774008D01*
X8709366Y16720894D01*
X8559441Y16622100D01*
X8442975Y16485450D01*
X8380502Y16346858D01*
X8358894Y16416634D01*
X8260100Y16566559D01*
X8123450Y16683025D01*
X7959763Y16756810D01*
X7782000Y16782072D01*
X6282000Y16782072D01*
X6180879Y16774008D01*
X6009366Y16720894D01*
X5859441Y16622100D01*
X5742975Y16485450D01*
X5672452Y16329000D01*
X5425868Y16329000D01*
X4688047Y17066821D01*
X4694690Y17096062D01*
X4699059Y17408983D01*
X4645846Y17677731D01*
X4541446Y17931025D01*
X4389835Y18159217D01*
X4196790Y18353615D01*
X3969662Y18506815D01*
X3717103Y18612981D01*
X3448733Y18668069D01*
X3174774Y18669982D01*
X2905661Y18618646D01*
X2651644Y18516016D01*
X2422399Y18366003D01*
X2226658Y18174319D01*
X2071877Y17948266D01*
X1963950Y17696454D01*
X1906989Y17428476D01*
X1903164Y17154536D01*
X1952620Y16885072D01*
X2053474Y16630345D01*
X2201883Y16400058D01*
X2392196Y16202984D01*
X2617163Y16046628D01*
X2868215Y15936946D01*
X3135789Y15878116D01*
X3409695Y15872378D01*
X3504107Y15889025D01*
X4489566Y14903566D01*
X4549182Y14854596D01*
X4608253Y14805030D01*
X4612096Y14802917D01*
X4615493Y14800127D01*
X4683526Y14763648D01*
X4751059Y14726522D01*
X4755242Y14725195D01*
X4759114Y14723119D01*
X4832921Y14700554D01*
X4906394Y14677247D01*
X4910754Y14676758D01*
X4914957Y14675473D01*
X4991756Y14667672D01*
X5068342Y14659081D01*
X5076914Y14659021D01*
X5077086Y14659004D01*
X5077246Y14659019D01*
X5080000Y14659000D01*
X5677968Y14659000D01*
X5705106Y14571366D01*
X5803900Y14421441D01*
X5940550Y14304975D01*
X6104237Y14231190D01*
X6282000Y14205928D01*
X7782000Y14205928D01*
X7883121Y14213992D01*
X8054634Y14267106D01*
X8204559Y14365900D01*
X8321025Y14502550D01*
X8383498Y14641142D01*
X8405106Y14571366D01*
X8503900Y14421441D01*
X8640550Y14304975D01*
X8804237Y14231190D01*
X8982000Y14205928D01*
X10482000Y14205928D01*
X10583121Y14213992D01*
X10754634Y14267106D01*
X10904559Y14365900D01*
X11021025Y14502550D01*
X11046789Y14559706D01*
X11137900Y14421441D01*
X11274550Y14304975D01*
X11438237Y14231190D01*
X11614179Y14206187D01*
X11530777Y14189597D01*
X11415215Y14141730D01*
X11311211Y14072237D01*
X11222763Y13983789D01*
X11153270Y13879785D01*
X11105403Y13764223D01*
X11081000Y13641542D01*
X11081000Y13239750D01*
X11239750Y13081000D01*
X12339000Y13081000D01*
X12339000Y13101000D01*
X12593000Y13101000D01*
X12593000Y13081000D01*
X12613000Y13081000D01*
X12613000Y12827000D01*
X12593000Y12827000D01*
X12593000Y11852750D01*
X12751750Y11694000D01*
X13278542Y11694000D01*
X13401223Y11718403D01*
X13516785Y11766270D01*
X13620789Y11835763D01*
X13709237Y11924211D01*
X13717773Y11936985D01*
X13737900Y11906441D01*
X13874550Y11789975D01*
X14038237Y11716190D01*
X14216000Y11690928D01*
X15716000Y11690928D01*
X15817121Y11698992D01*
X15988634Y11752106D01*
X16138559Y11850900D01*
X16255025Y11987550D01*
X16328810Y12151237D01*
X16354072Y12329000D01*
X16354072Y13579000D01*
X16346008Y13680121D01*
X16292894Y13851634D01*
X16194100Y14001559D01*
X16057450Y14118025D01*
X15893763Y14191810D01*
X15801000Y14204993D01*
X15801000Y14205928D01*
X15816000Y14205928D01*
X15917121Y14213992D01*
X16088634Y14267106D01*
X16238559Y14365900D01*
X16355025Y14502550D01*
X16428810Y14666237D01*
X16454072Y14844000D01*
X16454072Y14954250D01*
X17939000Y14954250D01*
X17939000Y14552458D01*
X17963403Y14429777D01*
X18011270Y14314215D01*
X18080763Y14210211D01*
X18169211Y14121763D01*
X18273215Y14052270D01*
X18388777Y14004403D01*
X18511458Y13980000D01*
X19038250Y13980000D01*
X19197000Y14138750D01*
X19197000Y15113000D01*
X18097750Y15113000D01*
X17939000Y14954250D01*
X16454072Y14954250D01*
X16454072Y15601204D01*
X17594164Y16741296D01*
X17636900Y16676441D01*
X17773550Y16559975D01*
X17937237Y16486190D01*
X18115000Y16460928D01*
X18353363Y16460928D01*
X18273215Y16427730D01*
X18169211Y16358237D01*
X18080763Y16269789D01*
X18011270Y16165785D01*
X17963403Y16050223D01*
X17939000Y15927542D01*
X17939000Y15525750D01*
X18097750Y15367000D01*
X19197000Y15367000D01*
X19197000Y15387000D01*
X19451000Y15387000D01*
X19451000Y15367000D01*
X19471000Y15367000D01*
X19471000Y15113000D01*
X19451000Y15113000D01*
X19451000Y14138750D01*
X19609750Y13980000D01*
X20136542Y13980000D01*
X20259223Y14004403D01*
X20374785Y14052270D01*
X20478789Y14121763D01*
X20567237Y14210211D01*
X20575773Y14222985D01*
X20595900Y14192441D01*
X20732550Y14075975D01*
X20896237Y14002190D01*
X20989000Y13989007D01*
X20989000Y13279868D01*
X20777540Y13068408D01*
X20720733Y13080069D01*
X20446774Y13081982D01*
X20177661Y13030646D01*
X19923644Y12928016D01*
X19694399Y12778003D01*
X19498658Y12586319D01*
X19343877Y12360266D01*
X19235950Y12108454D01*
X19178989Y11840476D01*
X19175164Y11566536D01*
X19224620Y11297072D01*
X19325474Y11042345D01*
X19473883Y10812058D01*
X19664196Y10614984D01*
X19889163Y10458628D01*
X20140215Y10348946D01*
X20407789Y10290116D01*
X20681695Y10284378D01*
X20951499Y10331952D01*
X21206923Y10431025D01*
X21438240Y10577823D01*
X21636639Y10766755D01*
X21794561Y10990625D01*
X21905993Y11240905D01*
X21966690Y11508062D01*
X21971059Y11820983D01*
X21957968Y11887100D01*
X22414434Y12343566D01*
X22463404Y12403182D01*
X22512970Y12462253D01*
X22515083Y12466096D01*
X22517873Y12469493D01*
X22554352Y12537526D01*
X22591478Y12605059D01*
X22592805Y12609242D01*
X22594881Y12613114D01*
X22617437Y12686893D01*
X22640753Y12760394D01*
X22641242Y12764758D01*
X22642526Y12768956D01*
X22650324Y12845716D01*
X22658919Y12922342D01*
X22658979Y12930913D01*
X22658996Y12931085D01*
X22658981Y12931245D01*
X22659000Y12934000D01*
X22659000Y13430250D01*
X29115000Y13430250D01*
X29115000Y13028458D01*
X29139403Y12905777D01*
X29187270Y12790215D01*
X29256763Y12686211D01*
X29345211Y12597763D01*
X29449215Y12528270D01*
X29564777Y12480403D01*
X29687458Y12456000D01*
X30214250Y12456000D01*
X30373000Y12614750D01*
X30373000Y13589000D01*
X29273750Y13589000D01*
X29115000Y13430250D01*
X22659000Y13430250D01*
X22659000Y13983706D01*
X22675121Y13984992D01*
X22846634Y14038106D01*
X22996559Y14136900D01*
X23113025Y14273550D01*
X23186810Y14437237D01*
X23212072Y14615000D01*
X23212072Y15865000D01*
X23204008Y15966121D01*
X23150894Y16137634D01*
X23060000Y16275570D01*
X23060000Y16752827D01*
X23064025Y16757550D01*
X23137810Y16921237D01*
X23163072Y17099000D01*
X23163072Y18649000D01*
X23155008Y18750121D01*
X23144210Y18784989D01*
X23676143Y18784989D01*
X24231000Y18230132D01*
X24231000Y17537294D01*
X24214879Y17536008D01*
X24043366Y17482894D01*
X23893441Y17384100D01*
X23776975Y17247450D01*
X23703190Y17083763D01*
X23677928Y16906000D01*
X23677928Y15606000D01*
X23685992Y15504879D01*
X23739106Y15333366D01*
X23837900Y15183441D01*
X23974550Y15066975D01*
X24138237Y14993190D01*
X24316000Y14967928D01*
X25816000Y14967928D01*
X25917121Y14975992D01*
X26088634Y15029106D01*
X26238559Y15127900D01*
X26355025Y15264550D01*
X26417498Y15403142D01*
X26439106Y15333366D01*
X26537900Y15183441D01*
X26674550Y15066975D01*
X26838237Y14993190D01*
X27016000Y14967928D01*
X28516000Y14967928D01*
X28617121Y14975992D01*
X28788634Y15029106D01*
X28938559Y15127900D01*
X29055025Y15264550D01*
X29080789Y15321706D01*
X29171900Y15183441D01*
X29308550Y15066975D01*
X29472237Y14993190D01*
X29648179Y14968187D01*
X29564777Y14951597D01*
X29449215Y14903730D01*
X29345211Y14834237D01*
X29256763Y14745789D01*
X29187270Y14641785D01*
X29139403Y14526223D01*
X29115000Y14403542D01*
X29115000Y14001750D01*
X29273750Y13843000D01*
X30373000Y13843000D01*
X30373000Y13863000D01*
X30627000Y13863000D01*
X30627000Y13843000D01*
X30647000Y13843000D01*
X30647000Y13589000D01*
X30627000Y13589000D01*
X30627000Y12614750D01*
X30785750Y12456000D01*
X31312542Y12456000D01*
X31435223Y12480403D01*
X31550785Y12528270D01*
X31654789Y12597763D01*
X31743237Y12686211D01*
X31751773Y12698985D01*
X31771900Y12668441D01*
X31908550Y12551975D01*
X32072237Y12478190D01*
X32250000Y12452928D01*
X33750000Y12452928D01*
X33851121Y12460992D01*
X34022634Y12514106D01*
X34172559Y12612900D01*
X34272824Y12730542D01*
X37856000Y12730542D01*
X37856000Y12203750D01*
X38014750Y12045000D01*
X38989000Y12045000D01*
X38989000Y13144250D01*
X38830250Y13303000D01*
X38428458Y13303000D01*
X38305777Y13278597D01*
X38190215Y13230730D01*
X38086211Y13161237D01*
X37997763Y13072789D01*
X37928270Y12968785D01*
X37880403Y12853223D01*
X37856000Y12730542D01*
X34272824Y12730542D01*
X34289025Y12749550D01*
X34362810Y12913237D01*
X34388072Y13091000D01*
X34388072Y14341000D01*
X34380008Y14442121D01*
X34326894Y14613634D01*
X34228100Y14763559D01*
X34091450Y14880025D01*
X33927763Y14953810D01*
X33924667Y14954250D01*
X37243000Y14954250D01*
X37243000Y14552458D01*
X37267403Y14429777D01*
X37315270Y14314215D01*
X37384763Y14210211D01*
X37473211Y14121763D01*
X37577215Y14052270D01*
X37692777Y14004403D01*
X37815458Y13980000D01*
X38342250Y13980000D01*
X38501000Y14138750D01*
X38501000Y15113000D01*
X37401750Y15113000D01*
X37243000Y14954250D01*
X33924667Y14954250D01*
X33835000Y14966993D01*
X33835000Y14967928D01*
X33850000Y14967928D01*
X33951121Y14975992D01*
X34122634Y15029106D01*
X34272559Y15127900D01*
X34389025Y15264550D01*
X34459548Y15421000D01*
X36068000Y15421000D01*
X36144747Y15428525D01*
X36221600Y15435249D01*
X36225814Y15436473D01*
X36230186Y15436902D01*
X36304081Y15459212D01*
X36378092Y15480715D01*
X36381986Y15482734D01*
X36386194Y15484004D01*
X36454311Y15520223D01*
X36522774Y15555710D01*
X36526207Y15558451D01*
X36530082Y15560511D01*
X36589866Y15609269D01*
X36650133Y15657380D01*
X36656238Y15663400D01*
X36656370Y15663508D01*
X36656471Y15663631D01*
X36658434Y15665566D01*
X36920410Y15927542D01*
X37243000Y15927542D01*
X37243000Y15525750D01*
X37401750Y15367000D01*
X38501000Y15367000D01*
X38501000Y16341250D01*
X38342250Y16500000D01*
X37815458Y16500000D01*
X37692777Y16475597D01*
X37577215Y16427730D01*
X37473211Y16358237D01*
X37384763Y16269789D01*
X37315270Y16165785D01*
X37267403Y16050223D01*
X37243000Y15927542D01*
X36920410Y15927542D01*
X37707796Y16714928D01*
X37765000Y16714928D01*
X37866121Y16722992D01*
X38037634Y16776106D01*
X38094472Y16813560D01*
X38257237Y16740190D01*
X38435000Y16714928D01*
X39035000Y16714928D01*
X39136121Y16722992D01*
X39307634Y16776106D01*
X39364472Y16813560D01*
X39527237Y16740190D01*
X39705000Y16714928D01*
X40293000Y16714928D01*
X40293000Y16496294D01*
X40276879Y16495008D01*
X40105366Y16441894D01*
X39955441Y16343100D01*
X39880783Y16255503D01*
X39871237Y16269789D01*
X39782789Y16358237D01*
X39678785Y16427730D01*
X39563223Y16475597D01*
X39440542Y16500000D01*
X38913750Y16500000D01*
X38755000Y16341250D01*
X38755000Y15367000D01*
X38775000Y15367000D01*
X38775000Y15113000D01*
X38755000Y15113000D01*
X38755000Y14138750D01*
X38913750Y13980000D01*
X39440542Y13980000D01*
X39563223Y14004403D01*
X39678785Y14052270D01*
X39782789Y14121763D01*
X39871237Y14210211D01*
X39879773Y14222985D01*
X39899900Y14192441D01*
X40036550Y14075975D01*
X40200237Y14002190D01*
X40293000Y13989007D01*
X40293000Y12984844D01*
X40234237Y13072789D01*
X40145789Y13161237D01*
X40041785Y13230730D01*
X39926223Y13278597D01*
X39803542Y13303000D01*
X39401750Y13303000D01*
X39243000Y13144250D01*
X39243000Y12045000D01*
X39263000Y12045000D01*
X39263000Y11791000D01*
X39243000Y11791000D01*
X39243000Y11771000D01*
X38989000Y11771000D01*
X38989000Y11791000D01*
X38014750Y11791000D01*
X37856000Y11632250D01*
X37856000Y11105458D01*
X37880403Y10982777D01*
X37928270Y10867215D01*
X37997763Y10763211D01*
X38086211Y10674763D01*
X38098985Y10666227D01*
X38068441Y10646100D01*
X37951975Y10509450D01*
X37878190Y10345763D01*
X37852928Y10168000D01*
X37852928Y9864468D01*
X37765450Y9939025D01*
X37601763Y10012810D01*
X37424000Y10038072D01*
X35424000Y10038072D01*
X35322879Y10030008D01*
X35151366Y9976894D01*
X35001441Y9878100D01*
X34990088Y9864780D01*
X33342433Y11512435D01*
X33282817Y11561405D01*
X33223746Y11610971D01*
X33219903Y11613084D01*
X33216506Y11615874D01*
X33148473Y11652353D01*
X33080940Y11689479D01*
X33076757Y11690806D01*
X33072885Y11692882D01*
X32999106Y11715438D01*
X32925605Y11738754D01*
X32921241Y11739243D01*
X32917043Y11740527D01*
X32840283Y11748325D01*
X32763657Y11756920D01*
X32755086Y11756980D01*
X32754914Y11756997D01*
X32754754Y11756982D01*
X32751999Y11757001D01*
X27050166Y11757001D01*
X27051059Y11820983D01*
X26997846Y12089731D01*
X26893446Y12343025D01*
X26741835Y12571217D01*
X26548790Y12765615D01*
X26321662Y12918815D01*
X26069103Y13024981D01*
X25800733Y13080069D01*
X25526774Y13081982D01*
X25257661Y13030646D01*
X25003644Y12928016D01*
X24774399Y12778003D01*
X24578658Y12586319D01*
X24423877Y12360266D01*
X24315950Y12108454D01*
X24258989Y11840476D01*
X24255164Y11566536D01*
X24304620Y11297072D01*
X24405474Y11042345D01*
X24553883Y10812058D01*
X24744196Y10614984D01*
X24969163Y10458628D01*
X25220215Y10348946D01*
X25487789Y10290116D01*
X25761695Y10284378D01*
X25861573Y10301989D01*
X25885154Y10282619D01*
X25944252Y10233031D01*
X25948099Y10230916D01*
X25951492Y10228129D01*
X26019505Y10191660D01*
X26087058Y10154523D01*
X26091239Y10153197D01*
X26095112Y10151120D01*
X26168906Y10128560D01*
X26242393Y10105248D01*
X26246757Y10104759D01*
X26250955Y10103475D01*
X26327670Y10095682D01*
X26404341Y10087082D01*
X26412923Y10087022D01*
X26413084Y10087006D01*
X26413234Y10087020D01*
X26415999Y10087001D01*
X32406131Y10087001D01*
X34433566Y8059566D01*
X34493182Y8010596D01*
X34552253Y7961030D01*
X34556096Y7958917D01*
X34559493Y7956127D01*
X34627526Y7919648D01*
X34695059Y7882522D01*
X34699242Y7881195D01*
X34703114Y7879119D01*
X34776921Y7856554D01*
X34789716Y7852495D01*
X34793992Y7798879D01*
X34847106Y7627366D01*
X34929311Y7502616D01*
X34861270Y7400785D01*
X34813403Y7285223D01*
X34789000Y7162542D01*
X34789000Y6635750D01*
X34947750Y6477000D01*
X36297000Y6477000D01*
X36297000Y6497000D01*
X36551000Y6497000D01*
X36551000Y6477000D01*
X37900250Y6477000D01*
X38059000Y6635750D01*
X38059000Y7162542D01*
X38034597Y7285223D01*
X37986730Y7400785D01*
X37917237Y7504789D01*
X37917220Y7504806D01*
X37963025Y7558550D01*
X38036810Y7722237D01*
X38062072Y7900000D01*
X38062072Y8055000D01*
X38314574Y8055000D01*
X38491000Y8029928D01*
X39741000Y8029928D01*
X39842121Y8037992D01*
X40013634Y8091106D01*
X40163559Y8189900D01*
X40280025Y8326550D01*
X40353810Y8490237D01*
X40372214Y8619743D01*
X40377081Y8621212D01*
X40451092Y8642715D01*
X40454986Y8644734D01*
X40459194Y8646004D01*
X40527311Y8682223D01*
X40595774Y8717710D01*
X40599207Y8720451D01*
X40603082Y8722511D01*
X40662866Y8771269D01*
X40723133Y8819380D01*
X40729238Y8825400D01*
X40729370Y8825508D01*
X40729471Y8825631D01*
X40731434Y8827566D01*
X41718434Y9814566D01*
X41767404Y9874182D01*
X41816970Y9933253D01*
X41819083Y9937096D01*
X41821873Y9940493D01*
X41858352Y10008526D01*
X41895478Y10076059D01*
X41896805Y10080242D01*
X41898881Y10084114D01*
X41921437Y10157893D01*
X41944753Y10231394D01*
X41945242Y10235758D01*
X41946526Y10239956D01*
X41954324Y10316716D01*
X41962919Y10393342D01*
X41962979Y10401913D01*
X41962996Y10402085D01*
X41962981Y10402245D01*
X41963000Y10405000D01*
X41963000Y13983706D01*
X41979121Y13984992D01*
X42150634Y14038106D01*
X42300559Y14136900D01*
X42417025Y14273550D01*
X42478973Y14410978D01*
X42494747Y14412525D01*
X42571600Y14419249D01*
X42575814Y14420473D01*
X42580186Y14420902D01*
X42654081Y14443212D01*
X42728092Y14464715D01*
X42731986Y14466734D01*
X42736194Y14468004D01*
X42804311Y14504223D01*
X42872774Y14539710D01*
X42876207Y14542451D01*
X42880082Y14544511D01*
X42939866Y14593269D01*
X43000133Y14641380D01*
X43006238Y14647400D01*
X43006370Y14647508D01*
X43006471Y14647631D01*
X43008434Y14649566D01*
X44001492Y15642624D01*
X44031217Y15636089D01*
X44302770Y15630401D01*
X44570256Y15677566D01*
X44823487Y15775787D01*
X45052817Y15921325D01*
X45249511Y16108634D01*
X45406077Y16330581D01*
X45516552Y16578711D01*
X45576727Y16843574D01*
X45581059Y17153806D01*
X45528303Y17420246D01*
X45424799Y17671364D01*
X45274491Y17897596D01*
X45083104Y18090324D01*
X44898264Y18215000D01*
X47752000Y18215000D01*
X47828747Y18222525D01*
X47905600Y18229249D01*
X47909814Y18230473D01*
X47914186Y18230902D01*
X47988081Y18253212D01*
X48062092Y18274715D01*
X48065986Y18276734D01*
X48070194Y18278004D01*
X48138311Y18314223D01*
X48206774Y18349710D01*
X48210207Y18352451D01*
X48214082Y18354511D01*
X48273866Y18403269D01*
X48334133Y18451380D01*
X48340238Y18457400D01*
X48340370Y18457508D01*
X48340471Y18457631D01*
X48342434Y18459566D01*
X50191118Y20308250D01*
X52842000Y20308250D01*
X52842000Y19781458D01*
X52866403Y19658777D01*
X52914270Y19543215D01*
X52983763Y19439211D01*
X53072211Y19350763D01*
X53176215Y19281270D01*
X53291777Y19233403D01*
X53414458Y19209000D01*
X53816250Y19209000D01*
X53975000Y19367750D01*
X53975000Y20467000D01*
X54229000Y20467000D01*
X54229000Y19367750D01*
X54387750Y19209000D01*
X54789542Y19209000D01*
X54912223Y19233403D01*
X55027785Y19281270D01*
X55131789Y19350763D01*
X55220237Y19439211D01*
X55289730Y19543215D01*
X55337597Y19658777D01*
X55362000Y19781458D01*
X55362000Y20308250D01*
X55203250Y20467000D01*
X54229000Y20467000D01*
X53975000Y20467000D01*
X53000750Y20467000D01*
X52842000Y20308250D01*
X50191118Y20308250D01*
X52141868Y22259000D01*
X52845706Y22259000D01*
X52846992Y22242879D01*
X52900106Y22071366D01*
X52998900Y21921441D01*
X53086497Y21846783D01*
X53072211Y21837237D01*
X52983763Y21748789D01*
X52914270Y21644785D01*
X52866403Y21529223D01*
X52842000Y21406542D01*
X52842000Y20879750D01*
X53000750Y20721000D01*
X53975000Y20721000D01*
X53975000Y20741000D01*
X54229000Y20741000D01*
X54229000Y20721000D01*
X55203250Y20721000D01*
X55362000Y20879750D01*
X55362000Y21406542D01*
X55337597Y21529223D01*
X55289730Y21644785D01*
X55220237Y21748789D01*
X55131789Y21837237D01*
X55119015Y21845773D01*
X55149559Y21865900D01*
X55266025Y22002550D01*
X55339810Y22166237D01*
X55365072Y22344000D01*
X55365072Y23844000D01*
X55357008Y23945121D01*
X55303894Y24116634D01*
X55205100Y24266559D01*
X55068450Y24383025D01*
X54937000Y24442279D01*
X54937000Y24905827D01*
X54941025Y24910550D01*
X55014810Y25074237D01*
X55040072Y25252000D01*
X55040072Y26752000D01*
X55032008Y26853121D01*
X54978894Y27024634D01*
X54971445Y27035939D01*
X55388697Y27035939D01*
X56668509Y25756127D01*
X56668509Y22992716D01*
X56676034Y22915969D01*
X56682758Y22839116D01*
X56683982Y22834902D01*
X56684411Y22830530D01*
X56706721Y22756635D01*
X56728224Y22682624D01*
X56730243Y22678730D01*
X56731513Y22674522D01*
X56767732Y22606405D01*
X56803219Y22537942D01*
X56805960Y22534509D01*
X56808020Y22530634D01*
X56856778Y22470850D01*
X56904889Y22410583D01*
X56910909Y22404478D01*
X56911017Y22404346D01*
X56911140Y22404245D01*
X56913075Y22402282D01*
X58080851Y21234506D01*
X58086620Y21203072D01*
X58187474Y20948345D01*
X58335883Y20718058D01*
X58526196Y20520984D01*
X58751163Y20364628D01*
X59002215Y20254946D01*
X59269789Y20196116D01*
X59543695Y20190378D01*
X59813499Y20237952D01*
X60068923Y20337025D01*
X60300240Y20483823D01*
X60498639Y20672755D01*
X60656561Y20896625D01*
X60767993Y21146905D01*
X60828690Y21414062D01*
X60833059Y21726983D01*
X60779846Y21995731D01*
X60675446Y22249025D01*
X60523835Y22477217D01*
X60330790Y22671615D01*
X60103662Y22824815D01*
X59851103Y22930981D01*
X59582733Y22986069D01*
X59308774Y22987982D01*
X59039661Y22936646D01*
X58826550Y22850543D01*
X58338509Y23338584D01*
X58338509Y25795339D01*
X58526196Y25600984D01*
X58751163Y25444628D01*
X59002215Y25334946D01*
X59269789Y25276116D01*
X59543695Y25270378D01*
X59813499Y25317952D01*
X60068923Y25417025D01*
X60300240Y25563823D01*
X60498639Y25752755D01*
X60656561Y25976625D01*
X60767993Y26226905D01*
X60828690Y26494062D01*
X60833059Y26806983D01*
X60779846Y27075731D01*
X60675446Y27329025D01*
X60523835Y27557217D01*
X60330790Y27751615D01*
X60103662Y27904815D01*
X59851103Y28010981D01*
X59582733Y28066069D01*
X59308774Y28067982D01*
X59233286Y28053582D01*
X58427053Y28859815D01*
X58498697Y28931459D01*
X58526196Y28902984D01*
X58751163Y28746628D01*
X59002215Y28636946D01*
X59269789Y28578116D01*
X59543695Y28572378D01*
X59813499Y28619952D01*
X60068923Y28719025D01*
X60300240Y28865823D01*
X60498639Y29054755D01*
X60656561Y29278625D01*
X60767993Y29528905D01*
X60828690Y29796062D01*
X60833059Y30108983D01*
X60779846Y30377731D01*
X60675446Y30631025D01*
X60523835Y30859217D01*
X60330790Y31053615D01*
X60103662Y31206815D01*
X59851103Y31312981D01*
X59582733Y31368069D01*
X59308774Y31369982D01*
X59039661Y31318646D01*
X58785644Y31216016D01*
X58556399Y31066003D01*
X58360658Y30874319D01*
X58311411Y30802396D01*
X58281623Y30799475D01*
X58204770Y30792751D01*
X58200556Y30791527D01*
X58196184Y30791098D01*
X58122289Y30768788D01*
X58048278Y30747285D01*
X58044384Y30745266D01*
X58040176Y30743996D01*
X57972059Y30707777D01*
X57903596Y30672290D01*
X57900163Y30669549D01*
X57896288Y30667489D01*
X57854327Y30633267D01*
X57862484Y30705987D01*
X57862544Y30714569D01*
X57862560Y30714730D01*
X57862546Y30714880D01*
X57862565Y30717645D01*
X57862565Y33447105D01*
X58463435Y34047975D01*
X58526196Y33982984D01*
X58751163Y33826628D01*
X59002215Y33716946D01*
X59269789Y33658116D01*
X59543695Y33652378D01*
X59813499Y33699952D01*
X60068923Y33799025D01*
X60300240Y33945823D01*
X60498639Y34134755D01*
X60656561Y34358625D01*
X60767993Y34608905D01*
X60828690Y34876062D01*
X60833059Y35188983D01*
X60779846Y35457731D01*
X60675446Y35711025D01*
X60523835Y35939217D01*
X60330790Y36133615D01*
X60103662Y36286815D01*
X59851103Y36392981D01*
X59582733Y36448069D01*
X59308774Y36449982D01*
X59039661Y36398646D01*
X58785644Y36296016D01*
X58556399Y36146003D01*
X58360658Y35954319D01*
X58314564Y35887000D01*
X58286592Y35887000D01*
X58209800Y35879471D01*
X58132992Y35872751D01*
X58128778Y35871527D01*
X58124406Y35871098D01*
X58050525Y35848792D01*
X57976499Y35827285D01*
X57972603Y35825266D01*
X57968398Y35823996D01*
X57900299Y35787787D01*
X57831818Y35752290D01*
X57828385Y35749549D01*
X57824510Y35747489D01*
X57764726Y35698731D01*
X57704459Y35650620D01*
X57698354Y35644600D01*
X57698222Y35644492D01*
X57698121Y35644369D01*
X57696158Y35642434D01*
X56437131Y34383407D01*
X56388161Y34323791D01*
X56338595Y34264720D01*
X56336482Y34260877D01*
X56333692Y34257480D01*
X56297213Y34189447D01*
X56260087Y34121914D01*
X56258760Y34117731D01*
X56256684Y34113859D01*
X56234128Y34040080D01*
X56210812Y33966579D01*
X56210323Y33962215D01*
X56209039Y33958017D01*
X56201241Y33881257D01*
X56192646Y33804631D01*
X56192586Y33796060D01*
X56192569Y33795888D01*
X56192584Y33795728D01*
X56192565Y33792973D01*
X56192565Y31063513D01*
X55949477Y30820425D01*
X55037000Y30820425D01*
X55037000Y31116250D01*
X54878250Y31275000D01*
X54229000Y31275000D01*
X54229000Y31255000D01*
X53975000Y31255000D01*
X53975000Y31275000D01*
X53955000Y31275000D01*
X53955000Y31529000D01*
X53975000Y31529000D01*
X53975000Y32628250D01*
X54229000Y32628250D01*
X54229000Y31529000D01*
X54878250Y31529000D01*
X55037000Y31687750D01*
X55037000Y32214542D01*
X55012597Y32337223D01*
X54964730Y32452785D01*
X54895237Y32556789D01*
X54806789Y32645237D01*
X54702785Y32714730D01*
X54587223Y32762597D01*
X54464542Y32787000D01*
X54387750Y32787000D01*
X54229000Y32628250D01*
X53975000Y32628250D01*
X53816250Y32787000D01*
X53739458Y32787000D01*
X53667000Y32772587D01*
X53667000Y33528000D01*
X53659475Y33604747D01*
X53652751Y33681600D01*
X53651527Y33685814D01*
X53651098Y33690186D01*
X53628802Y33764034D01*
X53607286Y33838092D01*
X53605265Y33841991D01*
X53603996Y33846194D01*
X53567785Y33914296D01*
X53532290Y33982773D01*
X53529551Y33986204D01*
X53527489Y33990082D01*
X53478738Y34049858D01*
X53430621Y34110133D01*
X53424599Y34116239D01*
X53424492Y34116370D01*
X53424371Y34116470D01*
X53422434Y34118434D01*
X46658434Y40882434D01*
X46598818Y40931404D01*
X46539747Y40980970D01*
X46535904Y40983083D01*
X46532507Y40985873D01*
X46464474Y41022352D01*
X46396941Y41059478D01*
X46392758Y41060805D01*
X46388886Y41062881D01*
X46315107Y41085437D01*
X46241606Y41108753D01*
X46237242Y41109242D01*
X46233044Y41110526D01*
X46156284Y41118324D01*
X46079658Y41126919D01*
X46071087Y41126979D01*
X46070915Y41126996D01*
X46070755Y41126981D01*
X46068000Y41127000D01*
X42208287Y41127000D01*
X42205008Y41168121D01*
X42151894Y41339634D01*
X42053100Y41489559D01*
X41916450Y41606025D01*
X41752763Y41679810D01*
X41575000Y41705072D01*
X40975000Y41705072D01*
X40873879Y41697008D01*
X40702366Y41643894D01*
X40645528Y41606440D01*
X40482763Y41679810D01*
X40305000Y41705072D01*
X39705000Y41705072D01*
X39603879Y41697008D01*
X39432366Y41643894D01*
X39375528Y41606440D01*
X39212763Y41679810D01*
X39035000Y41705072D01*
X38435000Y41705072D01*
X38333879Y41697008D01*
X38162366Y41643894D01*
X38103067Y41604819D01*
X38065785Y41629730D01*
X37950223Y41677597D01*
X37827542Y41702000D01*
X37750750Y41702000D01*
X37592000Y41543250D01*
X37592000Y40419000D01*
X37612000Y40419000D01*
X37612000Y40165000D01*
X37592000Y40165000D01*
X37592000Y40145000D01*
X37338000Y40145000D01*
X37338000Y40165000D01*
X37318000Y40165000D01*
X37318000Y40419000D01*
X37338000Y40419000D01*
X37338000Y41543250D01*
X37179250Y41702000D01*
X37102458Y41702000D01*
X36979777Y41677597D01*
X36864215Y41629730D01*
X36760211Y41560237D01*
X36671763Y41471789D01*
X36602270Y41367785D01*
X36554403Y41252223D01*
X36530000Y41129542D01*
X36530000Y40577750D01*
X36688748Y40419002D01*
X36543865Y40419002D01*
X36020432Y40942434D01*
X35960816Y40991404D01*
X35901745Y41040970D01*
X35897902Y41043083D01*
X35894505Y41045873D01*
X35826472Y41082352D01*
X35758939Y41119478D01*
X35754756Y41120805D01*
X35750884Y41122881D01*
X35677105Y41145437D01*
X35642432Y41156436D01*
X35504072Y41294796D01*
X35504072Y42052000D01*
X35496008Y42153121D01*
X35442894Y42324634D01*
X35344100Y42474559D01*
X35207450Y42591025D01*
X35043763Y42664810D01*
X34866000Y42690072D01*
X34851000Y42690072D01*
X34851000Y42939706D01*
X34867121Y42940992D01*
X35038634Y42994106D01*
X35188559Y43092900D01*
X35305025Y43229550D01*
X35378810Y43393237D01*
X35404072Y43571000D01*
X35404072Y44821000D01*
X35396008Y44922121D01*
X35342894Y45093634D01*
X35244100Y45243559D01*
X35107450Y45360025D01*
X34943763Y45433810D01*
X34766000Y45459072D01*
X33266000Y45459072D01*
X33164879Y45451008D01*
X32993366Y45397894D01*
X32843441Y45299100D01*
X32768783Y45211503D01*
X32759237Y45225789D01*
X32670789Y45314237D01*
X32566785Y45383730D01*
X32451223Y45431597D01*
X32328542Y45456000D01*
X31801750Y45456000D01*
X31643000Y45297250D01*
X31643000Y44323000D01*
X31663000Y44323000D01*
X31663000Y44069000D01*
X31643000Y44069000D01*
X31643000Y43094750D01*
X31801750Y42936000D01*
X32328542Y42936000D01*
X32451223Y42960403D01*
X32566785Y43008270D01*
X32670789Y43077763D01*
X32759237Y43166211D01*
X32767773Y43178985D01*
X32787900Y43148441D01*
X32924550Y43031975D01*
X33088237Y42958190D01*
X33181000Y42945007D01*
X33181000Y42656032D01*
X33093366Y42628894D01*
X32943441Y42530100D01*
X32826975Y42393450D01*
X32764502Y42254858D01*
X32742894Y42324634D01*
X32644100Y42474559D01*
X32507450Y42591025D01*
X32343763Y42664810D01*
X32166000Y42690072D01*
X30666000Y42690072D01*
X30564879Y42682008D01*
X30393366Y42628894D01*
X30243441Y42530100D01*
X30126975Y42393450D01*
X30056452Y42237000D01*
X29882032Y42237000D01*
X29854894Y42324634D01*
X29756100Y42474559D01*
X29619450Y42591025D01*
X29455763Y42664810D01*
X29278000Y42690072D01*
X27778000Y42690072D01*
X27676879Y42682008D01*
X27505366Y42628894D01*
X27355441Y42530100D01*
X27238975Y42393450D01*
X27176502Y42254858D01*
X27154894Y42324634D01*
X27056100Y42474559D01*
X26919450Y42591025D01*
X26755763Y42664810D01*
X26578000Y42690072D01*
X25078000Y42690072D01*
X24976879Y42682008D01*
X24805366Y42628894D01*
X24655441Y42530100D01*
X24538975Y42393450D01*
X24468452Y42237000D01*
X23888238Y42237000D01*
X23842450Y42276025D01*
X23678763Y42349810D01*
X23501000Y42375072D01*
X22901000Y42375072D01*
X22799879Y42367008D01*
X22628366Y42313894D01*
X22571528Y42276440D01*
X22408763Y42349810D01*
X22231000Y42375072D01*
X21631000Y42375072D01*
X21529879Y42367008D01*
X21358366Y42313894D01*
X21301528Y42276440D01*
X21138763Y42349810D01*
X20961000Y42375072D01*
X20361000Y42375072D01*
X20259879Y42367008D01*
X20088366Y42313894D01*
X20029067Y42274819D01*
X19991785Y42299730D01*
X19876223Y42347597D01*
X19753542Y42372000D01*
X19676750Y42372000D01*
X19518000Y42213250D01*
X19518000Y41089000D01*
X19538000Y41089000D01*
X19538000Y40835000D01*
X19518000Y40835000D01*
X19518000Y40815000D01*
X19264000Y40815000D01*
X19264000Y40835000D01*
X18614750Y40835000D01*
X18456000Y40676250D01*
X18456000Y40285022D01*
X17310109Y40285022D01*
X16173476Y41421655D01*
X16167001Y41429595D01*
X16118884Y41489870D01*
X16112862Y41495976D01*
X16112755Y41496107D01*
X16112634Y41496207D01*
X16110697Y41498171D01*
X15809326Y41799542D01*
X18456000Y41799542D01*
X18456000Y41247750D01*
X18614750Y41089000D01*
X19264000Y41089000D01*
X19264000Y42213250D01*
X19105250Y42372000D01*
X19028458Y42372000D01*
X18905777Y42347597D01*
X18790215Y42299730D01*
X18686211Y42230237D01*
X18597763Y42141789D01*
X18528270Y42037785D01*
X18480403Y41922223D01*
X18456000Y41799542D01*
X15809326Y41799542D01*
X15362434Y42246434D01*
X15302818Y42295404D01*
X15243747Y42344970D01*
X15239904Y42347083D01*
X15236507Y42349873D01*
X15168474Y42386352D01*
X15100941Y42423478D01*
X15096758Y42424805D01*
X15092886Y42426881D01*
X15019107Y42449437D01*
X14985613Y42460062D01*
X14948894Y42578634D01*
X14850100Y42728559D01*
X14713450Y42845025D01*
X14549763Y42918810D01*
X14531000Y42921476D01*
X14531000Y42939706D01*
X14547121Y42940992D01*
X14718634Y42994106D01*
X14868559Y43092900D01*
X14985025Y43229550D01*
X15058810Y43393237D01*
X15084072Y43571000D01*
X15084072Y43910250D01*
X30131000Y43910250D01*
X30131000Y43508458D01*
X30155403Y43385777D01*
X30203270Y43270215D01*
X30272763Y43166211D01*
X30361211Y43077763D01*
X30465215Y43008270D01*
X30580777Y42960403D01*
X30703458Y42936000D01*
X31230250Y42936000D01*
X31389000Y43094750D01*
X31389000Y44069000D01*
X30289750Y44069000D01*
X30131000Y43910250D01*
X15084072Y43910250D01*
X15084072Y44821000D01*
X15079085Y44883542D01*
X30131000Y44883542D01*
X30131000Y44481750D01*
X30289750Y44323000D01*
X31389000Y44323000D01*
X31389000Y45297250D01*
X31230250Y45456000D01*
X30703458Y45456000D01*
X30580777Y45431597D01*
X30465215Y45383730D01*
X30361211Y45314237D01*
X30272763Y45225789D01*
X30203270Y45121785D01*
X30155403Y45006223D01*
X30131000Y44883542D01*
X15079085Y44883542D01*
X15076008Y44922121D01*
X15022894Y45093634D01*
X14924100Y45243559D01*
X14787450Y45360025D01*
X14623763Y45433810D01*
X14446000Y45459072D01*
X12946000Y45459072D01*
X12844879Y45451008D01*
X12673366Y45397894D01*
X12523441Y45299100D01*
X12448783Y45211503D01*
X12439237Y45225789D01*
X12350789Y45314237D01*
X12246785Y45383730D01*
X12131223Y45431597D01*
X12008542Y45456000D01*
X11481750Y45456000D01*
X11323000Y45297250D01*
X11323000Y44323000D01*
X11343000Y44323000D01*
X11343000Y44069000D01*
X11323000Y44069000D01*
X11323000Y44049000D01*
X11069000Y44049000D01*
X11069000Y44069000D01*
X9969750Y44069000D01*
X9811000Y43910250D01*
X9811000Y43508458D01*
X9835403Y43385777D01*
X9883270Y43270215D01*
X9952763Y43166211D01*
X10041211Y43077763D01*
X10145215Y43008270D01*
X10260777Y42960403D01*
X10342878Y42944072D01*
X10172000Y42944072D01*
X10070879Y42936008D01*
X9899366Y42882894D01*
X9749441Y42784100D01*
X9650217Y42667680D01*
X9610100Y42728559D01*
X9473450Y42845025D01*
X9309763Y42918810D01*
X9132000Y42944072D01*
X7632000Y42944072D01*
X7530879Y42936008D01*
X7359366Y42882894D01*
X7209441Y42784100D01*
X7092975Y42647450D01*
X7030502Y42508858D01*
X7008894Y42578634D01*
X6910100Y42728559D01*
X6773450Y42845025D01*
X6609763Y42918810D01*
X6432000Y42944072D01*
X4932000Y42944072D01*
X4830879Y42936008D01*
X4659366Y42882894D01*
X4509441Y42784100D01*
X4392975Y42647450D01*
X4319190Y42483763D01*
X4293928Y42306000D01*
X4293928Y41448796D01*
X4000566Y41155434D01*
X3942790Y41213615D01*
X3715662Y41366815D01*
X3463103Y41472981D01*
X3194733Y41528069D01*
X2920774Y41529982D01*
X2651661Y41478646D01*
X2397644Y41376016D01*
X2168399Y41226003D01*
X1972658Y41034319D01*
X1817877Y40808266D01*
X1709950Y40556454D01*
X1652989Y40288476D01*
X1649164Y40014536D01*
X456000Y40014536D01*
X456000Y44883542D01*
X9811000Y44883542D01*
X9811000Y44481750D01*
X9969750Y44323000D01*
X11069000Y44323000D01*
X11069000Y45297250D01*
X10910250Y45456000D01*
X10383458Y45456000D01*
X10260777Y45431597D01*
X10145215Y45383730D01*
X10041211Y45314237D01*
X9952763Y45225789D01*
X9883270Y45121785D01*
X9835403Y45006223D01*
X9811000Y44883542D01*
X456000Y44883542D01*
X456000Y46026000D01*
X63806000Y46026000D01*
X63806000Y14968428D01*
X63806000Y14968428D01*
G37*
X63806000Y14968428D02*
X54911000Y14968428D01*
X54911000Y710000D01*
X456000Y710000D01*
X456000Y6064250D01*
X6247000Y6064250D01*
X6247000Y4787458D01*
X6271403Y4664777D01*
X6319270Y4549215D01*
X6388763Y4445211D01*
X6477211Y4356763D01*
X6581215Y4287270D01*
X6696777Y4239403D01*
X6819458Y4215000D01*
X8096250Y4215000D01*
X8255000Y4373750D01*
X8255000Y6223000D01*
X8509000Y6223000D01*
X8509000Y4373750D01*
X8667750Y4215000D01*
X9944542Y4215000D01*
X10067223Y4239403D01*
X10182785Y4287270D01*
X10286789Y4356763D01*
X10375237Y4445211D01*
X10444730Y4549215D01*
X10492597Y4664777D01*
X10517000Y4787458D01*
X10517000Y4858347D01*
X12149952Y4858347D01*
X12305962Y4542786D01*
X12680745Y4351980D01*
X13085551Y4237956D01*
X13504824Y4205098D01*
X13922451Y4254666D01*
X14322383Y4384757D01*
X14618038Y4542786D01*
X14774048Y4858347D01*
X13462000Y6170395D01*
X12149952Y4858347D01*
X10517000Y4858347D01*
X10517000Y6064250D01*
X10358250Y6223000D01*
X8509000Y6223000D01*
X8255000Y6223000D01*
X6405750Y6223000D01*
X6247000Y6064250D01*
X456000Y6064250D01*
X456000Y6307176D01*
X11317098Y6307176D01*
X11366666Y5889549D01*
X11496757Y5489617D01*
X11654786Y5193962D01*
X11970347Y5037952D01*
X13282395Y6350000D01*
X13641605Y6350000D01*
X14953653Y5037952D01*
X15269214Y5193962D01*
X15460020Y5568745D01*
X15574044Y5973551D01*
X15581151Y6064250D01*
X17677000Y6064250D01*
X17677000Y4787458D01*
X17701403Y4664777D01*
X17749270Y4549215D01*
X17818763Y4445211D01*
X17907211Y4356763D01*
X18011215Y4287270D01*
X18126777Y4239403D01*
X18249458Y4215000D01*
X19526250Y4215000D01*
X19685000Y4373750D01*
X19685000Y6223000D01*
X19939000Y6223000D01*
X19939000Y4373750D01*
X20097750Y4215000D01*
X21374542Y4215000D01*
X21497223Y4239403D01*
X21612785Y4287270D01*
X21716789Y4356763D01*
X21805237Y4445211D01*
X21874730Y4549215D01*
X21922597Y4664777D01*
X21947000Y4787458D01*
X21947000Y6064250D01*
X21840767Y6170483D01*
X22754194Y6170483D01*
X22829776Y5758667D01*
X22983908Y5369374D01*
X23210719Y5017433D01*
X23501569Y4716249D01*
X23845380Y4477294D01*
X24229057Y4309670D01*
X24637984Y4219761D01*
X25056588Y4210993D01*
X25468922Y4283698D01*
X25691213Y4369919D01*
X27751566Y2309566D01*
X27811182Y2260596D01*
X27870253Y2211030D01*
X27874096Y2208917D01*
X27877493Y2206127D01*
X27945526Y2169648D01*
X28013059Y2132522D01*
X28017242Y2131195D01*
X28021114Y2129119D01*
X28094893Y2106563D01*
X28168394Y2083247D01*
X28172758Y2082758D01*
X28176956Y2081474D01*
X28253716Y2073676D01*
X28330342Y2065081D01*
X28338913Y2065021D01*
X28339085Y2065004D01*
X28339245Y2065019D01*
X28342000Y2065000D01*
X35024000Y2065000D01*
X35100747Y2072525D01*
X35177600Y2079249D01*
X35181814Y2080473D01*
X35186186Y2080902D01*
X35260081Y2103212D01*
X35334092Y2124715D01*
X35337986Y2126734D01*
X35342194Y2128004D01*
X35410311Y2164223D01*
X35478774Y2199710D01*
X35482207Y2202451D01*
X35486082Y2204511D01*
X35545866Y2253269D01*
X35606133Y2301380D01*
X35612238Y2307400D01*
X35612370Y2307508D01*
X35612471Y2307631D01*
X35614434Y2309566D01*
X35966796Y2661928D01*
X37424000Y2661928D01*
X37525121Y2669992D01*
X37689833Y2721000D01*
X38043710Y2721000D01*
X38063106Y2658366D01*
X38161900Y2508441D01*
X38298550Y2391975D01*
X38462237Y2318190D01*
X38640000Y2292928D01*
X40140000Y2292928D01*
X40241121Y2300992D01*
X40412634Y2354106D01*
X40562559Y2452900D01*
X40637217Y2540497D01*
X40646763Y2526211D01*
X40735211Y2437763D01*
X40839215Y2368270D01*
X40954777Y2320403D01*
X41077458Y2296000D01*
X41604250Y2296000D01*
X41763000Y2454750D01*
X41763000Y3429000D01*
X42017000Y3429000D01*
X42017000Y2454750D01*
X42175750Y2296000D01*
X42702542Y2296000D01*
X42825223Y2320403D01*
X42940785Y2368270D01*
X43044789Y2437763D01*
X43133237Y2526211D01*
X43202730Y2630215D01*
X43250597Y2745777D01*
X43275000Y2868458D01*
X43275000Y3270250D01*
X43116250Y3429000D01*
X42017000Y3429000D01*
X41763000Y3429000D01*
X41743000Y3429000D01*
X41743000Y3683000D01*
X41763000Y3683000D01*
X41763000Y4657250D01*
X42017000Y4657250D01*
X42017000Y3683000D01*
X43116250Y3683000D01*
X43275000Y3841750D01*
X43275000Y4243542D01*
X43250597Y4366223D01*
X43202730Y4481785D01*
X43133237Y4585789D01*
X43044789Y4674237D01*
X42940785Y4743730D01*
X42825223Y4791597D01*
X42702542Y4816000D01*
X42175750Y4816000D01*
X42017000Y4657250D01*
X41763000Y4657250D01*
X41604250Y4816000D01*
X41077458Y4816000D01*
X40954777Y4791597D01*
X40839215Y4743730D01*
X40735211Y4674237D01*
X40646763Y4585789D01*
X40638227Y4573015D01*
X40618100Y4603559D01*
X40481450Y4720025D01*
X40317763Y4793810D01*
X40140000Y4819072D01*
X38640000Y4819072D01*
X38538879Y4811008D01*
X38367366Y4757894D01*
X38217441Y4659100D01*
X38100975Y4522450D01*
X38062072Y4436146D01*
X38062072Y4800000D01*
X38054008Y4901121D01*
X38000894Y5072634D01*
X37918689Y5197384D01*
X37986730Y5299215D01*
X38034597Y5414777D01*
X38059000Y5537458D01*
X38059000Y6064250D01*
X37900250Y6223000D01*
X36551000Y6223000D01*
X36551000Y6203000D01*
X36297000Y6203000D01*
X36297000Y6223000D01*
X34947750Y6223000D01*
X34789000Y6064250D01*
X34789000Y5537458D01*
X34813403Y5414777D01*
X34861270Y5299215D01*
X34930763Y5195211D01*
X34930780Y5195194D01*
X34884975Y5141450D01*
X34811190Y4977763D01*
X34785928Y4800000D01*
X34785928Y3842796D01*
X34678132Y3735000D01*
X28687868Y3735000D01*
X26872935Y5549933D01*
X26927652Y5672829D01*
X27016580Y6064250D01*
X28489000Y6064250D01*
X28489000Y4387458D01*
X28513403Y4264777D01*
X28561270Y4149215D01*
X28630763Y4045211D01*
X28719211Y3956763D01*
X28823215Y3887270D01*
X28938777Y3839403D01*
X29061458Y3815000D01*
X29838250Y3815000D01*
X29997000Y3973750D01*
X29997000Y6223000D01*
X30251000Y6223000D01*
X30251000Y3973750D01*
X30409750Y3815000D01*
X31186542Y3815000D01*
X31309223Y3839403D01*
X31424785Y3887270D01*
X31528789Y3956763D01*
X31617237Y4045211D01*
X31686730Y4149215D01*
X31734597Y4264777D01*
X31759000Y4387458D01*
X31759000Y6064250D01*
X31600250Y6223000D01*
X30251000Y6223000D01*
X29997000Y6223000D01*
X28647750Y6223000D01*
X28489000Y6064250D01*
X27016580Y6064250D01*
X27020413Y6081119D01*
X27027091Y6559348D01*
X26945766Y6970069D01*
X26786214Y7357171D01*
X26554512Y7705911D01*
X26259485Y8003005D01*
X25912371Y8237136D01*
X25732988Y8312542D01*
X28489000Y8312542D01*
X28489000Y6635750D01*
X28647750Y6477000D01*
X29997000Y6477000D01*
X29997000Y8726250D01*
X30251000Y8726250D01*
X30251000Y6477000D01*
X31600250Y6477000D01*
X31759000Y6635750D01*
X31759000Y8312542D01*
X31734597Y8435223D01*
X31686730Y8550785D01*
X31617237Y8654789D01*
X31528789Y8743237D01*
X31424785Y8812730D01*
X31309223Y8860597D01*
X31186542Y8885000D01*
X30409750Y8885000D01*
X30251000Y8726250D01*
X29997000Y8726250D01*
X29838250Y8885000D01*
X29061458Y8885000D01*
X28938777Y8860597D01*
X28823215Y8812730D01*
X28719211Y8743237D01*
X28630763Y8654789D01*
X28561270Y8550785D01*
X28513403Y8435223D01*
X28489000Y8312542D01*
X25732988Y8312542D01*
X25526391Y8399387D01*
X25116248Y8483578D01*
X24697563Y8486501D01*
X24286284Y8408045D01*
X23898077Y8251199D01*
X23547728Y8021937D01*
X23248582Y7728992D01*
X23012033Y7383521D01*
X22847091Y6998683D01*
X22760040Y6589138D01*
X22754194Y6170483D01*
X21840767Y6170483D01*
X21788250Y6223000D01*
X19939000Y6223000D01*
X19685000Y6223000D01*
X17835750Y6223000D01*
X17677000Y6064250D01*
X15581151Y6064250D01*
X15606902Y6392824D01*
X15557334Y6810451D01*
X15427243Y7210383D01*
X15269214Y7506038D01*
X14953653Y7662048D01*
X13641605Y6350000D01*
X13282395Y6350000D01*
X11970347Y7662048D01*
X11654786Y7506038D01*
X11463980Y7131255D01*
X11349956Y6726449D01*
X11317098Y6307176D01*
X456000Y6307176D01*
X456000Y7912542D01*
X6247000Y7912542D01*
X6247000Y6635750D01*
X6405750Y6477000D01*
X8255000Y6477000D01*
X8255000Y8326250D01*
X8509000Y8326250D01*
X8509000Y6477000D01*
X10358250Y6477000D01*
X10517000Y6635750D01*
X10517000Y7841653D01*
X12149952Y7841653D01*
X13462000Y6529605D01*
X14774048Y7841653D01*
X14739002Y7912542D01*
X17677000Y7912542D01*
X17677000Y6635750D01*
X17835750Y6477000D01*
X19685000Y6477000D01*
X19685000Y8326250D01*
X19939000Y8326250D01*
X19939000Y6477000D01*
X21788250Y6477000D01*
X21947000Y6635750D01*
X21947000Y7912542D01*
X21922597Y8035223D01*
X21874730Y8150785D01*
X21805237Y8254789D01*
X21716789Y8343237D01*
X21612785Y8412730D01*
X21497223Y8460597D01*
X21374542Y8485000D01*
X20097750Y8485000D01*
X19939000Y8326250D01*
X19685000Y8326250D01*
X19526250Y8485000D01*
X18249458Y8485000D01*
X18126777Y8460597D01*
X18011215Y8412730D01*
X17907211Y8343237D01*
X17818763Y8254789D01*
X17749270Y8150785D01*
X17701403Y8035223D01*
X17677000Y7912542D01*
X14739002Y7912542D01*
X14618038Y8157214D01*
X14243255Y8348020D01*
X13838449Y8462044D01*
X13419176Y8494902D01*
X13001549Y8445334D01*
X12601617Y8315243D01*
X12305962Y8157214D01*
X12149952Y7841653D01*
X10517000Y7841653D01*
X10517000Y7912542D01*
X10492597Y8035223D01*
X10444730Y8150785D01*
X10375237Y8254789D01*
X10286789Y8343237D01*
X10182785Y8412730D01*
X10067223Y8460597D01*
X9944542Y8485000D01*
X8667750Y8485000D01*
X8509000Y8326250D01*
X8255000Y8326250D01*
X8096250Y8485000D01*
X6819458Y8485000D01*
X6696777Y8460597D01*
X6581215Y8412730D01*
X6477211Y8343237D01*
X6388763Y8254789D01*
X6319270Y8150785D01*
X6271403Y8035223D01*
X6247000Y7912542D01*
X456000Y7912542D01*
X456000Y12668250D01*
X11081000Y12668250D01*
X11081000Y12266458D01*
X11105403Y12143777D01*
X11153270Y12028215D01*
X11222763Y11924211D01*
X11311211Y11835763D01*
X11415215Y11766270D01*
X11530777Y11718403D01*
X11653458Y11694000D01*
X12180250Y11694000D01*
X12339000Y11852750D01*
X12339000Y12827000D01*
X11239750Y12827000D01*
X11081000Y12668250D01*
X456000Y12668250D01*
X456000Y28373542D01*
X10319000Y28373542D01*
X10319000Y27971750D01*
X10477750Y27813000D01*
X11577000Y27813000D01*
X11577000Y28787250D01*
X11418250Y28946000D01*
X10891458Y28946000D01*
X10768777Y28921597D01*
X10653215Y28873730D01*
X10549211Y28804237D01*
X10460763Y28715789D01*
X10391270Y28611785D01*
X10343403Y28496223D01*
X10319000Y28373542D01*
X456000Y28373542D01*
X456000Y30956250D01*
X10339000Y30956250D01*
X10339000Y30554458D01*
X10363403Y30431777D01*
X10411270Y30316215D01*
X10480763Y30212211D01*
X10569211Y30123763D01*
X10673215Y30054270D01*
X10788777Y30006403D01*
X10911458Y29982000D01*
X11438250Y29982000D01*
X11597000Y30140750D01*
X11597000Y31115000D01*
X10497750Y31115000D01*
X10339000Y30956250D01*
X456000Y30956250D01*
X456000Y40014536D01*
X1649164Y40014536D01*
X1698620Y39745072D01*
X1799474Y39490345D01*
X1947883Y39260058D01*
X2138196Y39062984D01*
X2363163Y38906628D01*
X2614215Y38796946D01*
X2881789Y38738116D01*
X3155695Y38732378D01*
X3425499Y38779952D01*
X3680923Y38879025D01*
X3912240Y39025823D01*
X4110639Y39214755D01*
X4169448Y39298122D01*
X4234747Y39304525D01*
X4311600Y39311249D01*
X4315814Y39312473D01*
X4320186Y39312902D01*
X4394081Y39335212D01*
X4468092Y39356715D01*
X4471986Y39358734D01*
X4476194Y39360004D01*
X4544311Y39396223D01*
X4612774Y39431710D01*
X4616207Y39434451D01*
X4620082Y39436511D01*
X4679866Y39485269D01*
X4740133Y39533380D01*
X4746238Y39539400D01*
X4746370Y39539508D01*
X4746471Y39539631D01*
X4748434Y39541566D01*
X5574796Y40367928D01*
X6432000Y40367928D01*
X6533121Y40375992D01*
X6704634Y40429106D01*
X6854559Y40527900D01*
X6971025Y40664550D01*
X7033498Y40803142D01*
X7055106Y40733366D01*
X7153900Y40583441D01*
X7290550Y40466975D01*
X7454237Y40393190D01*
X7632000Y40367928D01*
X9132000Y40367928D01*
X9233121Y40375992D01*
X9404634Y40429106D01*
X9554559Y40527900D01*
X9653783Y40644320D01*
X9693900Y40583441D01*
X9830550Y40466975D01*
X9994237Y40393190D01*
X10107000Y40377165D01*
X10107000Y40118294D01*
X10090879Y40117008D01*
X9919366Y40063894D01*
X9769441Y39965100D01*
X9652975Y39828450D01*
X9579190Y39664763D01*
X9553928Y39487000D01*
X9553928Y38237000D01*
X9561992Y38135879D01*
X9615106Y37964366D01*
X9713900Y37814441D01*
X9850550Y37697975D01*
X10014237Y37624190D01*
X10192000Y37598928D01*
X11692000Y37598928D01*
X11793121Y37606992D01*
X11964634Y37660106D01*
X12114559Y37758900D01*
X12191225Y37848852D01*
X12213900Y37814441D01*
X12350550Y37697975D01*
X12514237Y37624190D01*
X12692000Y37598928D01*
X14192000Y37598928D01*
X14293121Y37606992D01*
X14464634Y37660106D01*
X14614559Y37758900D01*
X14731025Y37895550D01*
X14739797Y37915011D01*
X20894011Y37915011D01*
X20970758Y37922536D01*
X21047611Y37929260D01*
X21051825Y37930484D01*
X21056197Y37930913D01*
X21130092Y37953223D01*
X21204103Y37974726D01*
X21207997Y37976745D01*
X21212205Y37978015D01*
X21280322Y38014234D01*
X21348785Y38049721D01*
X21352218Y38052462D01*
X21356093Y38054522D01*
X21415877Y38103280D01*
X21476144Y38151391D01*
X21482249Y38157411D01*
X21482381Y38157519D01*
X21482482Y38157642D01*
X21484445Y38159577D01*
X22521434Y39196566D01*
X22570404Y39256182D01*
X22619970Y39315253D01*
X22622083Y39319096D01*
X22624873Y39322493D01*
X22661352Y39390526D01*
X22698478Y39458059D01*
X22699805Y39462242D01*
X22701881Y39466114D01*
X22724437Y39539893D01*
X22734796Y39572547D01*
X22901000Y39548928D01*
X23501000Y39548928D01*
X23602121Y39556992D01*
X23773634Y39610106D01*
X23923559Y39708900D01*
X24040025Y39845550D01*
X24113810Y40009237D01*
X24139072Y40187000D01*
X24139072Y40567000D01*
X24473968Y40567000D01*
X24501106Y40479366D01*
X24599900Y40329441D01*
X24736550Y40212975D01*
X24900237Y40139190D01*
X25078000Y40113928D01*
X26578000Y40113928D01*
X26679121Y40121992D01*
X26850634Y40175106D01*
X27000559Y40273900D01*
X27117025Y40410550D01*
X27179498Y40549142D01*
X27201106Y40479366D01*
X27299900Y40329441D01*
X27436550Y40212975D01*
X27600237Y40139190D01*
X27778000Y40113928D01*
X29278000Y40113928D01*
X29379121Y40121992D01*
X29550634Y40175106D01*
X29700559Y40273900D01*
X29817025Y40410550D01*
X29887548Y40567000D01*
X30061968Y40567000D01*
X30089106Y40479366D01*
X30187900Y40329441D01*
X30324550Y40212975D01*
X30488237Y40139190D01*
X30658414Y40115006D01*
X30493366Y40063894D01*
X30343441Y39965100D01*
X30226975Y39828450D01*
X30153190Y39664763D01*
X30127928Y39487000D01*
X30127928Y38237000D01*
X30135992Y38135879D01*
X30189106Y37964366D01*
X30287900Y37814441D01*
X30424550Y37697975D01*
X30588237Y37624190D01*
X30766000Y37598928D01*
X32266000Y37598928D01*
X32367121Y37606992D01*
X32538634Y37660106D01*
X32688559Y37758900D01*
X32765225Y37848852D01*
X32787900Y37814441D01*
X32924550Y37697975D01*
X33088237Y37624190D01*
X33266000Y37598928D01*
X34766000Y37598928D01*
X34867121Y37606992D01*
X35038634Y37660106D01*
X35188559Y37758900D01*
X35305025Y37895550D01*
X35364279Y38027000D01*
X35584165Y38027000D01*
X35884611Y37726554D01*
X35944200Y37677606D01*
X36003298Y37628018D01*
X36007145Y37625903D01*
X36010538Y37623116D01*
X36078516Y37586667D01*
X36146104Y37549510D01*
X36150289Y37548182D01*
X36154158Y37546108D01*
X36227906Y37523561D01*
X36301439Y37500235D01*
X36305803Y37499745D01*
X36310001Y37498462D01*
X36386716Y37490669D01*
X36463387Y37482069D01*
X36471969Y37482009D01*
X36472130Y37481993D01*
X36472280Y37482007D01*
X36475045Y37481988D01*
X38454955Y37481988D01*
X38531702Y37489513D01*
X38608555Y37496237D01*
X38612769Y37497461D01*
X38617141Y37497890D01*
X38691036Y37520200D01*
X38765047Y37541703D01*
X38768941Y37543722D01*
X38773149Y37544992D01*
X38841266Y37581211D01*
X38909729Y37616698D01*
X38913162Y37619439D01*
X38917037Y37621499D01*
X38976821Y37670257D01*
X39037088Y37718368D01*
X39043193Y37724388D01*
X39043325Y37724496D01*
X39043426Y37724619D01*
X39045389Y37726554D01*
X39500834Y38181999D01*
X39904999Y38181999D01*
X39981746Y38189524D01*
X40058599Y38196248D01*
X40062813Y38197472D01*
X40067185Y38197901D01*
X40141080Y38220211D01*
X40215091Y38241714D01*
X40218985Y38243733D01*
X40223193Y38245003D01*
X40291310Y38281222D01*
X40359773Y38316709D01*
X40363206Y38319450D01*
X40367081Y38321510D01*
X40426865Y38370268D01*
X40487132Y38418379D01*
X40493237Y38424399D01*
X40493369Y38424507D01*
X40493470Y38424630D01*
X40495433Y38426565D01*
X40595434Y38526566D01*
X40644404Y38586182D01*
X40693970Y38645253D01*
X40696083Y38649096D01*
X40698873Y38652493D01*
X40735352Y38720526D01*
X40772478Y38788059D01*
X40773805Y38792242D01*
X40775881Y38796114D01*
X40798437Y38869893D01*
X40808796Y38902547D01*
X40975000Y38878928D01*
X41575000Y38878928D01*
X41676121Y38886992D01*
X41847634Y38940106D01*
X41997559Y39038900D01*
X42114025Y39175550D01*
X42187810Y39339237D01*
X42204545Y39457000D01*
X45722132Y39457000D01*
X51997000Y33182132D01*
X51997000Y32770887D01*
X51862000Y32790072D01*
X51262000Y32790072D01*
X51160879Y32782008D01*
X50989366Y32728894D01*
X50930067Y32689819D01*
X50892785Y32714730D01*
X50777223Y32762597D01*
X50654542Y32787000D01*
X50577750Y32787000D01*
X50419000Y32628250D01*
X50419000Y31529000D01*
X50439000Y31529000D01*
X50439000Y31275000D01*
X50419000Y31275000D01*
X50419000Y31255000D01*
X50165000Y31255000D01*
X50165000Y31275000D01*
X50145000Y31275000D01*
X50145000Y31529000D01*
X50165000Y31529000D01*
X50165000Y32628250D01*
X50006250Y32787000D01*
X49929458Y32787000D01*
X49857000Y32772587D01*
X49857000Y32802746D01*
X49849471Y32879538D01*
X49842751Y32956346D01*
X49841527Y32960560D01*
X49841098Y32964932D01*
X49818792Y33038813D01*
X49797285Y33112839D01*
X49795266Y33116735D01*
X49793996Y33120940D01*
X49757766Y33189078D01*
X49722289Y33257520D01*
X49719551Y33260950D01*
X49717489Y33264828D01*
X49668728Y33324615D01*
X49620620Y33384880D01*
X49614599Y33390985D01*
X49614492Y33391116D01*
X49614371Y33391216D01*
X49612434Y33393180D01*
X45981191Y37024423D01*
X45921575Y37073393D01*
X45862504Y37122959D01*
X45858661Y37125072D01*
X45855264Y37127862D01*
X45787231Y37164341D01*
X45719698Y37201467D01*
X45715515Y37202794D01*
X45711643Y37204870D01*
X45637864Y37227426D01*
X45564363Y37250742D01*
X45559999Y37251231D01*
X45555801Y37252515D01*
X45479041Y37260313D01*
X45402415Y37268908D01*
X45393844Y37268968D01*
X45393672Y37268985D01*
X45393512Y37268970D01*
X45390757Y37268989D01*
X40371989Y37268989D01*
X40295242Y37261464D01*
X40218389Y37254740D01*
X40214175Y37253516D01*
X40209803Y37253087D01*
X40135908Y37230777D01*
X40061897Y37209274D01*
X40058003Y37207255D01*
X40053795Y37205985D01*
X39985658Y37169756D01*
X39917216Y37134279D01*
X39913785Y37131540D01*
X39909907Y37129478D01*
X39850101Y37080702D01*
X39789856Y37032609D01*
X39783751Y37026589D01*
X39783619Y37026481D01*
X39783518Y37026358D01*
X39781555Y37024423D01*
X39414566Y36657434D01*
X39370154Y36603367D01*
X39333620Y36649133D01*
X39327600Y36655238D01*
X39327492Y36655370D01*
X39327369Y36655471D01*
X39325434Y36657434D01*
X38958445Y37024423D01*
X38898829Y37073393D01*
X38839758Y37122959D01*
X38835915Y37125072D01*
X38832518Y37127862D01*
X38764485Y37164341D01*
X38696952Y37201467D01*
X38692769Y37202794D01*
X38688897Y37204870D01*
X38615118Y37227426D01*
X38541617Y37250742D01*
X38537253Y37251231D01*
X38533055Y37252515D01*
X38456295Y37260313D01*
X38379669Y37268908D01*
X38371098Y37268968D01*
X38370926Y37268985D01*
X38370766Y37268970D01*
X38368011Y37268989D01*
X36039989Y37268989D01*
X35963197Y37261460D01*
X35886389Y37254740D01*
X35882175Y37253516D01*
X35877803Y37253087D01*
X35803922Y37230781D01*
X35729896Y37209274D01*
X35726000Y37207255D01*
X35721795Y37205985D01*
X35653657Y37169755D01*
X35585215Y37134278D01*
X35581785Y37131540D01*
X35577907Y37129478D01*
X35518120Y37080717D01*
X35457855Y37032609D01*
X35451750Y37026588D01*
X35451619Y37026481D01*
X35451519Y37026360D01*
X35449555Y37024423D01*
X35129966Y36704834D01*
X35107450Y36724025D01*
X34943763Y36797810D01*
X34766000Y36823072D01*
X33266000Y36823072D01*
X33164879Y36815008D01*
X32993366Y36761894D01*
X32843441Y36663100D01*
X32766775Y36573148D01*
X32744100Y36607559D01*
X32607450Y36724025D01*
X32443763Y36797810D01*
X32266000Y36823072D01*
X30766000Y36823072D01*
X30664879Y36815008D01*
X30493366Y36761894D01*
X30343441Y36663100D01*
X30226975Y36526450D01*
X30167721Y36395000D01*
X29882032Y36395000D01*
X29854894Y36482634D01*
X29756100Y36632559D01*
X29619450Y36749025D01*
X29455763Y36822810D01*
X29278000Y36848072D01*
X27778000Y36848072D01*
X27676879Y36840008D01*
X27505366Y36786894D01*
X27355441Y36688100D01*
X27238975Y36551450D01*
X27176502Y36412858D01*
X27154894Y36482634D01*
X27056100Y36632559D01*
X26919450Y36749025D01*
X26755763Y36822810D01*
X26578000Y36848072D01*
X25620796Y36848072D01*
X25268434Y37200434D01*
X25208818Y37249404D01*
X25149747Y37298970D01*
X25145904Y37301083D01*
X25142507Y37303873D01*
X25074474Y37340352D01*
X25006941Y37377478D01*
X25002758Y37378805D01*
X24998886Y37380881D01*
X24925107Y37403437D01*
X24851606Y37426753D01*
X24847242Y37427242D01*
X24843044Y37428526D01*
X24766284Y37436324D01*
X24689658Y37444919D01*
X24681087Y37444979D01*
X24680915Y37444996D01*
X24680755Y37444981D01*
X24678000Y37445000D01*
X24470051Y37445000D01*
X24431819Y37476405D01*
X24372748Y37525971D01*
X24368905Y37528084D01*
X24365508Y37530874D01*
X24297475Y37567353D01*
X24229942Y37604479D01*
X24225759Y37605806D01*
X24221887Y37607882D01*
X24148108Y37630438D01*
X24074607Y37653754D01*
X24070243Y37654243D01*
X24066045Y37655527D01*
X23989285Y37663325D01*
X23912659Y37671920D01*
X23904088Y37671980D01*
X23903916Y37671997D01*
X23903756Y37671982D01*
X23901001Y37672001D01*
X22500999Y37672001D01*
X22424207Y37664472D01*
X22347399Y37657752D01*
X22343185Y37656528D01*
X22338813Y37656099D01*
X22264932Y37633793D01*
X22190906Y37612286D01*
X22187010Y37610267D01*
X22182805Y37608997D01*
X22114667Y37572767D01*
X22046225Y37537290D01*
X22042795Y37534552D01*
X22038917Y37532490D01*
X21979130Y37483729D01*
X21918865Y37435621D01*
X21912760Y37429600D01*
X21912629Y37429493D01*
X21912529Y37429372D01*
X21910565Y37427435D01*
X21414366Y36931236D01*
X21358366Y36913894D01*
X21301528Y36876440D01*
X21175718Y36933152D01*
X20681435Y37427435D01*
X20621819Y37476405D01*
X20562748Y37525971D01*
X20558905Y37528084D01*
X20555508Y37530874D01*
X20487475Y37567353D01*
X20419942Y37604479D01*
X20415759Y37605806D01*
X20411887Y37607882D01*
X20338108Y37630438D01*
X20264607Y37653754D01*
X20260243Y37654243D01*
X20256045Y37655527D01*
X20179285Y37663325D01*
X20102659Y37671920D01*
X20094088Y37671980D01*
X20093916Y37671997D01*
X20093756Y37671982D01*
X20091001Y37672001D01*
X18690999Y37672001D01*
X18614252Y37664476D01*
X18537399Y37657752D01*
X18533185Y37656528D01*
X18528813Y37656099D01*
X18454918Y37633789D01*
X18380907Y37612286D01*
X18377013Y37610267D01*
X18372805Y37608997D01*
X18304688Y37572778D01*
X18236225Y37537291D01*
X18232792Y37534550D01*
X18228917Y37532490D01*
X18169133Y37483732D01*
X18108866Y37435621D01*
X18102761Y37429601D01*
X18102629Y37429493D01*
X18102528Y37429370D01*
X18100565Y37427435D01*
X17270130Y36597000D01*
X15392290Y36597000D01*
X15372894Y36659634D01*
X15274100Y36809559D01*
X15137450Y36926025D01*
X14973763Y36999810D01*
X14796000Y37025072D01*
X13296000Y37025072D01*
X13194879Y37017008D01*
X13023366Y36963894D01*
X12873441Y36865100D01*
X12796775Y36775148D01*
X12774100Y36809559D01*
X12637450Y36926025D01*
X12473763Y36999810D01*
X12296000Y37025072D01*
X10796000Y37025072D01*
X10694879Y37017008D01*
X10523366Y36963894D01*
X10373441Y36865100D01*
X10256975Y36728450D01*
X10183190Y36564763D01*
X10157928Y36387000D01*
X10157928Y35137000D01*
X10165992Y35035879D01*
X10219106Y34864366D01*
X10317900Y34714441D01*
X10413876Y34632641D01*
X10273441Y34540100D01*
X10156975Y34403450D01*
X10149511Y34386891D01*
X10118100Y34434559D01*
X9981450Y34551025D01*
X9817763Y34624810D01*
X9640000Y34650072D01*
X8140000Y34650072D01*
X8038879Y34642008D01*
X7867366Y34588894D01*
X7717441Y34490100D01*
X7600975Y34353450D01*
X7538502Y34214858D01*
X7516894Y34284634D01*
X7418100Y34434559D01*
X7281450Y34551025D01*
X7117763Y34624810D01*
X6940000Y34650072D01*
X5708425Y34650072D01*
X4716064Y35642434D01*
X4656475Y35691382D01*
X4597377Y35740970D01*
X4593530Y35743085D01*
X4590137Y35745872D01*
X4522124Y35782341D01*
X4454571Y35819478D01*
X4450390Y35820804D01*
X4446517Y35822881D01*
X4372723Y35845441D01*
X4299236Y35868753D01*
X4294872Y35869242D01*
X4290674Y35870526D01*
X4213914Y35878324D01*
X4173263Y35882884D01*
X4135835Y35939217D01*
X3942790Y36133615D01*
X3715662Y36286815D01*
X3463103Y36392981D01*
X3194733Y36448069D01*
X2920774Y36449982D01*
X2651661Y36398646D01*
X2397644Y36296016D01*
X2168399Y36146003D01*
X1972658Y35954319D01*
X1817877Y35728266D01*
X1709950Y35476454D01*
X1652989Y35208476D01*
X1649164Y34934536D01*
X1698620Y34665072D01*
X1799474Y34410345D01*
X1947883Y34180058D01*
X2138196Y33982984D01*
X2363163Y33826628D01*
X2614215Y33716946D01*
X2881789Y33658116D01*
X3155695Y33652378D01*
X3425499Y33699952D01*
X3680923Y33799025D01*
X3912240Y33945823D01*
X3983284Y34013477D01*
X4801928Y33194833D01*
X4801928Y32712000D01*
X4809992Y32610879D01*
X4863106Y32439366D01*
X4961900Y32289441D01*
X5098550Y32172975D01*
X5262237Y32099190D01*
X5440000Y32073928D01*
X6940000Y32073928D01*
X7041121Y32081992D01*
X7212634Y32135106D01*
X7362559Y32233900D01*
X7479025Y32370550D01*
X7541498Y32509142D01*
X7563106Y32439366D01*
X7661900Y32289441D01*
X7798550Y32172975D01*
X7962237Y32099190D01*
X8140000Y32073928D01*
X9640000Y32073928D01*
X9741121Y32081992D01*
X9912634Y32135106D01*
X10062559Y32233900D01*
X10179025Y32370550D01*
X10186489Y32387109D01*
X10217900Y32339441D01*
X10354550Y32222975D01*
X10426481Y32190551D01*
X10411270Y32167785D01*
X10363403Y32052223D01*
X10339000Y31929542D01*
X10339000Y31527750D01*
X10497750Y31369000D01*
X11597000Y31369000D01*
X11597000Y31389000D01*
X11851000Y31389000D01*
X11851000Y31369000D01*
X11871000Y31369000D01*
X11871000Y31115000D01*
X11851000Y31115000D01*
X11851000Y30140750D01*
X12009750Y29982000D01*
X12536542Y29982000D01*
X12659223Y30006403D01*
X12774785Y30054270D01*
X12878789Y30123763D01*
X12967237Y30212211D01*
X12975773Y30224985D01*
X12995900Y30194441D01*
X13132550Y30077975D01*
X13296237Y30004190D01*
X13474000Y29978928D01*
X14974000Y29978928D01*
X15075121Y29986992D01*
X15246634Y30040106D01*
X15396559Y30138900D01*
X15513025Y30275550D01*
X15586810Y30439237D01*
X15612072Y30617000D01*
X15612072Y30702250D01*
X30131000Y30702250D01*
X30131000Y30300458D01*
X30155403Y30177777D01*
X30203270Y30062215D01*
X30272763Y29958211D01*
X30361211Y29869763D01*
X30465215Y29800270D01*
X30580777Y29752403D01*
X30703458Y29728000D01*
X31230250Y29728000D01*
X31389000Y29886750D01*
X31389000Y30861000D01*
X30289750Y30861000D01*
X30131000Y30702250D01*
X15612072Y30702250D01*
X15612072Y31867000D01*
X15604008Y31968121D01*
X15602730Y31972250D01*
X19229000Y31972250D01*
X19229000Y31570458D01*
X19253403Y31447777D01*
X19301270Y31332215D01*
X19370763Y31228211D01*
X19459211Y31139763D01*
X19563215Y31070270D01*
X19678777Y31022403D01*
X19801458Y30998000D01*
X20328250Y30998000D01*
X20487000Y31156750D01*
X20487000Y32131000D01*
X19387750Y32131000D01*
X19229000Y31972250D01*
X15602730Y31972250D01*
X15550894Y32139634D01*
X15452100Y32289559D01*
X15377542Y32353105D01*
X15435025Y32420550D01*
X15505548Y32577000D01*
X17716000Y32577000D01*
X17792747Y32584525D01*
X17869600Y32591249D01*
X17873814Y32592473D01*
X17878186Y32592902D01*
X17952081Y32615212D01*
X18026092Y32636715D01*
X18029986Y32638734D01*
X18034194Y32640004D01*
X18102311Y32676223D01*
X18170774Y32711710D01*
X18174207Y32714451D01*
X18178082Y32716511D01*
X18237866Y32765269D01*
X18298133Y32813380D01*
X18304238Y32819400D01*
X18304370Y32819508D01*
X18304471Y32819631D01*
X18306434Y32821566D01*
X18430410Y32945542D01*
X19229000Y32945542D01*
X19229000Y32543750D01*
X19387750Y32385000D01*
X20487000Y32385000D01*
X20487000Y33359250D01*
X20328250Y33518000D01*
X19801458Y33518000D01*
X19678777Y33493597D01*
X19563215Y33445730D01*
X19459211Y33376237D01*
X19370763Y33287789D01*
X19301270Y33183785D01*
X19253403Y33068223D01*
X19229000Y32945542D01*
X18430410Y32945542D01*
X19633796Y34148928D01*
X19691000Y34148928D01*
X19792121Y34156992D01*
X19963634Y34210106D01*
X20020472Y34247560D01*
X20183237Y34174190D01*
X20361000Y34148928D01*
X20961000Y34148928D01*
X21062121Y34156992D01*
X21233634Y34210106D01*
X21290472Y34247560D01*
X21453237Y34174190D01*
X21631000Y34148928D01*
X22231000Y34148928D01*
X22279000Y34152756D01*
X22279000Y33514294D01*
X22262879Y33513008D01*
X22091366Y33459894D01*
X21941441Y33361100D01*
X21866783Y33273503D01*
X21857237Y33287789D01*
X21768789Y33376237D01*
X21664785Y33445730D01*
X21549223Y33493597D01*
X21426542Y33518000D01*
X20899750Y33518000D01*
X20741000Y33359250D01*
X20741000Y32385000D01*
X20761000Y32385000D01*
X20761000Y32131000D01*
X20741000Y32131000D01*
X20741000Y31156750D01*
X20899750Y30998000D01*
X21426542Y30998000D01*
X21549223Y31022403D01*
X21664785Y31070270D01*
X21768789Y31139763D01*
X21857237Y31228211D01*
X21865773Y31240985D01*
X21885900Y31210441D01*
X22022550Y31093975D01*
X22186237Y31020190D01*
X22364000Y30994928D01*
X23864000Y30994928D01*
X23965121Y31002992D01*
X24136634Y31056106D01*
X24286559Y31154900D01*
X24403025Y31291550D01*
X24462279Y31423000D01*
X26571975Y31423000D01*
X26753045Y31297153D01*
X27001941Y31188414D01*
X27267217Y31130089D01*
X27538770Y31124401D01*
X27806256Y31171566D01*
X28059487Y31269787D01*
X28288817Y31415325D01*
X28485511Y31602634D01*
X28642077Y31824581D01*
X28752552Y32072711D01*
X28812727Y32337574D01*
X28817059Y32647806D01*
X28764303Y32914246D01*
X28660799Y33165364D01*
X28510491Y33391596D01*
X28319104Y33584324D01*
X28093927Y33736208D01*
X27843537Y33841462D01*
X27577472Y33896077D01*
X27305867Y33897973D01*
X27039065Y33847078D01*
X26787230Y33745330D01*
X26559955Y33596605D01*
X26365895Y33406568D01*
X26212443Y33182457D01*
X26174102Y33093000D01*
X24460290Y33093000D01*
X24440894Y33155634D01*
X24342100Y33305559D01*
X24205450Y33422025D01*
X24041763Y33495810D01*
X23949000Y33508993D01*
X23949000Y34338750D01*
X24040025Y34445550D01*
X24113810Y34609237D01*
X24139072Y34787000D01*
X24139072Y35775000D01*
X24332132Y35775000D01*
X24439928Y35667204D01*
X24439928Y34910000D01*
X24447992Y34808879D01*
X24501106Y34637366D01*
X24599900Y34487441D01*
X24736550Y34370975D01*
X24900237Y34297190D01*
X25078000Y34271928D01*
X26578000Y34271928D01*
X26679121Y34279992D01*
X26850634Y34333106D01*
X27000559Y34431900D01*
X27117025Y34568550D01*
X27179498Y34707142D01*
X27201106Y34637366D01*
X27299900Y34487441D01*
X27436550Y34370975D01*
X27600237Y34297190D01*
X27778000Y34271928D01*
X29278000Y34271928D01*
X29379121Y34279992D01*
X29550634Y34333106D01*
X29700559Y34431900D01*
X29817025Y34568550D01*
X29887548Y34725000D01*
X30169710Y34725000D01*
X30189106Y34662366D01*
X30287900Y34512441D01*
X30341527Y34466735D01*
X30243441Y34402100D01*
X30126975Y34265450D01*
X30053190Y34101763D01*
X30027928Y33924000D01*
X30027928Y32624000D01*
X30035992Y32522879D01*
X30089106Y32351366D01*
X30187900Y32201441D01*
X30324550Y32084975D01*
X30335164Y32080190D01*
X30272763Y32017789D01*
X30203270Y31913785D01*
X30155403Y31798223D01*
X30131000Y31675542D01*
X30131000Y31273750D01*
X30289750Y31115000D01*
X31389000Y31115000D01*
X31389000Y31135000D01*
X31643000Y31135000D01*
X31643000Y31115000D01*
X31663000Y31115000D01*
X31663000Y30861000D01*
X31643000Y30861000D01*
X31643000Y29886750D01*
X31801750Y29728000D01*
X32328542Y29728000D01*
X32451223Y29752403D01*
X32566785Y29800270D01*
X32670789Y29869763D01*
X32759237Y29958211D01*
X32767773Y29970985D01*
X32787900Y29940441D01*
X32924550Y29823975D01*
X33088237Y29750190D01*
X33266000Y29724928D01*
X34766000Y29724928D01*
X34867121Y29732992D01*
X35038634Y29786106D01*
X35188559Y29884900D01*
X35305025Y30021550D01*
X35378810Y30185237D01*
X35404072Y30363000D01*
X35404072Y31613000D01*
X35396008Y31714121D01*
X35394730Y31718250D01*
X37243000Y31718250D01*
X37243000Y31316458D01*
X37267403Y31193777D01*
X37315270Y31078215D01*
X37384763Y30974211D01*
X37473211Y30885763D01*
X37577215Y30816270D01*
X37692777Y30768403D01*
X37815458Y30744000D01*
X38342250Y30744000D01*
X38501000Y30902750D01*
X38501000Y31877000D01*
X37401750Y31877000D01*
X37243000Y31718250D01*
X35394730Y31718250D01*
X35342894Y31885634D01*
X35244100Y32035559D01*
X35190473Y32081265D01*
X35288559Y32145900D01*
X35405025Y32282550D01*
X35475548Y32439000D01*
X36322000Y32439000D01*
X36398747Y32446525D01*
X36475600Y32453249D01*
X36479814Y32454473D01*
X36484186Y32454902D01*
X36558081Y32477212D01*
X36632092Y32498715D01*
X36635986Y32500734D01*
X36640194Y32502004D01*
X36708311Y32538223D01*
X36776774Y32573710D01*
X36780207Y32576451D01*
X36784082Y32578511D01*
X36843866Y32627269D01*
X36904133Y32675380D01*
X36910238Y32681400D01*
X36910370Y32681508D01*
X36910471Y32681631D01*
X36912434Y32683566D01*
X36920410Y32691542D01*
X37243000Y32691542D01*
X37243000Y32289750D01*
X37401750Y32131000D01*
X38501000Y32131000D01*
X38501000Y33105250D01*
X38342250Y33264000D01*
X37815458Y33264000D01*
X37692777Y33239597D01*
X37577215Y33191730D01*
X37473211Y33122237D01*
X37384763Y33033789D01*
X37315270Y32929785D01*
X37267403Y32814223D01*
X37243000Y32691542D01*
X36920410Y32691542D01*
X37707796Y33478928D01*
X37765000Y33478928D01*
X37866121Y33486992D01*
X38037634Y33540106D01*
X38094472Y33577560D01*
X38257237Y33504190D01*
X38435000Y33478928D01*
X39035000Y33478928D01*
X39136121Y33486992D01*
X39307634Y33540106D01*
X39364472Y33577560D01*
X39527237Y33504190D01*
X39705000Y33478928D01*
X40305000Y33478928D01*
X40406121Y33486992D01*
X40440000Y33497484D01*
X40440000Y33267072D01*
X40378000Y33267072D01*
X40276879Y33259008D01*
X40105366Y33205894D01*
X39955441Y33107100D01*
X39880783Y33019503D01*
X39871237Y33033789D01*
X39782789Y33122237D01*
X39678785Y33191730D01*
X39563223Y33239597D01*
X39440542Y33264000D01*
X38913750Y33264000D01*
X38755000Y33105250D01*
X38755000Y32131000D01*
X38775000Y32131000D01*
X38775000Y31877000D01*
X38755000Y31877000D01*
X38755000Y30902750D01*
X38913750Y30744000D01*
X39440542Y30744000D01*
X39563223Y30768403D01*
X39678785Y30816270D01*
X39782789Y30885763D01*
X39871237Y30974211D01*
X39879773Y30986985D01*
X39899900Y30956441D01*
X40036550Y30839975D01*
X40200237Y30766190D01*
X40233886Y30761408D01*
X40081895Y30612568D01*
X39928443Y30388457D01*
X39821444Y30138808D01*
X39764972Y29873131D01*
X39761180Y29601545D01*
X39810211Y29334395D01*
X39910198Y29081856D01*
X40057333Y28853548D01*
X40246011Y28658166D01*
X40469045Y28503153D01*
X40717941Y28394414D01*
X40983217Y28336089D01*
X41254770Y28330401D01*
X41522256Y28377566D01*
X41775487Y28475787D01*
X42004817Y28621325D01*
X42201511Y28808634D01*
X42358077Y29030581D01*
X42468552Y29278711D01*
X42528727Y29543574D01*
X42533059Y29853806D01*
X42480303Y30120246D01*
X42376799Y30371364D01*
X42226491Y30597596D01*
X42053328Y30771972D01*
X42150634Y30802106D01*
X42300559Y30900900D01*
X42417025Y31037550D01*
X42452500Y31116250D01*
X45547000Y31116250D01*
X45547000Y30589458D01*
X45571403Y30466777D01*
X45619270Y30351215D01*
X45688763Y30247211D01*
X45777211Y30158763D01*
X45881215Y30089270D01*
X45996777Y30041403D01*
X46119458Y30017000D01*
X46196250Y30017000D01*
X46355000Y30175750D01*
X46355000Y31275000D01*
X45705750Y31275000D01*
X45547000Y31116250D01*
X42452500Y31116250D01*
X42490810Y31201237D01*
X42516072Y31379000D01*
X42516072Y32214542D01*
X45547000Y32214542D01*
X45547000Y31687750D01*
X45705750Y31529000D01*
X46355000Y31529000D01*
X46355000Y32628250D01*
X46196250Y32787000D01*
X46119458Y32787000D01*
X45996777Y32762597D01*
X45881215Y32714730D01*
X45777211Y32645237D01*
X45688763Y32556789D01*
X45619270Y32452785D01*
X45571403Y32337223D01*
X45547000Y32214542D01*
X42516072Y32214542D01*
X42516072Y32629000D01*
X42508008Y32730121D01*
X42454894Y32901634D01*
X42356100Y33051559D01*
X42219450Y33168025D01*
X42110000Y33217362D01*
X42110000Y33455000D01*
X42832352Y33455000D01*
X42851333Y33425548D01*
X43040011Y33230166D01*
X43263045Y33075153D01*
X43511941Y32966414D01*
X43777217Y32908089D01*
X44048770Y32902401D01*
X44316256Y32949566D01*
X44569487Y33047787D01*
X44798817Y33193325D01*
X44995511Y33380634D01*
X45152077Y33602581D01*
X45262552Y33850711D01*
X45322727Y34115574D01*
X45327059Y34425806D01*
X45274303Y34692246D01*
X45170799Y34943364D01*
X45020491Y35169596D01*
X44829104Y35362324D01*
X44603927Y35514208D01*
X44402240Y35598989D01*
X45044889Y35598989D01*
X47853806Y32790072D01*
X47452000Y32790072D01*
X47350879Y32782008D01*
X47179366Y32728894D01*
X47120067Y32689819D01*
X47082785Y32714730D01*
X46967223Y32762597D01*
X46844542Y32787000D01*
X46767750Y32787000D01*
X46609000Y32628250D01*
X46609000Y31529000D01*
X46629000Y31529000D01*
X46629000Y31275000D01*
X46609000Y31275000D01*
X46609000Y30175750D01*
X46767750Y30017000D01*
X46844542Y30017000D01*
X46948635Y30037706D01*
X46955212Y30015919D01*
X46976715Y29941908D01*
X46978734Y29938014D01*
X46980004Y29933806D01*
X47016223Y29865689D01*
X47051710Y29797226D01*
X47054451Y29793793D01*
X47056511Y29789918D01*
X47105269Y29730134D01*
X47153380Y29669867D01*
X47159400Y29663762D01*
X47159508Y29663630D01*
X47159631Y29663529D01*
X47161566Y29661566D01*
X47515792Y29307340D01*
X47514618Y29306716D01*
X47446176Y29271239D01*
X47442746Y29268501D01*
X47438868Y29266439D01*
X47379081Y29217678D01*
X47318816Y29169570D01*
X47312711Y29163549D01*
X47312580Y29163442D01*
X47312480Y29163321D01*
X47310516Y29161384D01*
X45891566Y27742434D01*
X45842596Y27682818D01*
X45793030Y27623747D01*
X45790917Y27619904D01*
X45788127Y27616507D01*
X45751648Y27548474D01*
X45714522Y27480941D01*
X45713195Y27476758D01*
X45711119Y27472886D01*
X45688563Y27399107D01*
X45665247Y27325606D01*
X45664758Y27321242D01*
X45663474Y27317044D01*
X45655676Y27240284D01*
X45647081Y27163658D01*
X45647021Y27155087D01*
X45647004Y27154915D01*
X45647019Y27154755D01*
X45647000Y27152000D01*
X45647000Y27098173D01*
X45642975Y27093450D01*
X45569190Y26929763D01*
X45543928Y26752000D01*
X45543928Y25252000D01*
X45551992Y25150879D01*
X45605106Y24979366D01*
X45703900Y24829441D01*
X45840550Y24712975D01*
X46004237Y24639190D01*
X46182000Y24613928D01*
X46333060Y24613928D01*
X46082132Y24363000D01*
X42208287Y24363000D01*
X42205008Y24404121D01*
X42151894Y24575634D01*
X42053100Y24725559D01*
X41916450Y24842025D01*
X41752763Y24915810D01*
X41575000Y24941072D01*
X40975000Y24941072D01*
X40873879Y24933008D01*
X40702366Y24879894D01*
X40645528Y24842440D01*
X40482763Y24915810D01*
X40305000Y24941072D01*
X39705000Y24941072D01*
X39603879Y24933008D01*
X39432366Y24879894D01*
X39375528Y24842440D01*
X39212763Y24915810D01*
X39035000Y24941072D01*
X38435000Y24941072D01*
X38333879Y24933008D01*
X38162366Y24879894D01*
X38103067Y24840819D01*
X38065785Y24865730D01*
X37950223Y24913597D01*
X37827542Y24938000D01*
X37750750Y24938000D01*
X37592000Y24779250D01*
X37592000Y23655000D01*
X37612000Y23655000D01*
X37612000Y23401000D01*
X37592000Y23401000D01*
X37592000Y23381000D01*
X37338000Y23381000D01*
X37338000Y23401000D01*
X37318000Y23401000D01*
X37318000Y23655000D01*
X37338000Y23655000D01*
X37338000Y24779250D01*
X37179250Y24938000D01*
X37102458Y24938000D01*
X36979777Y24913597D01*
X36864215Y24865730D01*
X36760211Y24796237D01*
X36671763Y24707789D01*
X36602270Y24603785D01*
X36554403Y24488223D01*
X36530000Y24365542D01*
X36530000Y23813750D01*
X36688748Y23655002D01*
X36530000Y23655002D01*
X36530000Y23538868D01*
X34840434Y25228434D01*
X34780818Y25277404D01*
X34721747Y25326970D01*
X34717904Y25329083D01*
X34714507Y25331873D01*
X34646474Y25368352D01*
X34578941Y25405478D01*
X34574758Y25406805D01*
X34570886Y25408881D01*
X34497107Y25431437D01*
X34463613Y25442062D01*
X34426894Y25560634D01*
X34328100Y25710559D01*
X34191450Y25827025D01*
X34027763Y25900810D01*
X33935000Y25913993D01*
X33935000Y25948968D01*
X34022634Y25976106D01*
X34172559Y26074900D01*
X34289025Y26211550D01*
X34362810Y26375237D01*
X34388072Y26553000D01*
X34388072Y27803000D01*
X34380008Y27904121D01*
X34326894Y28075634D01*
X34228100Y28225559D01*
X34091450Y28342025D01*
X33927763Y28415810D01*
X33750000Y28441072D01*
X32250000Y28441072D01*
X32148879Y28433008D01*
X31977366Y28379894D01*
X31827441Y28281100D01*
X31752783Y28193503D01*
X31743237Y28207789D01*
X31654789Y28296237D01*
X31550785Y28365730D01*
X31435223Y28413597D01*
X31312542Y28438000D01*
X30785750Y28438000D01*
X30627000Y28279250D01*
X30627000Y27305000D01*
X30647000Y27305000D01*
X30647000Y27051000D01*
X30627000Y27051000D01*
X30627000Y27031000D01*
X30373000Y27031000D01*
X30373000Y27051000D01*
X29273750Y27051000D01*
X29115000Y26892250D01*
X29115000Y26490458D01*
X29139403Y26367777D01*
X29187270Y26252215D01*
X29256763Y26148211D01*
X29345211Y26059763D01*
X29449215Y25990270D01*
X29564777Y25942403D01*
X29647771Y25925894D01*
X29548879Y25918008D01*
X29377366Y25864894D01*
X29227441Y25766100D01*
X29110975Y25629450D01*
X29040452Y25473000D01*
X28866032Y25473000D01*
X28838894Y25560634D01*
X28740100Y25710559D01*
X28603450Y25827025D01*
X28439763Y25900810D01*
X28262000Y25926072D01*
X26762000Y25926072D01*
X26660879Y25918008D01*
X26489366Y25864894D01*
X26339441Y25766100D01*
X26222975Y25629450D01*
X26160502Y25490858D01*
X26138894Y25560634D01*
X26040100Y25710559D01*
X25903450Y25827025D01*
X25739763Y25900810D01*
X25562000Y25926072D01*
X24062000Y25926072D01*
X23960879Y25918008D01*
X23789366Y25864894D01*
X23639441Y25766100D01*
X23522975Y25629450D01*
X23449190Y25465763D01*
X23423928Y25288000D01*
X23423928Y24430796D01*
X23152228Y24159096D01*
X23101894Y24321634D01*
X23003100Y24471559D01*
X22866450Y24588025D01*
X22702763Y24661810D01*
X22525000Y24687072D01*
X21925000Y24687072D01*
X21823879Y24679008D01*
X21652366Y24625894D01*
X21595528Y24588440D01*
X21432763Y24661810D01*
X21255000Y24687072D01*
X20655000Y24687072D01*
X20553879Y24679008D01*
X20382366Y24625894D01*
X20325528Y24588440D01*
X20162763Y24661810D01*
X19985000Y24687072D01*
X19385000Y24687072D01*
X19283879Y24679008D01*
X19112366Y24625894D01*
X19053067Y24586819D01*
X19015785Y24611730D01*
X18900223Y24659597D01*
X18777542Y24684000D01*
X18700750Y24684000D01*
X18542000Y24525250D01*
X18542000Y23401000D01*
X18562000Y23401000D01*
X18562000Y23147000D01*
X18542000Y23147000D01*
X18542000Y23127000D01*
X18288000Y23127000D01*
X18288000Y23147000D01*
X17638750Y23147000D01*
X17611309Y23119559D01*
X16619326Y24111542D01*
X17480000Y24111542D01*
X17480000Y23559750D01*
X17638750Y23401000D01*
X18288000Y23401000D01*
X18288000Y24525250D01*
X18129250Y24684000D01*
X18052458Y24684000D01*
X17929777Y24659597D01*
X17814215Y24611730D01*
X17710211Y24542237D01*
X17621763Y24453789D01*
X17552270Y24349785D01*
X17504403Y24234223D01*
X17480000Y24111542D01*
X16619326Y24111542D01*
X15692072Y25038796D01*
X15692072Y25796000D01*
X15684008Y25897121D01*
X15630894Y26068634D01*
X15532100Y26218559D01*
X15395450Y26335025D01*
X15231763Y26408810D01*
X15061586Y26432994D01*
X15226634Y26484106D01*
X15376559Y26582900D01*
X15493025Y26719550D01*
X15566810Y26883237D01*
X15592072Y27061000D01*
X15592072Y27865542D01*
X29115000Y27865542D01*
X29115000Y27463750D01*
X29273750Y27305000D01*
X30373000Y27305000D01*
X30373000Y28279250D01*
X30214250Y28438000D01*
X29687458Y28438000D01*
X29564777Y28413597D01*
X29449215Y28365730D01*
X29345211Y28296237D01*
X29256763Y28207789D01*
X29187270Y28103785D01*
X29139403Y27988223D01*
X29115000Y27865542D01*
X15592072Y27865542D01*
X15592072Y28311000D01*
X15584008Y28412121D01*
X15530894Y28583634D01*
X15432100Y28733559D01*
X15295450Y28850025D01*
X15131763Y28923810D01*
X14954000Y28949072D01*
X13454000Y28949072D01*
X13352879Y28941008D01*
X13181366Y28887894D01*
X13031441Y28789100D01*
X12956783Y28701503D01*
X12947237Y28715789D01*
X12858789Y28804237D01*
X12754785Y28873730D01*
X12639223Y28921597D01*
X12516542Y28946000D01*
X11989750Y28946000D01*
X11831000Y28787250D01*
X11831000Y27813000D01*
X11851000Y27813000D01*
X11851000Y27559000D01*
X11831000Y27559000D01*
X11831000Y27539000D01*
X11577000Y27539000D01*
X11577000Y27559000D01*
X10477750Y27559000D01*
X10319000Y27400250D01*
X10319000Y26998458D01*
X10343403Y26875777D01*
X10391270Y26760215D01*
X10460763Y26656211D01*
X10549211Y26567763D01*
X10653215Y26498270D01*
X10768777Y26450403D01*
X10851771Y26433894D01*
X10752879Y26426008D01*
X10581366Y26372894D01*
X10431441Y26274100D01*
X10314975Y26137450D01*
X10289211Y26080294D01*
X10198100Y26218559D01*
X10061450Y26335025D01*
X9897763Y26408810D01*
X9720000Y26434072D01*
X8220000Y26434072D01*
X8118879Y26426008D01*
X7947366Y26372894D01*
X7797441Y26274100D01*
X7680975Y26137450D01*
X7618502Y25998858D01*
X7596894Y26068634D01*
X7498100Y26218559D01*
X7361450Y26335025D01*
X7197763Y26408810D01*
X7020000Y26434072D01*
X5520000Y26434072D01*
X5418879Y26426008D01*
X5247366Y26372894D01*
X5097441Y26274100D01*
X4980975Y26137450D01*
X4907190Y25973763D01*
X4881928Y25796000D01*
X4881928Y25112796D01*
X3505540Y23736408D01*
X3448733Y23748069D01*
X3174774Y23749982D01*
X2905661Y23698646D01*
X2651644Y23596016D01*
X2422399Y23446003D01*
X2226658Y23254319D01*
X2071877Y23028266D01*
X1963950Y22776454D01*
X1906989Y22508476D01*
X1903164Y22234536D01*
X1952620Y21965072D01*
X2053474Y21710345D01*
X2201883Y21480058D01*
X2392196Y21282984D01*
X2617163Y21126628D01*
X2868215Y21016946D01*
X3135789Y20958116D01*
X3409695Y20952378D01*
X3679499Y20999952D01*
X3934923Y21099025D01*
X4166240Y21245823D01*
X4364639Y21434755D01*
X4522561Y21658625D01*
X4633993Y21908905D01*
X4694690Y22176062D01*
X4699059Y22488983D01*
X4685968Y22555100D01*
X5988796Y23857928D01*
X7020000Y23857928D01*
X7121121Y23865992D01*
X7292634Y23919106D01*
X7442559Y24017900D01*
X7559025Y24154550D01*
X7621498Y24293142D01*
X7643106Y24223366D01*
X7741900Y24073441D01*
X7878550Y23956975D01*
X8042237Y23883190D01*
X8220000Y23857928D01*
X9720000Y23857928D01*
X9821121Y23865992D01*
X9992634Y23919106D01*
X10142559Y24017900D01*
X10259025Y24154550D01*
X10284789Y24211706D01*
X10375900Y24073441D01*
X10512550Y23956975D01*
X10676237Y23883190D01*
X10854000Y23857928D01*
X10869000Y23857928D01*
X10869000Y23608294D01*
X10852879Y23607008D01*
X10681366Y23553894D01*
X10531441Y23455100D01*
X10414975Y23318450D01*
X10341190Y23154763D01*
X10315928Y22977000D01*
X10315928Y21727000D01*
X10323992Y21625879D01*
X10377106Y21454366D01*
X10475900Y21304441D01*
X10612550Y21187975D01*
X10776237Y21114190D01*
X10954000Y21088928D01*
X12454000Y21088928D01*
X12555121Y21096992D01*
X12726634Y21150106D01*
X12876559Y21248900D01*
X12953225Y21338852D01*
X12975900Y21304441D01*
X13112550Y21187975D01*
X13276237Y21114190D01*
X13454000Y21088928D01*
X14954000Y21088928D01*
X15055121Y21096992D01*
X15226634Y21150106D01*
X15376559Y21248900D01*
X15493025Y21385550D01*
X15529621Y21466736D01*
X16765409Y20230948D01*
X16825025Y20181978D01*
X16884096Y20132412D01*
X16887939Y20130299D01*
X16891336Y20127509D01*
X16959369Y20091030D01*
X16989387Y20074528D01*
X16981491Y20068088D01*
X16921226Y20019980D01*
X16915121Y20013959D01*
X16914990Y20013852D01*
X16914890Y20013731D01*
X16912926Y20011794D01*
X16079966Y19178834D01*
X16057450Y19198025D01*
X15893763Y19271810D01*
X15716000Y19297072D01*
X14216000Y19297072D01*
X14114879Y19289008D01*
X13943366Y19235894D01*
X13793441Y19137100D01*
X13716775Y19047148D01*
X13694100Y19081559D01*
X13557450Y19198025D01*
X13393763Y19271810D01*
X13216000Y19297072D01*
X11716000Y19297072D01*
X11614879Y19289008D01*
X11443366Y19235894D01*
X11293441Y19137100D01*
X11176975Y19000450D01*
X11103190Y18836763D01*
X11077928Y18659000D01*
X11077928Y17409000D01*
X11085992Y17307879D01*
X11139106Y17136366D01*
X11237900Y16986441D01*
X11374550Y16869975D01*
X11538237Y16796190D01*
X11631000Y16783007D01*
X11631000Y16782072D01*
X11616000Y16782072D01*
X11514879Y16774008D01*
X11343366Y16720894D01*
X11193441Y16622100D01*
X11076975Y16485450D01*
X11051211Y16428294D01*
X10960100Y16566559D01*
X10823450Y16683025D01*
X10659763Y16756810D01*
X10482000Y16782072D01*
X8982000Y16782072D01*
X8880879Y16774008D01*
X8709366Y16720894D01*
X8559441Y16622100D01*
X8442975Y16485450D01*
X8380502Y16346858D01*
X8358894Y16416634D01*
X8260100Y16566559D01*
X8123450Y16683025D01*
X7959763Y16756810D01*
X7782000Y16782072D01*
X6282000Y16782072D01*
X6180879Y16774008D01*
X6009366Y16720894D01*
X5859441Y16622100D01*
X5742975Y16485450D01*
X5672452Y16329000D01*
X5425868Y16329000D01*
X4688047Y17066821D01*
X4694690Y17096062D01*
X4699059Y17408983D01*
X4645846Y17677731D01*
X4541446Y17931025D01*
X4389835Y18159217D01*
X4196790Y18353615D01*
X3969662Y18506815D01*
X3717103Y18612981D01*
X3448733Y18668069D01*
X3174774Y18669982D01*
X2905661Y18618646D01*
X2651644Y18516016D01*
X2422399Y18366003D01*
X2226658Y18174319D01*
X2071877Y17948266D01*
X1963950Y17696454D01*
X1906989Y17428476D01*
X1903164Y17154536D01*
X1952620Y16885072D01*
X2053474Y16630345D01*
X2201883Y16400058D01*
X2392196Y16202984D01*
X2617163Y16046628D01*
X2868215Y15936946D01*
X3135789Y15878116D01*
X3409695Y15872378D01*
X3504107Y15889025D01*
X4489566Y14903566D01*
X4549182Y14854596D01*
X4608253Y14805030D01*
X4612096Y14802917D01*
X4615493Y14800127D01*
X4683526Y14763648D01*
X4751059Y14726522D01*
X4755242Y14725195D01*
X4759114Y14723119D01*
X4832921Y14700554D01*
X4906394Y14677247D01*
X4910754Y14676758D01*
X4914957Y14675473D01*
X4991756Y14667672D01*
X5068342Y14659081D01*
X5076914Y14659021D01*
X5077086Y14659004D01*
X5077246Y14659019D01*
X5080000Y14659000D01*
X5677968Y14659000D01*
X5705106Y14571366D01*
X5803900Y14421441D01*
X5940550Y14304975D01*
X6104237Y14231190D01*
X6282000Y14205928D01*
X7782000Y14205928D01*
X7883121Y14213992D01*
X8054634Y14267106D01*
X8204559Y14365900D01*
X8321025Y14502550D01*
X8383498Y14641142D01*
X8405106Y14571366D01*
X8503900Y14421441D01*
X8640550Y14304975D01*
X8804237Y14231190D01*
X8982000Y14205928D01*
X10482000Y14205928D01*
X10583121Y14213992D01*
X10754634Y14267106D01*
X10904559Y14365900D01*
X11021025Y14502550D01*
X11046789Y14559706D01*
X11137900Y14421441D01*
X11274550Y14304975D01*
X11438237Y14231190D01*
X11614179Y14206187D01*
X11530777Y14189597D01*
X11415215Y14141730D01*
X11311211Y14072237D01*
X11222763Y13983789D01*
X11153270Y13879785D01*
X11105403Y13764223D01*
X11081000Y13641542D01*
X11081000Y13239750D01*
X11239750Y13081000D01*
X12339000Y13081000D01*
X12339000Y13101000D01*
X12593000Y13101000D01*
X12593000Y13081000D01*
X12613000Y13081000D01*
X12613000Y12827000D01*
X12593000Y12827000D01*
X12593000Y11852750D01*
X12751750Y11694000D01*
X13278542Y11694000D01*
X13401223Y11718403D01*
X13516785Y11766270D01*
X13620789Y11835763D01*
X13709237Y11924211D01*
X13717773Y11936985D01*
X13737900Y11906441D01*
X13874550Y11789975D01*
X14038237Y11716190D01*
X14216000Y11690928D01*
X15716000Y11690928D01*
X15817121Y11698992D01*
X15988634Y11752106D01*
X16138559Y11850900D01*
X16255025Y11987550D01*
X16328810Y12151237D01*
X16354072Y12329000D01*
X16354072Y13579000D01*
X16346008Y13680121D01*
X16292894Y13851634D01*
X16194100Y14001559D01*
X16057450Y14118025D01*
X15893763Y14191810D01*
X15801000Y14204993D01*
X15801000Y14205928D01*
X15816000Y14205928D01*
X15917121Y14213992D01*
X16088634Y14267106D01*
X16238559Y14365900D01*
X16355025Y14502550D01*
X16428810Y14666237D01*
X16454072Y14844000D01*
X16454072Y14954250D01*
X17939000Y14954250D01*
X17939000Y14552458D01*
X17963403Y14429777D01*
X18011270Y14314215D01*
X18080763Y14210211D01*
X18169211Y14121763D01*
X18273215Y14052270D01*
X18388777Y14004403D01*
X18511458Y13980000D01*
X19038250Y13980000D01*
X19197000Y14138750D01*
X19197000Y15113000D01*
X18097750Y15113000D01*
X17939000Y14954250D01*
X16454072Y14954250D01*
X16454072Y15601204D01*
X17594164Y16741296D01*
X17636900Y16676441D01*
X17773550Y16559975D01*
X17937237Y16486190D01*
X18115000Y16460928D01*
X18353363Y16460928D01*
X18273215Y16427730D01*
X18169211Y16358237D01*
X18080763Y16269789D01*
X18011270Y16165785D01*
X17963403Y16050223D01*
X17939000Y15927542D01*
X17939000Y15525750D01*
X18097750Y15367000D01*
X19197000Y15367000D01*
X19197000Y15387000D01*
X19451000Y15387000D01*
X19451000Y15367000D01*
X19471000Y15367000D01*
X19471000Y15113000D01*
X19451000Y15113000D01*
X19451000Y14138750D01*
X19609750Y13980000D01*
X20136542Y13980000D01*
X20259223Y14004403D01*
X20374785Y14052270D01*
X20478789Y14121763D01*
X20567237Y14210211D01*
X20575773Y14222985D01*
X20595900Y14192441D01*
X20732550Y14075975D01*
X20896237Y14002190D01*
X20989000Y13989007D01*
X20989000Y13279868D01*
X20777540Y13068408D01*
X20720733Y13080069D01*
X20446774Y13081982D01*
X20177661Y13030646D01*
X19923644Y12928016D01*
X19694399Y12778003D01*
X19498658Y12586319D01*
X19343877Y12360266D01*
X19235950Y12108454D01*
X19178989Y11840476D01*
X19175164Y11566536D01*
X19224620Y11297072D01*
X19325474Y11042345D01*
X19473883Y10812058D01*
X19664196Y10614984D01*
X19889163Y10458628D01*
X20140215Y10348946D01*
X20407789Y10290116D01*
X20681695Y10284378D01*
X20951499Y10331952D01*
X21206923Y10431025D01*
X21438240Y10577823D01*
X21636639Y10766755D01*
X21794561Y10990625D01*
X21905993Y11240905D01*
X21966690Y11508062D01*
X21971059Y11820983D01*
X21957968Y11887100D01*
X22414434Y12343566D01*
X22463404Y12403182D01*
X22512970Y12462253D01*
X22515083Y12466096D01*
X22517873Y12469493D01*
X22554352Y12537526D01*
X22591478Y12605059D01*
X22592805Y12609242D01*
X22594881Y12613114D01*
X22617437Y12686893D01*
X22640753Y12760394D01*
X22641242Y12764758D01*
X22642526Y12768956D01*
X22650324Y12845716D01*
X22658919Y12922342D01*
X22658979Y12930913D01*
X22658996Y12931085D01*
X22658981Y12931245D01*
X22659000Y12934000D01*
X22659000Y13430250D01*
X29115000Y13430250D01*
X29115000Y13028458D01*
X29139403Y12905777D01*
X29187270Y12790215D01*
X29256763Y12686211D01*
X29345211Y12597763D01*
X29449215Y12528270D01*
X29564777Y12480403D01*
X29687458Y12456000D01*
X30214250Y12456000D01*
X30373000Y12614750D01*
X30373000Y13589000D01*
X29273750Y13589000D01*
X29115000Y13430250D01*
X22659000Y13430250D01*
X22659000Y13983706D01*
X22675121Y13984992D01*
X22846634Y14038106D01*
X22996559Y14136900D01*
X23113025Y14273550D01*
X23186810Y14437237D01*
X23212072Y14615000D01*
X23212072Y15865000D01*
X23204008Y15966121D01*
X23150894Y16137634D01*
X23060000Y16275570D01*
X23060000Y16752827D01*
X23064025Y16757550D01*
X23137810Y16921237D01*
X23163072Y17099000D01*
X23163072Y18649000D01*
X23155008Y18750121D01*
X23144210Y18784989D01*
X23676143Y18784989D01*
X24231000Y18230132D01*
X24231000Y17537294D01*
X24214879Y17536008D01*
X24043366Y17482894D01*
X23893441Y17384100D01*
X23776975Y17247450D01*
X23703190Y17083763D01*
X23677928Y16906000D01*
X23677928Y15606000D01*
X23685992Y15504879D01*
X23739106Y15333366D01*
X23837900Y15183441D01*
X23974550Y15066975D01*
X24138237Y14993190D01*
X24316000Y14967928D01*
X25816000Y14967928D01*
X25917121Y14975992D01*
X26088634Y15029106D01*
X26238559Y15127900D01*
X26355025Y15264550D01*
X26417498Y15403142D01*
X26439106Y15333366D01*
X26537900Y15183441D01*
X26674550Y15066975D01*
X26838237Y14993190D01*
X27016000Y14967928D01*
X28516000Y14967928D01*
X28617121Y14975992D01*
X28788634Y15029106D01*
X28938559Y15127900D01*
X29055025Y15264550D01*
X29080789Y15321706D01*
X29171900Y15183441D01*
X29308550Y15066975D01*
X29472237Y14993190D01*
X29648179Y14968187D01*
X29564777Y14951597D01*
X29449215Y14903730D01*
X29345211Y14834237D01*
X29256763Y14745789D01*
X29187270Y14641785D01*
X29139403Y14526223D01*
X29115000Y14403542D01*
X29115000Y14001750D01*
X29273750Y13843000D01*
X30373000Y13843000D01*
X30373000Y13863000D01*
X30627000Y13863000D01*
X30627000Y13843000D01*
X30647000Y13843000D01*
X30647000Y13589000D01*
X30627000Y13589000D01*
X30627000Y12614750D01*
X30785750Y12456000D01*
X31312542Y12456000D01*
X31435223Y12480403D01*
X31550785Y12528270D01*
X31654789Y12597763D01*
X31743237Y12686211D01*
X31751773Y12698985D01*
X31771900Y12668441D01*
X31908550Y12551975D01*
X32072237Y12478190D01*
X32250000Y12452928D01*
X33750000Y12452928D01*
X33851121Y12460992D01*
X34022634Y12514106D01*
X34172559Y12612900D01*
X34272824Y12730542D01*
X37856000Y12730542D01*
X37856000Y12203750D01*
X38014750Y12045000D01*
X38989000Y12045000D01*
X38989000Y13144250D01*
X38830250Y13303000D01*
X38428458Y13303000D01*
X38305777Y13278597D01*
X38190215Y13230730D01*
X38086211Y13161237D01*
X37997763Y13072789D01*
X37928270Y12968785D01*
X37880403Y12853223D01*
X37856000Y12730542D01*
X34272824Y12730542D01*
X34289025Y12749550D01*
X34362810Y12913237D01*
X34388072Y13091000D01*
X34388072Y14341000D01*
X34380008Y14442121D01*
X34326894Y14613634D01*
X34228100Y14763559D01*
X34091450Y14880025D01*
X33927763Y14953810D01*
X33924667Y14954250D01*
X37243000Y14954250D01*
X37243000Y14552458D01*
X37267403Y14429777D01*
X37315270Y14314215D01*
X37384763Y14210211D01*
X37473211Y14121763D01*
X37577215Y14052270D01*
X37692777Y14004403D01*
X37815458Y13980000D01*
X38342250Y13980000D01*
X38501000Y14138750D01*
X38501000Y15113000D01*
X37401750Y15113000D01*
X37243000Y14954250D01*
X33924667Y14954250D01*
X33835000Y14966993D01*
X33835000Y14967928D01*
X33850000Y14967928D01*
X33951121Y14975992D01*
X34122634Y15029106D01*
X34272559Y15127900D01*
X34389025Y15264550D01*
X34459548Y15421000D01*
X36068000Y15421000D01*
X36144747Y15428525D01*
X36221600Y15435249D01*
X36225814Y15436473D01*
X36230186Y15436902D01*
X36304081Y15459212D01*
X36378092Y15480715D01*
X36381986Y15482734D01*
X36386194Y15484004D01*
X36454311Y15520223D01*
X36522774Y15555710D01*
X36526207Y15558451D01*
X36530082Y15560511D01*
X36589866Y15609269D01*
X36650133Y15657380D01*
X36656238Y15663400D01*
X36656370Y15663508D01*
X36656471Y15663631D01*
X36658434Y15665566D01*
X36920410Y15927542D01*
X37243000Y15927542D01*
X37243000Y15525750D01*
X37401750Y15367000D01*
X38501000Y15367000D01*
X38501000Y16341250D01*
X38342250Y16500000D01*
X37815458Y16500000D01*
X37692777Y16475597D01*
X37577215Y16427730D01*
X37473211Y16358237D01*
X37384763Y16269789D01*
X37315270Y16165785D01*
X37267403Y16050223D01*
X37243000Y15927542D01*
X36920410Y15927542D01*
X37707796Y16714928D01*
X37765000Y16714928D01*
X37866121Y16722992D01*
X38037634Y16776106D01*
X38094472Y16813560D01*
X38257237Y16740190D01*
X38435000Y16714928D01*
X39035000Y16714928D01*
X39136121Y16722992D01*
X39307634Y16776106D01*
X39364472Y16813560D01*
X39527237Y16740190D01*
X39705000Y16714928D01*
X40293000Y16714928D01*
X40293000Y16496294D01*
X40276879Y16495008D01*
X40105366Y16441894D01*
X39955441Y16343100D01*
X39880783Y16255503D01*
X39871237Y16269789D01*
X39782789Y16358237D01*
X39678785Y16427730D01*
X39563223Y16475597D01*
X39440542Y16500000D01*
X38913750Y16500000D01*
X38755000Y16341250D01*
X38755000Y15367000D01*
X38775000Y15367000D01*
X38775000Y15113000D01*
X38755000Y15113000D01*
X38755000Y14138750D01*
X38913750Y13980000D01*
X39440542Y13980000D01*
X39563223Y14004403D01*
X39678785Y14052270D01*
X39782789Y14121763D01*
X39871237Y14210211D01*
X39879773Y14222985D01*
X39899900Y14192441D01*
X40036550Y14075975D01*
X40200237Y14002190D01*
X40293000Y13989007D01*
X40293000Y12984844D01*
X40234237Y13072789D01*
X40145789Y13161237D01*
X40041785Y13230730D01*
X39926223Y13278597D01*
X39803542Y13303000D01*
X39401750Y13303000D01*
X39243000Y13144250D01*
X39243000Y12045000D01*
X39263000Y12045000D01*
X39263000Y11791000D01*
X39243000Y11791000D01*
X39243000Y11771000D01*
X38989000Y11771000D01*
X38989000Y11791000D01*
X38014750Y11791000D01*
X37856000Y11632250D01*
X37856000Y11105458D01*
X37880403Y10982777D01*
X37928270Y10867215D01*
X37997763Y10763211D01*
X38086211Y10674763D01*
X38098985Y10666227D01*
X38068441Y10646100D01*
X37951975Y10509450D01*
X37878190Y10345763D01*
X37852928Y10168000D01*
X37852928Y9864468D01*
X37765450Y9939025D01*
X37601763Y10012810D01*
X37424000Y10038072D01*
X35424000Y10038072D01*
X35322879Y10030008D01*
X35151366Y9976894D01*
X35001441Y9878100D01*
X34990088Y9864780D01*
X33342433Y11512435D01*
X33282817Y11561405D01*
X33223746Y11610971D01*
X33219903Y11613084D01*
X33216506Y11615874D01*
X33148473Y11652353D01*
X33080940Y11689479D01*
X33076757Y11690806D01*
X33072885Y11692882D01*
X32999106Y11715438D01*
X32925605Y11738754D01*
X32921241Y11739243D01*
X32917043Y11740527D01*
X32840283Y11748325D01*
X32763657Y11756920D01*
X32755086Y11756980D01*
X32754914Y11756997D01*
X32754754Y11756982D01*
X32751999Y11757001D01*
X27050166Y11757001D01*
X27051059Y11820983D01*
X26997846Y12089731D01*
X26893446Y12343025D01*
X26741835Y12571217D01*
X26548790Y12765615D01*
X26321662Y12918815D01*
X26069103Y13024981D01*
X25800733Y13080069D01*
X25526774Y13081982D01*
X25257661Y13030646D01*
X25003644Y12928016D01*
X24774399Y12778003D01*
X24578658Y12586319D01*
X24423877Y12360266D01*
X24315950Y12108454D01*
X24258989Y11840476D01*
X24255164Y11566536D01*
X24304620Y11297072D01*
X24405474Y11042345D01*
X24553883Y10812058D01*
X24744196Y10614984D01*
X24969163Y10458628D01*
X25220215Y10348946D01*
X25487789Y10290116D01*
X25761695Y10284378D01*
X25861573Y10301989D01*
X25885154Y10282619D01*
X25944252Y10233031D01*
X25948099Y10230916D01*
X25951492Y10228129D01*
X26019505Y10191660D01*
X26087058Y10154523D01*
X26091239Y10153197D01*
X26095112Y10151120D01*
X26168906Y10128560D01*
X26242393Y10105248D01*
X26246757Y10104759D01*
X26250955Y10103475D01*
X26327670Y10095682D01*
X26404341Y10087082D01*
X26412923Y10087022D01*
X26413084Y10087006D01*
X26413234Y10087020D01*
X26415999Y10087001D01*
X32406131Y10087001D01*
X34433566Y8059566D01*
X34493182Y8010596D01*
X34552253Y7961030D01*
X34556096Y7958917D01*
X34559493Y7956127D01*
X34627526Y7919648D01*
X34695059Y7882522D01*
X34699242Y7881195D01*
X34703114Y7879119D01*
X34776921Y7856554D01*
X34789716Y7852495D01*
X34793992Y7798879D01*
X34847106Y7627366D01*
X34929311Y7502616D01*
X34861270Y7400785D01*
X34813403Y7285223D01*
X34789000Y7162542D01*
X34789000Y6635750D01*
X34947750Y6477000D01*
X36297000Y6477000D01*
X36297000Y6497000D01*
X36551000Y6497000D01*
X36551000Y6477000D01*
X37900250Y6477000D01*
X38059000Y6635750D01*
X38059000Y7162542D01*
X38034597Y7285223D01*
X37986730Y7400785D01*
X37917237Y7504789D01*
X37917220Y7504806D01*
X37963025Y7558550D01*
X38036810Y7722237D01*
X38062072Y7900000D01*
X38062072Y8055000D01*
X38314574Y8055000D01*
X38491000Y8029928D01*
X39741000Y8029928D01*
X39842121Y8037992D01*
X40013634Y8091106D01*
X40163559Y8189900D01*
X40280025Y8326550D01*
X40353810Y8490237D01*
X40372214Y8619743D01*
X40377081Y8621212D01*
X40451092Y8642715D01*
X40454986Y8644734D01*
X40459194Y8646004D01*
X40527311Y8682223D01*
X40595774Y8717710D01*
X40599207Y8720451D01*
X40603082Y8722511D01*
X40662866Y8771269D01*
X40723133Y8819380D01*
X40729238Y8825400D01*
X40729370Y8825508D01*
X40729471Y8825631D01*
X40731434Y8827566D01*
X41718434Y9814566D01*
X41767404Y9874182D01*
X41816970Y9933253D01*
X41819083Y9937096D01*
X41821873Y9940493D01*
X41858352Y10008526D01*
X41895478Y10076059D01*
X41896805Y10080242D01*
X41898881Y10084114D01*
X41921437Y10157893D01*
X41944753Y10231394D01*
X41945242Y10235758D01*
X41946526Y10239956D01*
X41954324Y10316716D01*
X41962919Y10393342D01*
X41962979Y10401913D01*
X41962996Y10402085D01*
X41962981Y10402245D01*
X41963000Y10405000D01*
X41963000Y13983706D01*
X41979121Y13984992D01*
X42150634Y14038106D01*
X42300559Y14136900D01*
X42417025Y14273550D01*
X42478973Y14410978D01*
X42494747Y14412525D01*
X42571600Y14419249D01*
X42575814Y14420473D01*
X42580186Y14420902D01*
X42654081Y14443212D01*
X42728092Y14464715D01*
X42731986Y14466734D01*
X42736194Y14468004D01*
X42804311Y14504223D01*
X42872774Y14539710D01*
X42876207Y14542451D01*
X42880082Y14544511D01*
X42939866Y14593269D01*
X43000133Y14641380D01*
X43006238Y14647400D01*
X43006370Y14647508D01*
X43006471Y14647631D01*
X43008434Y14649566D01*
X44001492Y15642624D01*
X44031217Y15636089D01*
X44302770Y15630401D01*
X44570256Y15677566D01*
X44823487Y15775787D01*
X45052817Y15921325D01*
X45249511Y16108634D01*
X45406077Y16330581D01*
X45516552Y16578711D01*
X45576727Y16843574D01*
X45581059Y17153806D01*
X45528303Y17420246D01*
X45424799Y17671364D01*
X45274491Y17897596D01*
X45083104Y18090324D01*
X44898264Y18215000D01*
X47752000Y18215000D01*
X47828747Y18222525D01*
X47905600Y18229249D01*
X47909814Y18230473D01*
X47914186Y18230902D01*
X47988081Y18253212D01*
X48062092Y18274715D01*
X48065986Y18276734D01*
X48070194Y18278004D01*
X48138311Y18314223D01*
X48206774Y18349710D01*
X48210207Y18352451D01*
X48214082Y18354511D01*
X48273866Y18403269D01*
X48334133Y18451380D01*
X48340238Y18457400D01*
X48340370Y18457508D01*
X48340471Y18457631D01*
X48342434Y18459566D01*
X50191118Y20308250D01*
X52842000Y20308250D01*
X52842000Y19781458D01*
X52866403Y19658777D01*
X52914270Y19543215D01*
X52983763Y19439211D01*
X53072211Y19350763D01*
X53176215Y19281270D01*
X53291777Y19233403D01*
X53414458Y19209000D01*
X53816250Y19209000D01*
X53975000Y19367750D01*
X53975000Y20467000D01*
X54229000Y20467000D01*
X54229000Y19367750D01*
X54387750Y19209000D01*
X54789542Y19209000D01*
X54912223Y19233403D01*
X55027785Y19281270D01*
X55131789Y19350763D01*
X55220237Y19439211D01*
X55289730Y19543215D01*
X55337597Y19658777D01*
X55362000Y19781458D01*
X55362000Y20308250D01*
X55203250Y20467000D01*
X54229000Y20467000D01*
X53975000Y20467000D01*
X53000750Y20467000D01*
X52842000Y20308250D01*
X50191118Y20308250D01*
X52141868Y22259000D01*
X52845706Y22259000D01*
X52846992Y22242879D01*
X52900106Y22071366D01*
X52998900Y21921441D01*
X53086497Y21846783D01*
X53072211Y21837237D01*
X52983763Y21748789D01*
X52914270Y21644785D01*
X52866403Y21529223D01*
X52842000Y21406542D01*
X52842000Y20879750D01*
X53000750Y20721000D01*
X53975000Y20721000D01*
X53975000Y20741000D01*
X54229000Y20741000D01*
X54229000Y20721000D01*
X55203250Y20721000D01*
X55362000Y20879750D01*
X55362000Y21406542D01*
X55337597Y21529223D01*
X55289730Y21644785D01*
X55220237Y21748789D01*
X55131789Y21837237D01*
X55119015Y21845773D01*
X55149559Y21865900D01*
X55266025Y22002550D01*
X55339810Y22166237D01*
X55365072Y22344000D01*
X55365072Y23844000D01*
X55357008Y23945121D01*
X55303894Y24116634D01*
X55205100Y24266559D01*
X55068450Y24383025D01*
X54937000Y24442279D01*
X54937000Y24905827D01*
X54941025Y24910550D01*
X55014810Y25074237D01*
X55040072Y25252000D01*
X55040072Y26752000D01*
X55032008Y26853121D01*
X54978894Y27024634D01*
X54971445Y27035939D01*
X55388697Y27035939D01*
X56668509Y25756127D01*
X56668509Y22992716D01*
X56676034Y22915969D01*
X56682758Y22839116D01*
X56683982Y22834902D01*
X56684411Y22830530D01*
X56706721Y22756635D01*
X56728224Y22682624D01*
X56730243Y22678730D01*
X56731513Y22674522D01*
X56767732Y22606405D01*
X56803219Y22537942D01*
X56805960Y22534509D01*
X56808020Y22530634D01*
X56856778Y22470850D01*
X56904889Y22410583D01*
X56910909Y22404478D01*
X56911017Y22404346D01*
X56911140Y22404245D01*
X56913075Y22402282D01*
X58080851Y21234506D01*
X58086620Y21203072D01*
X58187474Y20948345D01*
X58335883Y20718058D01*
X58526196Y20520984D01*
X58751163Y20364628D01*
X59002215Y20254946D01*
X59269789Y20196116D01*
X59543695Y20190378D01*
X59813499Y20237952D01*
X60068923Y20337025D01*
X60300240Y20483823D01*
X60498639Y20672755D01*
X60656561Y20896625D01*
X60767993Y21146905D01*
X60828690Y21414062D01*
X60833059Y21726983D01*
X60779846Y21995731D01*
X60675446Y22249025D01*
X60523835Y22477217D01*
X60330790Y22671615D01*
X60103662Y22824815D01*
X59851103Y22930981D01*
X59582733Y22986069D01*
X59308774Y22987982D01*
X59039661Y22936646D01*
X58826550Y22850543D01*
X58338509Y23338584D01*
X58338509Y25795339D01*
X58526196Y25600984D01*
X58751163Y25444628D01*
X59002215Y25334946D01*
X59269789Y25276116D01*
X59543695Y25270378D01*
X59813499Y25317952D01*
X60068923Y25417025D01*
X60300240Y25563823D01*
X60498639Y25752755D01*
X60656561Y25976625D01*
X60767993Y26226905D01*
X60828690Y26494062D01*
X60833059Y26806983D01*
X60779846Y27075731D01*
X60675446Y27329025D01*
X60523835Y27557217D01*
X60330790Y27751615D01*
X60103662Y27904815D01*
X59851103Y28010981D01*
X59582733Y28066069D01*
X59308774Y28067982D01*
X59233286Y28053582D01*
X58427053Y28859815D01*
X58498697Y28931459D01*
X58526196Y28902984D01*
X58751163Y28746628D01*
X59002215Y28636946D01*
X59269789Y28578116D01*
X59543695Y28572378D01*
X59813499Y28619952D01*
X60068923Y28719025D01*
X60300240Y28865823D01*
X60498639Y29054755D01*
X60656561Y29278625D01*
X60767993Y29528905D01*
X60828690Y29796062D01*
X60833059Y30108983D01*
X60779846Y30377731D01*
X60675446Y30631025D01*
X60523835Y30859217D01*
X60330790Y31053615D01*
X60103662Y31206815D01*
X59851103Y31312981D01*
X59582733Y31368069D01*
X59308774Y31369982D01*
X59039661Y31318646D01*
X58785644Y31216016D01*
X58556399Y31066003D01*
X58360658Y30874319D01*
X58311411Y30802396D01*
X58281623Y30799475D01*
X58204770Y30792751D01*
X58200556Y30791527D01*
X58196184Y30791098D01*
X58122289Y30768788D01*
X58048278Y30747285D01*
X58044384Y30745266D01*
X58040176Y30743996D01*
X57972059Y30707777D01*
X57903596Y30672290D01*
X57900163Y30669549D01*
X57896288Y30667489D01*
X57854327Y30633267D01*
X57862484Y30705987D01*
X57862544Y30714569D01*
X57862560Y30714730D01*
X57862546Y30714880D01*
X57862565Y30717645D01*
X57862565Y33447105D01*
X58463435Y34047975D01*
X58526196Y33982984D01*
X58751163Y33826628D01*
X59002215Y33716946D01*
X59269789Y33658116D01*
X59543695Y33652378D01*
X59813499Y33699952D01*
X60068923Y33799025D01*
X60300240Y33945823D01*
X60498639Y34134755D01*
X60656561Y34358625D01*
X60767993Y34608905D01*
X60828690Y34876062D01*
X60833059Y35188983D01*
X60779846Y35457731D01*
X60675446Y35711025D01*
X60523835Y35939217D01*
X60330790Y36133615D01*
X60103662Y36286815D01*
X59851103Y36392981D01*
X59582733Y36448069D01*
X59308774Y36449982D01*
X59039661Y36398646D01*
X58785644Y36296016D01*
X58556399Y36146003D01*
X58360658Y35954319D01*
X58314564Y35887000D01*
X58286592Y35887000D01*
X58209800Y35879471D01*
X58132992Y35872751D01*
X58128778Y35871527D01*
X58124406Y35871098D01*
X58050525Y35848792D01*
X57976499Y35827285D01*
X57972603Y35825266D01*
X57968398Y35823996D01*
X57900299Y35787787D01*
X57831818Y35752290D01*
X57828385Y35749549D01*
X57824510Y35747489D01*
X57764726Y35698731D01*
X57704459Y35650620D01*
X57698354Y35644600D01*
X57698222Y35644492D01*
X57698121Y35644369D01*
X57696158Y35642434D01*
X56437131Y34383407D01*
X56388161Y34323791D01*
X56338595Y34264720D01*
X56336482Y34260877D01*
X56333692Y34257480D01*
X56297213Y34189447D01*
X56260087Y34121914D01*
X56258760Y34117731D01*
X56256684Y34113859D01*
X56234128Y34040080D01*
X56210812Y33966579D01*
X56210323Y33962215D01*
X56209039Y33958017D01*
X56201241Y33881257D01*
X56192646Y33804631D01*
X56192586Y33796060D01*
X56192569Y33795888D01*
X56192584Y33795728D01*
X56192565Y33792973D01*
X56192565Y31063513D01*
X55949477Y30820425D01*
X55037000Y30820425D01*
X55037000Y31116250D01*
X54878250Y31275000D01*
X54229000Y31275000D01*
X54229000Y31255000D01*
X53975000Y31255000D01*
X53975000Y31275000D01*
X53955000Y31275000D01*
X53955000Y31529000D01*
X53975000Y31529000D01*
X53975000Y32628250D01*
X54229000Y32628250D01*
X54229000Y31529000D01*
X54878250Y31529000D01*
X55037000Y31687750D01*
X55037000Y32214542D01*
X55012597Y32337223D01*
X54964730Y32452785D01*
X54895237Y32556789D01*
X54806789Y32645237D01*
X54702785Y32714730D01*
X54587223Y32762597D01*
X54464542Y32787000D01*
X54387750Y32787000D01*
X54229000Y32628250D01*
X53975000Y32628250D01*
X53816250Y32787000D01*
X53739458Y32787000D01*
X53667000Y32772587D01*
X53667000Y33528000D01*
X53659475Y33604747D01*
X53652751Y33681600D01*
X53651527Y33685814D01*
X53651098Y33690186D01*
X53628802Y33764034D01*
X53607286Y33838092D01*
X53605265Y33841991D01*
X53603996Y33846194D01*
X53567785Y33914296D01*
X53532290Y33982773D01*
X53529551Y33986204D01*
X53527489Y33990082D01*
X53478738Y34049858D01*
X53430621Y34110133D01*
X53424599Y34116239D01*
X53424492Y34116370D01*
X53424371Y34116470D01*
X53422434Y34118434D01*
X46658434Y40882434D01*
X46598818Y40931404D01*
X46539747Y40980970D01*
X46535904Y40983083D01*
X46532507Y40985873D01*
X46464474Y41022352D01*
X46396941Y41059478D01*
X46392758Y41060805D01*
X46388886Y41062881D01*
X46315107Y41085437D01*
X46241606Y41108753D01*
X46237242Y41109242D01*
X46233044Y41110526D01*
X46156284Y41118324D01*
X46079658Y41126919D01*
X46071087Y41126979D01*
X46070915Y41126996D01*
X46070755Y41126981D01*
X46068000Y41127000D01*
X42208287Y41127000D01*
X42205008Y41168121D01*
X42151894Y41339634D01*
X42053100Y41489559D01*
X41916450Y41606025D01*
X41752763Y41679810D01*
X41575000Y41705072D01*
X40975000Y41705072D01*
X40873879Y41697008D01*
X40702366Y41643894D01*
X40645528Y41606440D01*
X40482763Y41679810D01*
X40305000Y41705072D01*
X39705000Y41705072D01*
X39603879Y41697008D01*
X39432366Y41643894D01*
X39375528Y41606440D01*
X39212763Y41679810D01*
X39035000Y41705072D01*
X38435000Y41705072D01*
X38333879Y41697008D01*
X38162366Y41643894D01*
X38103067Y41604819D01*
X38065785Y41629730D01*
X37950223Y41677597D01*
X37827542Y41702000D01*
X37750750Y41702000D01*
X37592000Y41543250D01*
X37592000Y40419000D01*
X37612000Y40419000D01*
X37612000Y40165000D01*
X37592000Y40165000D01*
X37592000Y40145000D01*
X37338000Y40145000D01*
X37338000Y40165000D01*
X37318000Y40165000D01*
X37318000Y40419000D01*
X37338000Y40419000D01*
X37338000Y41543250D01*
X37179250Y41702000D01*
X37102458Y41702000D01*
X36979777Y41677597D01*
X36864215Y41629730D01*
X36760211Y41560237D01*
X36671763Y41471789D01*
X36602270Y41367785D01*
X36554403Y41252223D01*
X36530000Y41129542D01*
X36530000Y40577750D01*
X36688748Y40419002D01*
X36543865Y40419002D01*
X36020432Y40942434D01*
X35960816Y40991404D01*
X35901745Y41040970D01*
X35897902Y41043083D01*
X35894505Y41045873D01*
X35826472Y41082352D01*
X35758939Y41119478D01*
X35754756Y41120805D01*
X35750884Y41122881D01*
X35677105Y41145437D01*
X35642432Y41156436D01*
X35504072Y41294796D01*
X35504072Y42052000D01*
X35496008Y42153121D01*
X35442894Y42324634D01*
X35344100Y42474559D01*
X35207450Y42591025D01*
X35043763Y42664810D01*
X34866000Y42690072D01*
X34851000Y42690072D01*
X34851000Y42939706D01*
X34867121Y42940992D01*
X35038634Y42994106D01*
X35188559Y43092900D01*
X35305025Y43229550D01*
X35378810Y43393237D01*
X35404072Y43571000D01*
X35404072Y44821000D01*
X35396008Y44922121D01*
X35342894Y45093634D01*
X35244100Y45243559D01*
X35107450Y45360025D01*
X34943763Y45433810D01*
X34766000Y45459072D01*
X33266000Y45459072D01*
X33164879Y45451008D01*
X32993366Y45397894D01*
X32843441Y45299100D01*
X32768783Y45211503D01*
X32759237Y45225789D01*
X32670789Y45314237D01*
X32566785Y45383730D01*
X32451223Y45431597D01*
X32328542Y45456000D01*
X31801750Y45456000D01*
X31643000Y45297250D01*
X31643000Y44323000D01*
X31663000Y44323000D01*
X31663000Y44069000D01*
X31643000Y44069000D01*
X31643000Y43094750D01*
X31801750Y42936000D01*
X32328542Y42936000D01*
X32451223Y42960403D01*
X32566785Y43008270D01*
X32670789Y43077763D01*
X32759237Y43166211D01*
X32767773Y43178985D01*
X32787900Y43148441D01*
X32924550Y43031975D01*
X33088237Y42958190D01*
X33181000Y42945007D01*
X33181000Y42656032D01*
X33093366Y42628894D01*
X32943441Y42530100D01*
X32826975Y42393450D01*
X32764502Y42254858D01*
X32742894Y42324634D01*
X32644100Y42474559D01*
X32507450Y42591025D01*
X32343763Y42664810D01*
X32166000Y42690072D01*
X30666000Y42690072D01*
X30564879Y42682008D01*
X30393366Y42628894D01*
X30243441Y42530100D01*
X30126975Y42393450D01*
X30056452Y42237000D01*
X29882032Y42237000D01*
X29854894Y42324634D01*
X29756100Y42474559D01*
X29619450Y42591025D01*
X29455763Y42664810D01*
X29278000Y42690072D01*
X27778000Y42690072D01*
X27676879Y42682008D01*
X27505366Y42628894D01*
X27355441Y42530100D01*
X27238975Y42393450D01*
X27176502Y42254858D01*
X27154894Y42324634D01*
X27056100Y42474559D01*
X26919450Y42591025D01*
X26755763Y42664810D01*
X26578000Y42690072D01*
X25078000Y42690072D01*
X24976879Y42682008D01*
X24805366Y42628894D01*
X24655441Y42530100D01*
X24538975Y42393450D01*
X24468452Y42237000D01*
X23888238Y42237000D01*
X23842450Y42276025D01*
X23678763Y42349810D01*
X23501000Y42375072D01*
X22901000Y42375072D01*
X22799879Y42367008D01*
X22628366Y42313894D01*
X22571528Y42276440D01*
X22408763Y42349810D01*
X22231000Y42375072D01*
X21631000Y42375072D01*
X21529879Y42367008D01*
X21358366Y42313894D01*
X21301528Y42276440D01*
X21138763Y42349810D01*
X20961000Y42375072D01*
X20361000Y42375072D01*
X20259879Y42367008D01*
X20088366Y42313894D01*
X20029067Y42274819D01*
X19991785Y42299730D01*
X19876223Y42347597D01*
X19753542Y42372000D01*
X19676750Y42372000D01*
X19518000Y42213250D01*
X19518000Y41089000D01*
X19538000Y41089000D01*
X19538000Y40835000D01*
X19518000Y40835000D01*
X19518000Y40815000D01*
X19264000Y40815000D01*
X19264000Y40835000D01*
X18614750Y40835000D01*
X18456000Y40676250D01*
X18456000Y40285022D01*
X17310109Y40285022D01*
X16173476Y41421655D01*
X16167001Y41429595D01*
X16118884Y41489870D01*
X16112862Y41495976D01*
X16112755Y41496107D01*
X16112634Y41496207D01*
X16110697Y41498171D01*
X15809326Y41799542D01*
X18456000Y41799542D01*
X18456000Y41247750D01*
X18614750Y41089000D01*
X19264000Y41089000D01*
X19264000Y42213250D01*
X19105250Y42372000D01*
X19028458Y42372000D01*
X18905777Y42347597D01*
X18790215Y42299730D01*
X18686211Y42230237D01*
X18597763Y42141789D01*
X18528270Y42037785D01*
X18480403Y41922223D01*
X18456000Y41799542D01*
X15809326Y41799542D01*
X15362434Y42246434D01*
X15302818Y42295404D01*
X15243747Y42344970D01*
X15239904Y42347083D01*
X15236507Y42349873D01*
X15168474Y42386352D01*
X15100941Y42423478D01*
X15096758Y42424805D01*
X15092886Y42426881D01*
X15019107Y42449437D01*
X14985613Y42460062D01*
X14948894Y42578634D01*
X14850100Y42728559D01*
X14713450Y42845025D01*
X14549763Y42918810D01*
X14531000Y42921476D01*
X14531000Y42939706D01*
X14547121Y42940992D01*
X14718634Y42994106D01*
X14868559Y43092900D01*
X14985025Y43229550D01*
X15058810Y43393237D01*
X15084072Y43571000D01*
X15084072Y43910250D01*
X30131000Y43910250D01*
X30131000Y43508458D01*
X30155403Y43385777D01*
X30203270Y43270215D01*
X30272763Y43166211D01*
X30361211Y43077763D01*
X30465215Y43008270D01*
X30580777Y42960403D01*
X30703458Y42936000D01*
X31230250Y42936000D01*
X31389000Y43094750D01*
X31389000Y44069000D01*
X30289750Y44069000D01*
X30131000Y43910250D01*
X15084072Y43910250D01*
X15084072Y44821000D01*
X15079085Y44883542D01*
X30131000Y44883542D01*
X30131000Y44481750D01*
X30289750Y44323000D01*
X31389000Y44323000D01*
X31389000Y45297250D01*
X31230250Y45456000D01*
X30703458Y45456000D01*
X30580777Y45431597D01*
X30465215Y45383730D01*
X30361211Y45314237D01*
X30272763Y45225789D01*
X30203270Y45121785D01*
X30155403Y45006223D01*
X30131000Y44883542D01*
X15079085Y44883542D01*
X15076008Y44922121D01*
X15022894Y45093634D01*
X14924100Y45243559D01*
X14787450Y45360025D01*
X14623763Y45433810D01*
X14446000Y45459072D01*
X12946000Y45459072D01*
X12844879Y45451008D01*
X12673366Y45397894D01*
X12523441Y45299100D01*
X12448783Y45211503D01*
X12439237Y45225789D01*
X12350789Y45314237D01*
X12246785Y45383730D01*
X12131223Y45431597D01*
X12008542Y45456000D01*
X11481750Y45456000D01*
X11323000Y45297250D01*
X11323000Y44323000D01*
X11343000Y44323000D01*
X11343000Y44069000D01*
X11323000Y44069000D01*
X11323000Y44049000D01*
X11069000Y44049000D01*
X11069000Y44069000D01*
X9969750Y44069000D01*
X9811000Y43910250D01*
X9811000Y43508458D01*
X9835403Y43385777D01*
X9883270Y43270215D01*
X9952763Y43166211D01*
X10041211Y43077763D01*
X10145215Y43008270D01*
X10260777Y42960403D01*
X10342878Y42944072D01*
X10172000Y42944072D01*
X10070879Y42936008D01*
X9899366Y42882894D01*
X9749441Y42784100D01*
X9650217Y42667680D01*
X9610100Y42728559D01*
X9473450Y42845025D01*
X9309763Y42918810D01*
X9132000Y42944072D01*
X7632000Y42944072D01*
X7530879Y42936008D01*
X7359366Y42882894D01*
X7209441Y42784100D01*
X7092975Y42647450D01*
X7030502Y42508858D01*
X7008894Y42578634D01*
X6910100Y42728559D01*
X6773450Y42845025D01*
X6609763Y42918810D01*
X6432000Y42944072D01*
X4932000Y42944072D01*
X4830879Y42936008D01*
X4659366Y42882894D01*
X4509441Y42784100D01*
X4392975Y42647450D01*
X4319190Y42483763D01*
X4293928Y42306000D01*
X4293928Y41448796D01*
X4000566Y41155434D01*
X3942790Y41213615D01*
X3715662Y41366815D01*
X3463103Y41472981D01*
X3194733Y41528069D01*
X2920774Y41529982D01*
X2651661Y41478646D01*
X2397644Y41376016D01*
X2168399Y41226003D01*
X1972658Y41034319D01*
X1817877Y40808266D01*
X1709950Y40556454D01*
X1652989Y40288476D01*
X1649164Y40014536D01*
X456000Y40014536D01*
X456000Y44883542D01*
X9811000Y44883542D01*
X9811000Y44481750D01*
X9969750Y44323000D01*
X11069000Y44323000D01*
X11069000Y45297250D01*
X10910250Y45456000D01*
X10383458Y45456000D01*
X10260777Y45431597D01*
X10145215Y45383730D01*
X10041211Y45314237D01*
X9952763Y45225789D01*
X9883270Y45121785D01*
X9835403Y45006223D01*
X9811000Y44883542D01*
X456000Y44883542D01*
X456000Y46026000D01*
X63806000Y46026000D01*
X63806000Y14968428D01*
G36*
X49775366Y27346236D02*
X49719366Y27328894D01*
X49660067Y27289819D01*
X49622785Y27314730D01*
X49507223Y27362597D01*
X49384542Y27387000D01*
X49307750Y27387000D01*
X49149000Y27228250D01*
X49149000Y26129000D01*
X49169000Y26129000D01*
X49169000Y25875000D01*
X49149000Y25875000D01*
X49149000Y24775750D01*
X49307750Y24617000D01*
X49384542Y24617000D01*
X49507223Y24641403D01*
X49622785Y24689270D01*
X49655155Y24710899D01*
X49814237Y24639190D01*
X49992000Y24613928D01*
X50143060Y24613928D01*
X46207984Y20678852D01*
X40545852Y20678852D01*
X40469060Y20671323D01*
X40392252Y20664603D01*
X40388038Y20663379D01*
X40383666Y20662950D01*
X40309785Y20640644D01*
X40235759Y20619137D01*
X40231863Y20617118D01*
X40227658Y20615848D01*
X40159520Y20579618D01*
X40091078Y20544141D01*
X40087648Y20541403D01*
X40083770Y20539341D01*
X40023983Y20490580D01*
X39963718Y20442472D01*
X39957613Y20436451D01*
X39957482Y20436344D01*
X39957382Y20436223D01*
X39955418Y20434286D01*
X39414566Y19893434D01*
X39370154Y19839367D01*
X39333620Y19885133D01*
X39327600Y19891238D01*
X39327492Y19891370D01*
X39327369Y19891471D01*
X39325434Y19893434D01*
X38822969Y20395899D01*
X38813760Y20403463D01*
X38831102Y20408699D01*
X38905113Y20430202D01*
X38909007Y20432221D01*
X38913215Y20433491D01*
X38981332Y20469710D01*
X39049795Y20505197D01*
X39053228Y20507938D01*
X39057103Y20509998D01*
X39116887Y20558756D01*
X39177154Y20606867D01*
X39183259Y20612887D01*
X39183391Y20612995D01*
X39183492Y20613118D01*
X39185455Y20615053D01*
X40595434Y22025032D01*
X40644382Y22084621D01*
X40693970Y22143719D01*
X40696085Y22147566D01*
X40698872Y22150959D01*
X40713369Y22177995D01*
X40797237Y22140190D01*
X40975000Y22114928D01*
X41575000Y22114928D01*
X41676121Y22122992D01*
X41847634Y22176106D01*
X41997559Y22274900D01*
X42114025Y22411550D01*
X42187810Y22575237D01*
X42204545Y22693000D01*
X46428000Y22693000D01*
X46504747Y22700525D01*
X46581600Y22707249D01*
X46585814Y22708473D01*
X46590186Y22708902D01*
X46664081Y22731212D01*
X46738092Y22752715D01*
X46741986Y22754734D01*
X46746194Y22756004D01*
X46814311Y22792223D01*
X46882774Y22827710D01*
X46886207Y22830451D01*
X46890082Y22832511D01*
X46949866Y22881269D01*
X47010133Y22929380D01*
X47016238Y22935400D01*
X47016370Y22935508D01*
X47016471Y22935631D01*
X47018434Y22937566D01*
X48342434Y24261566D01*
X48391404Y24321182D01*
X48440970Y24380253D01*
X48443083Y24384096D01*
X48445873Y24387493D01*
X48482352Y24455526D01*
X48519478Y24523059D01*
X48520805Y24527242D01*
X48522881Y24531114D01*
X48545437Y24604893D01*
X48555817Y24637616D01*
X48659458Y24617000D01*
X48736250Y24617000D01*
X48895000Y24775750D01*
X48895000Y25875000D01*
X48875000Y25875000D01*
X48875000Y26129000D01*
X48895000Y26129000D01*
X48895000Y27228250D01*
X48736250Y27387000D01*
X48659458Y27387000D01*
X48536777Y27362597D01*
X48421215Y27314730D01*
X48388845Y27293101D01*
X48229763Y27364810D01*
X48052000Y27390072D01*
X47900940Y27390072D01*
X48246818Y27735950D01*
X50165080Y27735950D01*
X49775366Y27346236D01*
X49775366Y27346236D01*
G37*
X49775366Y27346236D02*
X49719366Y27328894D01*
X49660067Y27289819D01*
X49622785Y27314730D01*
X49507223Y27362597D01*
X49384542Y27387000D01*
X49307750Y27387000D01*
X49149000Y27228250D01*
X49149000Y26129000D01*
X49169000Y26129000D01*
X49169000Y25875000D01*
X49149000Y25875000D01*
X49149000Y24775750D01*
X49307750Y24617000D01*
X49384542Y24617000D01*
X49507223Y24641403D01*
X49622785Y24689270D01*
X49655155Y24710899D01*
X49814237Y24639190D01*
X49992000Y24613928D01*
X50143060Y24613928D01*
X46207984Y20678852D01*
X40545852Y20678852D01*
X40469060Y20671323D01*
X40392252Y20664603D01*
X40388038Y20663379D01*
X40383666Y20662950D01*
X40309785Y20640644D01*
X40235759Y20619137D01*
X40231863Y20617118D01*
X40227658Y20615848D01*
X40159520Y20579618D01*
X40091078Y20544141D01*
X40087648Y20541403D01*
X40083770Y20539341D01*
X40023983Y20490580D01*
X39963718Y20442472D01*
X39957613Y20436451D01*
X39957482Y20436344D01*
X39957382Y20436223D01*
X39955418Y20434286D01*
X39414566Y19893434D01*
X39370154Y19839367D01*
X39333620Y19885133D01*
X39327600Y19891238D01*
X39327492Y19891370D01*
X39327369Y19891471D01*
X39325434Y19893434D01*
X38822969Y20395899D01*
X38813760Y20403463D01*
X38831102Y20408699D01*
X38905113Y20430202D01*
X38909007Y20432221D01*
X38913215Y20433491D01*
X38981332Y20469710D01*
X39049795Y20505197D01*
X39053228Y20507938D01*
X39057103Y20509998D01*
X39116887Y20558756D01*
X39177154Y20606867D01*
X39183259Y20612887D01*
X39183391Y20612995D01*
X39183492Y20613118D01*
X39185455Y20615053D01*
X40595434Y22025032D01*
X40644382Y22084621D01*
X40693970Y22143719D01*
X40696085Y22147566D01*
X40698872Y22150959D01*
X40713369Y22177995D01*
X40797237Y22140190D01*
X40975000Y22114928D01*
X41575000Y22114928D01*
X41676121Y22122992D01*
X41847634Y22176106D01*
X41997559Y22274900D01*
X42114025Y22411550D01*
X42187810Y22575237D01*
X42204545Y22693000D01*
X46428000Y22693000D01*
X46504747Y22700525D01*
X46581600Y22707249D01*
X46585814Y22708473D01*
X46590186Y22708902D01*
X46664081Y22731212D01*
X46738092Y22752715D01*
X46741986Y22754734D01*
X46746194Y22756004D01*
X46814311Y22792223D01*
X46882774Y22827710D01*
X46886207Y22830451D01*
X46890082Y22832511D01*
X46949866Y22881269D01*
X47010133Y22929380D01*
X47016238Y22935400D01*
X47016370Y22935508D01*
X47016471Y22935631D01*
X47018434Y22937566D01*
X48342434Y24261566D01*
X48391404Y24321182D01*
X48440970Y24380253D01*
X48443083Y24384096D01*
X48445873Y24387493D01*
X48482352Y24455526D01*
X48519478Y24523059D01*
X48520805Y24527242D01*
X48522881Y24531114D01*
X48545437Y24604893D01*
X48555817Y24637616D01*
X48659458Y24617000D01*
X48736250Y24617000D01*
X48895000Y24775750D01*
X48895000Y25875000D01*
X48875000Y25875000D01*
X48875000Y26129000D01*
X48895000Y26129000D01*
X48895000Y27228250D01*
X48736250Y27387000D01*
X48659458Y27387000D01*
X48536777Y27362597D01*
X48421215Y27314730D01*
X48388845Y27293101D01*
X48229763Y27364810D01*
X48052000Y27390072D01*
X47900940Y27390072D01*
X48246818Y27735950D01*
X50165080Y27735950D01*
X49775366Y27346236D01*
G36*
X52959000Y26129000D02*
X52979000Y26129000D01*
X52979000Y25875000D01*
X52959000Y25875000D01*
X52959000Y24775750D01*
X53117750Y24617000D01*
X53194542Y24617000D01*
X53267000Y24631413D01*
X53267000Y24440290D01*
X53204366Y24420894D01*
X53054441Y24322100D01*
X52937975Y24185450D01*
X52864190Y24021763D01*
X52851007Y23929000D01*
X51819868Y23929000D01*
X52152434Y24261566D01*
X52201404Y24321182D01*
X52250970Y24380253D01*
X52253083Y24384096D01*
X52255873Y24387493D01*
X52292352Y24455526D01*
X52329478Y24523059D01*
X52330805Y24527242D01*
X52332881Y24531114D01*
X52355437Y24604893D01*
X52365817Y24637616D01*
X52469458Y24617000D01*
X52546250Y24617000D01*
X52705000Y24775750D01*
X52705000Y25875000D01*
X52685000Y25875000D01*
X52685000Y26129000D01*
X52705000Y26129000D01*
X52705000Y26149000D01*
X52959000Y26149000D01*
X52959000Y26129000D01*
X52959000Y26129000D01*
G37*
X52959000Y26129000D02*
X52979000Y26129000D01*
X52979000Y25875000D01*
X52959000Y25875000D01*
X52959000Y24775750D01*
X53117750Y24617000D01*
X53194542Y24617000D01*
X53267000Y24631413D01*
X53267000Y24440290D01*
X53204366Y24420894D01*
X53054441Y24322100D01*
X52937975Y24185450D01*
X52864190Y24021763D01*
X52851007Y23929000D01*
X51819868Y23929000D01*
X52152434Y24261566D01*
X52201404Y24321182D01*
X52250970Y24380253D01*
X52253083Y24384096D01*
X52255873Y24387493D01*
X52292352Y24455526D01*
X52329478Y24523059D01*
X52330805Y24527242D01*
X52332881Y24531114D01*
X52355437Y24604893D01*
X52365817Y24637616D01*
X52469458Y24617000D01*
X52546250Y24617000D01*
X52705000Y24775750D01*
X52705000Y25875000D01*
X52685000Y25875000D01*
X52685000Y26129000D01*
X52705000Y26129000D01*
X52705000Y26149000D01*
X52959000Y26149000D01*
X52959000Y26129000D01*
M02*
